G04 Layer: TopSilkLayer*
G04 EasyEDA v6.4.25, 2022-01-16T12:25:19--5:00*
G04 Gerber Generator version 0.2*
G04 Scale: 100 percent, Rotated: No, Reflected: No *
G04 Dimensions in millimeters *
G04 leading zeros omitted , absolute positions ,4 integer and 5 decimal *
%FSLAX45Y45*%
%MOMM*%

%ADD10C,0.2540*%
%ADD15C,0.1270*%
%ADD16C,0.2032*%
%ADD17C,0.1524*%

%LPD*%
D16*
X2938272Y-1610868D02*
G01*
X2933954Y-1601723D01*
X2924809Y-1592834D01*
X2915665Y-1588262D01*
X2897377Y-1588262D01*
X2888488Y-1592834D01*
X2879343Y-1601723D01*
X2874772Y-1610868D01*
X2870200Y-1624584D01*
X2870200Y-1647189D01*
X2874772Y-1660905D01*
X2879343Y-1670050D01*
X2888488Y-1679194D01*
X2897377Y-1683765D01*
X2915665Y-1683765D01*
X2924809Y-1679194D01*
X2933954Y-1670050D01*
X2938272Y-1660905D01*
X2938272Y-1647189D01*
X2915665Y-1647189D02*
G01*
X2938272Y-1647189D01*
X2968497Y-1588262D02*
G01*
X2968497Y-1683765D01*
X2968497Y-1588262D02*
G01*
X3031997Y-1683765D01*
X3031997Y-1588262D02*
G01*
X3031997Y-1683765D01*
X3061970Y-1588262D02*
G01*
X3061970Y-1683765D01*
X3061970Y-1588262D02*
G01*
X3093720Y-1588262D01*
X3107436Y-1592834D01*
X3116579Y-1601723D01*
X3121152Y-1610868D01*
X3125724Y-1624584D01*
X3125724Y-1647189D01*
X3121152Y-1660905D01*
X3116579Y-1670050D01*
X3107436Y-1679194D01*
X3093720Y-1683765D01*
X3061970Y-1683765D01*
X2336800Y-1771395D02*
G01*
X2345943Y-1766823D01*
X2359406Y-1753362D01*
X2359406Y-1848865D01*
X2646172Y-1623568D02*
G01*
X2646172Y-1618995D01*
X2650743Y-1610105D01*
X2655315Y-1605534D01*
X2664206Y-1600962D01*
X2682493Y-1600962D01*
X2691638Y-1605534D01*
X2696209Y-1610105D01*
X2700781Y-1618995D01*
X2700781Y-1628139D01*
X2696209Y-1637284D01*
X2687065Y-1651000D01*
X2641600Y-1696465D01*
X2705354Y-1696465D01*
X3298443Y-1613662D02*
G01*
X3348481Y-1613662D01*
X3321050Y-1649984D01*
X3334765Y-1649984D01*
X3343909Y-1654555D01*
X3348481Y-1659128D01*
X3353054Y-1672589D01*
X3353054Y-1681734D01*
X3348481Y-1695450D01*
X3339338Y-1704594D01*
X3325622Y-1709165D01*
X3311906Y-1709165D01*
X3298443Y-1704594D01*
X3293872Y-1700021D01*
X3289300Y-1690878D01*
X3664965Y-1753362D02*
G01*
X3619500Y-1816862D01*
X3687572Y-1816862D01*
X3664965Y-1753362D02*
G01*
X3664965Y-1848865D01*
X660400Y-1860295D02*
G01*
X669544Y-1855723D01*
X683005Y-1842262D01*
X683005Y-1937765D01*
X740410Y-1842262D02*
G01*
X726694Y-1846834D01*
X717550Y-1860295D01*
X713231Y-1883155D01*
X713231Y-1896618D01*
X717550Y-1919478D01*
X726694Y-1933194D01*
X740410Y-1937765D01*
X749554Y-1937765D01*
X763015Y-1933194D01*
X772160Y-1919478D01*
X776731Y-1896618D01*
X776731Y-1883155D01*
X772160Y-1860295D01*
X763015Y-1846834D01*
X749554Y-1842262D01*
X740410Y-1842262D01*
X806704Y-1874012D02*
G01*
X806704Y-1937765D01*
X806704Y-1892300D02*
G01*
X820420Y-1878584D01*
X829563Y-1874012D01*
X843026Y-1874012D01*
X852170Y-1878584D01*
X856742Y-1892300D01*
X856742Y-1937765D01*
X856742Y-1892300D02*
G01*
X870457Y-1878584D01*
X879602Y-1874012D01*
X893063Y-1874012D01*
X902207Y-1878584D01*
X906779Y-1892300D01*
X906779Y-1937765D01*
X936752Y-1874012D02*
G01*
X936752Y-1937765D01*
X936752Y-1892300D02*
G01*
X950468Y-1878584D01*
X959612Y-1874012D01*
X973073Y-1874012D01*
X982218Y-1878584D01*
X986789Y-1892300D01*
X986789Y-1937765D01*
X986789Y-1892300D02*
G01*
X1000505Y-1878584D01*
X1009395Y-1874012D01*
X1023112Y-1874012D01*
X1032255Y-1878584D01*
X1036828Y-1892300D01*
X1036828Y-1937765D01*
X1136650Y-1842262D02*
G01*
X1136650Y-1937765D01*
X1136650Y-1937765D02*
G01*
X1191260Y-1937765D01*
X1221231Y-1842262D02*
G01*
X1225804Y-1846834D01*
X1230376Y-1842262D01*
X1225804Y-1837689D01*
X1221231Y-1842262D01*
X1225804Y-1874012D02*
G01*
X1225804Y-1937765D01*
X1314957Y-1874012D02*
G01*
X1314957Y-1946655D01*
X1310386Y-1960371D01*
X1305813Y-1964944D01*
X1296670Y-1969515D01*
X1283207Y-1969515D01*
X1274063Y-1964944D01*
X1314957Y-1887728D02*
G01*
X1305813Y-1878584D01*
X1296670Y-1874012D01*
X1283207Y-1874012D01*
X1274063Y-1878584D01*
X1264920Y-1887728D01*
X1260347Y-1901189D01*
X1260347Y-1910334D01*
X1264920Y-1924050D01*
X1274063Y-1933194D01*
X1283207Y-1937765D01*
X1296670Y-1937765D01*
X1305813Y-1933194D01*
X1314957Y-1924050D01*
X1344929Y-1842262D02*
G01*
X1344929Y-1937765D01*
X1344929Y-1892300D02*
G01*
X1358645Y-1878584D01*
X1367789Y-1874012D01*
X1381252Y-1874012D01*
X1390395Y-1878584D01*
X1394968Y-1892300D01*
X1394968Y-1937765D01*
X1438655Y-1842262D02*
G01*
X1438655Y-1919478D01*
X1443228Y-1933194D01*
X1452118Y-1937765D01*
X1461262Y-1937765D01*
X1424939Y-1874012D02*
G01*
X1456689Y-1874012D01*
X1561337Y-1842262D02*
G01*
X1561337Y-1937765D01*
X1561337Y-1842262D02*
G01*
X1602231Y-1842262D01*
X1615947Y-1846834D01*
X1620520Y-1851405D01*
X1624837Y-1860295D01*
X1624837Y-1869439D01*
X1620520Y-1878584D01*
X1615947Y-1883155D01*
X1602231Y-1887728D01*
X1561337Y-1887728D02*
G01*
X1602231Y-1887728D01*
X1615947Y-1892300D01*
X1620520Y-1896618D01*
X1624837Y-1905762D01*
X1624837Y-1919478D01*
X1620520Y-1928621D01*
X1615947Y-1933194D01*
X1602231Y-1937765D01*
X1561337Y-1937765D01*
X1709420Y-1874012D02*
G01*
X1709420Y-1937765D01*
X1709420Y-1887728D02*
G01*
X1700276Y-1878584D01*
X1691386Y-1874012D01*
X1677670Y-1874012D01*
X1668526Y-1878584D01*
X1659381Y-1887728D01*
X1655063Y-1901189D01*
X1655063Y-1910334D01*
X1659381Y-1924050D01*
X1668526Y-1933194D01*
X1677670Y-1937765D01*
X1691386Y-1937765D01*
X1700276Y-1933194D01*
X1709420Y-1924050D01*
X1739392Y-1874012D02*
G01*
X1739392Y-1937765D01*
X1739392Y-1901189D02*
G01*
X1743963Y-1887728D01*
X1753107Y-1878584D01*
X1762252Y-1874012D01*
X1775968Y-1874012D01*
X1875789Y-1874012D02*
G01*
X1903221Y-1937765D01*
X1930400Y-1874012D02*
G01*
X1903221Y-1937765D01*
X1960372Y-1860295D02*
G01*
X1969515Y-1855723D01*
X1983231Y-1842262D01*
X1983231Y-1937765D01*
X3797300Y-1842262D02*
G01*
X3797300Y-1937765D01*
X3797300Y-1842262D02*
G01*
X3829050Y-1842262D01*
X3842765Y-1846834D01*
X3851909Y-1855723D01*
X3856481Y-1864868D01*
X3861054Y-1878584D01*
X3861054Y-1901189D01*
X3856481Y-1914905D01*
X3851909Y-1924050D01*
X3842765Y-1933194D01*
X3829050Y-1937765D01*
X3797300Y-1937765D01*
X3891025Y-1901189D02*
G01*
X3945381Y-1901189D01*
X3945381Y-1892300D01*
X3940809Y-1883155D01*
X3936491Y-1878584D01*
X3927347Y-1874012D01*
X3913631Y-1874012D01*
X3904488Y-1878584D01*
X3895597Y-1887728D01*
X3891025Y-1901189D01*
X3891025Y-1910334D01*
X3895597Y-1924050D01*
X3904488Y-1933194D01*
X3913631Y-1937765D01*
X3927347Y-1937765D01*
X3936491Y-1933194D01*
X3945381Y-1924050D01*
X4025391Y-1887728D02*
G01*
X4020820Y-1878584D01*
X4007358Y-1874012D01*
X3993641Y-1874012D01*
X3979925Y-1878584D01*
X3975608Y-1887728D01*
X3979925Y-1896618D01*
X3989070Y-1901189D01*
X4011929Y-1905762D01*
X4020820Y-1910334D01*
X4025391Y-1919478D01*
X4025391Y-1924050D01*
X4020820Y-1933194D01*
X4007358Y-1937765D01*
X3993641Y-1937765D01*
X3979925Y-1933194D01*
X3975608Y-1924050D01*
X4055363Y-1842262D02*
G01*
X4059936Y-1846834D01*
X4064508Y-1842262D01*
X4059936Y-1837689D01*
X4055363Y-1842262D01*
X4059936Y-1874012D02*
G01*
X4059936Y-1937765D01*
X4149090Y-1874012D02*
G01*
X4149090Y-1946655D01*
X4144518Y-1960371D01*
X4139945Y-1964944D01*
X4131056Y-1969515D01*
X4117340Y-1969515D01*
X4108195Y-1964944D01*
X4149090Y-1887728D02*
G01*
X4139945Y-1878584D01*
X4131056Y-1874012D01*
X4117340Y-1874012D01*
X4108195Y-1878584D01*
X4099052Y-1887728D01*
X4094479Y-1901189D01*
X4094479Y-1910334D01*
X4099052Y-1924050D01*
X4108195Y-1933194D01*
X4117340Y-1937765D01*
X4131056Y-1937765D01*
X4139945Y-1933194D01*
X4149090Y-1924050D01*
X4179061Y-1874012D02*
G01*
X4179061Y-1937765D01*
X4179061Y-1892300D02*
G01*
X4192777Y-1878584D01*
X4201922Y-1874012D01*
X4215384Y-1874012D01*
X4224527Y-1878584D01*
X4229100Y-1892300D01*
X4229100Y-1937765D01*
X4259072Y-1901189D02*
G01*
X4313681Y-1901189D01*
X4313681Y-1892300D01*
X4309109Y-1883155D01*
X4304538Y-1878584D01*
X4295393Y-1874012D01*
X4281931Y-1874012D01*
X4272788Y-1878584D01*
X4263643Y-1887728D01*
X4259072Y-1901189D01*
X4259072Y-1910334D01*
X4263643Y-1924050D01*
X4272788Y-1933194D01*
X4281931Y-1937765D01*
X4295393Y-1937765D01*
X4304538Y-1933194D01*
X4313681Y-1924050D01*
X4398263Y-1842262D02*
G01*
X4398263Y-1937765D01*
X4398263Y-1887728D02*
G01*
X4389120Y-1878584D01*
X4379975Y-1874012D01*
X4366513Y-1874012D01*
X4357370Y-1878584D01*
X4348225Y-1887728D01*
X4343654Y-1901189D01*
X4343654Y-1910334D01*
X4348225Y-1924050D01*
X4357370Y-1933194D01*
X4366513Y-1937765D01*
X4379975Y-1937765D01*
X4389120Y-1933194D01*
X4398263Y-1924050D01*
X4498086Y-1842262D02*
G01*
X4498086Y-1937765D01*
X4498086Y-1887728D02*
G01*
X4507229Y-1878584D01*
X4516374Y-1874012D01*
X4530090Y-1874012D01*
X4539234Y-1878584D01*
X4548124Y-1887728D01*
X4552695Y-1901189D01*
X4552695Y-1910334D01*
X4548124Y-1924050D01*
X4539234Y-1933194D01*
X4530090Y-1937765D01*
X4516374Y-1937765D01*
X4507229Y-1933194D01*
X4498086Y-1924050D01*
X4587240Y-1874012D02*
G01*
X4614672Y-1937765D01*
X4641850Y-1874012D02*
G01*
X4614672Y-1937765D01*
X4605527Y-1955800D01*
X4596384Y-1964944D01*
X4587240Y-1969515D01*
X4582668Y-1969515D01*
X4741925Y-1842262D02*
G01*
X4741925Y-1937765D01*
X4741925Y-1937765D02*
G01*
X4796281Y-1937765D01*
X4849113Y-1874012D02*
G01*
X4839970Y-1878584D01*
X4830825Y-1887728D01*
X4826508Y-1901189D01*
X4826508Y-1910334D01*
X4830825Y-1924050D01*
X4839970Y-1933194D01*
X4849113Y-1937765D01*
X4862829Y-1937765D01*
X4871720Y-1933194D01*
X4880863Y-1924050D01*
X4885436Y-1910334D01*
X4885436Y-1901189D01*
X4880863Y-1887728D01*
X4871720Y-1878584D01*
X4862829Y-1874012D01*
X4849113Y-1874012D01*
X4970018Y-1874012D02*
G01*
X4970018Y-1946655D01*
X4965445Y-1960371D01*
X4960874Y-1964944D01*
X4951729Y-1969515D01*
X4938268Y-1969515D01*
X4929124Y-1964944D01*
X4970018Y-1887728D02*
G01*
X4960874Y-1878584D01*
X4951729Y-1874012D01*
X4938268Y-1874012D01*
X4929124Y-1878584D01*
X4919979Y-1887728D01*
X4915408Y-1901189D01*
X4915408Y-1910334D01*
X4919979Y-1924050D01*
X4929124Y-1933194D01*
X4938268Y-1937765D01*
X4951729Y-1937765D01*
X4960874Y-1933194D01*
X4970018Y-1924050D01*
X5054600Y-1874012D02*
G01*
X5054600Y-1937765D01*
X5054600Y-1887728D02*
G01*
X5045456Y-1878584D01*
X5036311Y-1874012D01*
X5022850Y-1874012D01*
X5013706Y-1878584D01*
X5004561Y-1887728D01*
X4999990Y-1901189D01*
X4999990Y-1910334D01*
X5004561Y-1924050D01*
X5013706Y-1933194D01*
X5022850Y-1937765D01*
X5036311Y-1937765D01*
X5045456Y-1933194D01*
X5054600Y-1924050D01*
X5084572Y-1874012D02*
G01*
X5084572Y-1937765D01*
X5084572Y-1892300D02*
G01*
X5098288Y-1878584D01*
X5107177Y-1874012D01*
X5120893Y-1874012D01*
X5130038Y-1878584D01*
X5134609Y-1892300D01*
X5134609Y-1937765D01*
X5234686Y-1842262D02*
G01*
X5239004Y-1846834D01*
X5243575Y-1842262D01*
X5239004Y-1837689D01*
X5234686Y-1842262D01*
X5239004Y-1874012D02*
G01*
X5239004Y-1937765D01*
X5273547Y-1874012D02*
G01*
X5273547Y-1937765D01*
X5273547Y-1892300D02*
G01*
X5287263Y-1878584D01*
X5296408Y-1874012D01*
X5310124Y-1874012D01*
X5319013Y-1878584D01*
X5323586Y-1892300D01*
X5323586Y-1937765D01*
X5423661Y-1842262D02*
G01*
X5423661Y-1937765D01*
X5423661Y-1842262D02*
G01*
X5487415Y-1937765D01*
X5487415Y-1842262D02*
G01*
X5487415Y-1937765D01*
X5517388Y-1842262D02*
G01*
X5517388Y-1937765D01*
X5580888Y-1842262D02*
G01*
X5580888Y-1937765D01*
X5517388Y-1887728D02*
G01*
X5580888Y-1887728D01*
D17*
X621499Y-252984D02*
G01*
X621499Y-361950D01*
X621499Y-361950D02*
G01*
X683729Y-361950D01*
X718019Y-252984D02*
G01*
X718019Y-361950D01*
X718019Y-252984D02*
G01*
X785583Y-252984D01*
X718019Y-304800D02*
G01*
X759675Y-304800D01*
X718019Y-361950D02*
G01*
X785583Y-361950D01*
X819873Y-252984D02*
G01*
X819873Y-361950D01*
X819873Y-252984D02*
G01*
X856449Y-252984D01*
X871943Y-258063D01*
X882357Y-268478D01*
X887437Y-278892D01*
X892771Y-294639D01*
X892771Y-320547D01*
X887437Y-336042D01*
X882357Y-346455D01*
X871943Y-356870D01*
X856449Y-361950D01*
X819873Y-361950D01*
X927061Y-273812D02*
G01*
X937475Y-268478D01*
X952969Y-252984D01*
X952969Y-361950D01*
X2094699Y-252984D02*
G01*
X2094699Y-361950D01*
X2094699Y-361950D02*
G01*
X2156929Y-361950D01*
X2191219Y-252984D02*
G01*
X2191219Y-361950D01*
X2191219Y-252984D02*
G01*
X2258783Y-252984D01*
X2191219Y-304800D02*
G01*
X2232875Y-304800D01*
X2191219Y-361950D02*
G01*
X2258783Y-361950D01*
X2293073Y-252984D02*
G01*
X2293073Y-361950D01*
X2293073Y-252984D02*
G01*
X2329649Y-252984D01*
X2345143Y-258063D01*
X2355557Y-268478D01*
X2360637Y-278892D01*
X2365971Y-294639D01*
X2365971Y-320547D01*
X2360637Y-336042D01*
X2355557Y-346455D01*
X2345143Y-356870D01*
X2329649Y-361950D01*
X2293073Y-361950D01*
X2405341Y-278892D02*
G01*
X2405341Y-273812D01*
X2410675Y-263397D01*
X2415755Y-258063D01*
X2426169Y-252984D01*
X2446997Y-252984D01*
X2457411Y-258063D01*
X2462491Y-263397D01*
X2467825Y-273812D01*
X2467825Y-284226D01*
X2462491Y-294639D01*
X2452077Y-310134D01*
X2400261Y-361950D01*
X2472905Y-361950D01*
X3580599Y-278384D02*
G01*
X3580599Y-387350D01*
X3580599Y-387350D02*
G01*
X3642829Y-387350D01*
X3677119Y-278384D02*
G01*
X3677119Y-387350D01*
X3677119Y-278384D02*
G01*
X3744683Y-278384D01*
X3677119Y-330200D02*
G01*
X3718775Y-330200D01*
X3677119Y-387350D02*
G01*
X3744683Y-387350D01*
X3778973Y-278384D02*
G01*
X3778973Y-387350D01*
X3778973Y-278384D02*
G01*
X3815549Y-278384D01*
X3831043Y-283463D01*
X3841457Y-293878D01*
X3846537Y-304292D01*
X3851871Y-320039D01*
X3851871Y-345947D01*
X3846537Y-361442D01*
X3841457Y-371855D01*
X3831043Y-382270D01*
X3815549Y-387350D01*
X3778973Y-387350D01*
X3896575Y-278384D02*
G01*
X3953725Y-278384D01*
X3922483Y-320039D01*
X3937977Y-320039D01*
X3948391Y-325120D01*
X3953725Y-330200D01*
X3958805Y-345947D01*
X3958805Y-356362D01*
X3953725Y-371855D01*
X3943311Y-382270D01*
X3927563Y-387350D01*
X3912069Y-387350D01*
X3896575Y-382270D01*
X3891241Y-377189D01*
X3886161Y-366776D01*
X5079199Y-265684D02*
G01*
X5079199Y-374650D01*
X5079199Y-374650D02*
G01*
X5141429Y-374650D01*
X5175719Y-265684D02*
G01*
X5175719Y-374650D01*
X5175719Y-265684D02*
G01*
X5243283Y-265684D01*
X5175719Y-317500D02*
G01*
X5217375Y-317500D01*
X5175719Y-374650D02*
G01*
X5243283Y-374650D01*
X5277573Y-265684D02*
G01*
X5277573Y-374650D01*
X5277573Y-265684D02*
G01*
X5314149Y-265684D01*
X5329643Y-270763D01*
X5340057Y-281178D01*
X5345137Y-291592D01*
X5350471Y-307339D01*
X5350471Y-333247D01*
X5345137Y-348742D01*
X5340057Y-359155D01*
X5329643Y-369570D01*
X5314149Y-374650D01*
X5277573Y-374650D01*
X5436577Y-265684D02*
G01*
X5384761Y-338328D01*
X5462739Y-338328D01*
X5436577Y-265684D02*
G01*
X5436577Y-374650D01*
X1435483Y-1063500D02*
G01*
X1544449Y-1063500D01*
X1435483Y-1063500D02*
G01*
X1435483Y-1016764D01*
X1440563Y-1001270D01*
X1445897Y-995936D01*
X1456311Y-990856D01*
X1466725Y-990856D01*
X1477139Y-995936D01*
X1482219Y-1001270D01*
X1487299Y-1016764D01*
X1487299Y-1063500D01*
X1487299Y-1027178D02*
G01*
X1544449Y-990856D01*
X1456311Y-956566D02*
G01*
X1450977Y-946152D01*
X1435483Y-930404D01*
X1544449Y-930404D01*
X2908300Y-139484D02*
G01*
X2908300Y-248450D01*
X2908300Y-139484D02*
G01*
X2955036Y-139484D01*
X2970529Y-144564D01*
X2975863Y-149898D01*
X2980943Y-160312D01*
X2980943Y-170726D01*
X2975863Y-181140D01*
X2970529Y-186220D01*
X2955036Y-191300D01*
X2908300Y-191300D01*
X2944622Y-191300D02*
G01*
X2980943Y-248450D01*
X3020568Y-165392D02*
G01*
X3020568Y-160312D01*
X3025647Y-149898D01*
X3030981Y-144564D01*
X3041395Y-139484D01*
X3061970Y-139484D01*
X3072384Y-144564D01*
X3077718Y-149898D01*
X3082797Y-160312D01*
X3082797Y-170726D01*
X3077718Y-181140D01*
X3067304Y-196634D01*
X3015234Y-248450D01*
X3088131Y-248450D01*
X2945384Y-1092200D02*
G01*
X3054350Y-1092200D01*
X2945384Y-1092200D02*
G01*
X2945384Y-1045463D01*
X2950463Y-1029970D01*
X2955797Y-1024636D01*
X2966211Y-1019555D01*
X2976625Y-1019555D01*
X2987040Y-1024636D01*
X2992120Y-1029970D01*
X2997200Y-1045463D01*
X2997200Y-1092200D01*
X2997200Y-1055878D02*
G01*
X3054350Y-1019555D01*
X2945384Y-974852D02*
G01*
X2945384Y-917702D01*
X2987040Y-948689D01*
X2987040Y-933195D01*
X2992120Y-922781D01*
X2997200Y-917702D01*
X3012947Y-912368D01*
X3023361Y-912368D01*
X3038856Y-917702D01*
X3049270Y-928115D01*
X3054350Y-943610D01*
X3054350Y-959104D01*
X3049270Y-974852D01*
X3044190Y-979931D01*
X3033775Y-985265D01*
X4443984Y-1066800D02*
G01*
X4552950Y-1066800D01*
X4443984Y-1066800D02*
G01*
X4443984Y-1020063D01*
X4449063Y-1004570D01*
X4454397Y-999236D01*
X4464811Y-994155D01*
X4475225Y-994155D01*
X4485640Y-999236D01*
X4490720Y-1004570D01*
X4495800Y-1020063D01*
X4495800Y-1066800D01*
X4495800Y-1030478D02*
G01*
X4552950Y-994155D01*
X4443984Y-907795D02*
G01*
X4516627Y-959865D01*
X4516627Y-881887D01*
X4443984Y-907795D02*
G01*
X4552950Y-907795D01*
D10*
X1281000Y-746000D02*
G01*
X1281000Y-1254000D01*
X2781000Y-746000D02*
G01*
X2781000Y-1254000D01*
X4280999Y-746000D02*
G01*
X4280999Y-1254000D01*
X5780999Y-746000D02*
G01*
X5780999Y-1254000D01*
X1499999Y-1254000D02*
G01*
X1499999Y-1279400D01*
X1499999Y-746000D02*
G01*
X1499999Y-720600D01*
X1499999Y-1254000D02*
G01*
X1423799Y-1254000D01*
X1576199Y-1254000D02*
G01*
X1499999Y-1254000D01*
X1576199Y-746000D02*
G01*
X1576199Y-1254000D01*
X1499999Y-746000D02*
G01*
X1576199Y-746000D01*
X1423799Y-746000D02*
G01*
X1499999Y-746000D01*
X1423799Y-1254000D02*
G01*
X1423799Y-746000D01*
X2745999Y-199999D02*
G01*
X2720599Y-199999D01*
X3253999Y-199999D02*
G01*
X3279399Y-199999D01*
X2745999Y-199999D02*
G01*
X2745999Y-123799D01*
X2745999Y-276199D02*
G01*
X2745999Y-199999D01*
X3253999Y-276199D02*
G01*
X2745999Y-276199D01*
X3253999Y-199999D02*
G01*
X3253999Y-276199D01*
X3253999Y-123799D02*
G01*
X3253999Y-199999D01*
X2745999Y-123799D02*
G01*
X3253999Y-123799D01*
X2999999Y-1254000D02*
G01*
X2999999Y-1279400D01*
X2999999Y-746000D02*
G01*
X2999999Y-720600D01*
X2999999Y-1254000D02*
G01*
X2923799Y-1254000D01*
X3076199Y-1254000D02*
G01*
X2999999Y-1254000D01*
X3076199Y-746000D02*
G01*
X3076199Y-1254000D01*
X2999999Y-746000D02*
G01*
X3076199Y-746000D01*
X2923799Y-746000D02*
G01*
X2999999Y-746000D01*
X2923799Y-1254000D02*
G01*
X2923799Y-746000D01*
X4500001Y-1254000D02*
G01*
X4500001Y-1279400D01*
X4500001Y-746000D02*
G01*
X4500001Y-720600D01*
X4500001Y-1254000D02*
G01*
X4423801Y-1254000D01*
X4576201Y-1254000D02*
G01*
X4500001Y-1254000D01*
X4576201Y-746000D02*
G01*
X4576201Y-1254000D01*
X4500001Y-746000D02*
G01*
X4576201Y-746000D01*
X4423801Y-746000D02*
G01*
X4500001Y-746000D01*
X4423801Y-1254000D02*
G01*
X4423801Y-746000D01*
G75*
G01*
X1281001Y-1254001D02*
G02*
X1281001Y-746001I-508009J254000D01*
D15*
G75*
G01*
X1217501Y-1000001D02*
G02*
X773001Y-1444501I-444500J0D01*
G75*
G01*
X1154001Y-1000001D02*
G02*
X773001Y-1381001I-381000J0D01*
G75*
G01*
X1090501Y-1000001D02*
G02*
X773001Y-1317501I-317500J0D01*
G75*
G01*
X1027001Y-1000001D02*
G02*
X773001Y-1254001I-254000J0D01*
G75*
G01*
X328501Y-1000001D02*
G02*
X773001Y-555501I444500J0D01*
G75*
G01*
X392001Y-1000001D02*
G02*
X773001Y-619001I381000J0D01*
G75*
G01*
X455501Y-1000001D02*
G02*
X773001Y-682501I317500J0D01*
G75*
G01*
X519001Y-1000001D02*
G02*
X773001Y-746001I254000J0D01*
G75*
G01*
X1281001Y-1000001D02*
G03*
X1280874Y-1011177I-508000J184D01*
D10*
G75*
G01*
X2781000Y-1254001D02*
G02*
X2781000Y-746001I-508009J254000D01*
D15*
G75*
G01*
X2717500Y-1000001D02*
G02*
X2273000Y-1444501I-444500J0D01*
G75*
G01*
X2654000Y-1000001D02*
G02*
X2273000Y-1381001I-381000J0D01*
G75*
G01*
X2590500Y-1000001D02*
G02*
X2273000Y-1317501I-317500J0D01*
G75*
G01*
X2527000Y-1000001D02*
G02*
X2273000Y-1254001I-254000J0D01*
G75*
G01*
X1828500Y-1000001D02*
G02*
X2273000Y-555501I444500J0D01*
G75*
G01*
X1892000Y-1000001D02*
G02*
X2273000Y-619001I381000J0D01*
G75*
G01*
X1955500Y-1000001D02*
G02*
X2273000Y-682501I317500J0D01*
G75*
G01*
X2019000Y-1000001D02*
G02*
X2273000Y-746001I254000J0D01*
G75*
G01*
X2781000Y-1000001D02*
G03*
X2780873Y-1011177I-508000J184D01*
D10*
G75*
G01*
X4281000Y-1254001D02*
G02*
X4281000Y-746001I-508009J254000D01*
D15*
G75*
G01*
X4217500Y-1000001D02*
G02*
X3773000Y-1444501I-444500J0D01*
G75*
G01*
X4154000Y-1000001D02*
G02*
X3773000Y-1381001I-381000J0D01*
G75*
G01*
X4090500Y-1000001D02*
G02*
X3773000Y-1317501I-317500J0D01*
G75*
G01*
X4027000Y-1000001D02*
G02*
X3773000Y-1254001I-254000J0D01*
G75*
G01*
X3328500Y-1000001D02*
G02*
X3773000Y-555501I444500J0D01*
G75*
G01*
X3392000Y-1000001D02*
G02*
X3773000Y-619001I381000J0D01*
G75*
G01*
X3455500Y-1000001D02*
G02*
X3773000Y-682501I317500J0D01*
G75*
G01*
X3519000Y-1000001D02*
G02*
X3773000Y-746001I254000J0D01*
G75*
G01*
X4281000Y-1000001D02*
G03*
X4280873Y-1011177I-508000J184D01*
D10*
G75*
G01*
X5780999Y-1254001D02*
G02*
X5780999Y-746001I-508009J254000D01*
D15*
G75*
G01*
X5717499Y-1000001D02*
G02*
X5272999Y-1444501I-444500J0D01*
G75*
G01*
X5653999Y-1000001D02*
G02*
X5272999Y-1381001I-381000J0D01*
G75*
G01*
X5590499Y-1000001D02*
G02*
X5272999Y-1317501I-317500J0D01*
G75*
G01*
X5526999Y-1000001D02*
G02*
X5272999Y-1254001I-254000J0D01*
G75*
G01*
X4828499Y-1000001D02*
G02*
X5272999Y-555501I444500J0D01*
G75*
G01*
X4891999Y-1000001D02*
G02*
X5272999Y-619001I381000J0D01*
G75*
G01*
X4955499Y-1000001D02*
G02*
X5272999Y-682501I317500J0D01*
G75*
G01*
X5018999Y-1000001D02*
G02*
X5272999Y-746001I254000J0D01*
G75*
G01*
X5780999Y-1000001D02*
G03*
X5780872Y-1011177I-508000J184D01*
M02*
