G04 Layer: TopLayer*
G04 EasyEDA v6.4.25, 2022-01-16T12:25:19--5:00*
G04 Gerber Generator version 0.2*
G04 Scale: 100 percent, Rotated: No, Reflected: No *
G04 Dimensions in millimeters *
G04 leading zeros omitted , absolute positions ,4 integer and 5 decimal *
%FSLAX45Y45*%
%MOMM*%

%ADD10C,0.2540*%
%ADD12C,1.8796*%
%ADD13C,1.5240*%

%LPD*%
D10*
X3507999Y-1799998D02*
G01*
X3826101Y-1799998D01*
X4089400Y-1536700D01*
X4089400Y-1029601D01*
X4500001Y-619000D01*
X3253999Y-1799998D02*
G01*
X3253999Y-873000D01*
X2999999Y-619000D01*
X2745999Y-1799998D02*
G01*
X2745999Y-530600D01*
X2933700Y-342900D01*
X3238098Y-342900D01*
X3380999Y-199999D01*
X2491999Y-1799998D02*
G01*
X2491999Y-1611000D01*
X1499999Y-619000D01*
G36*
X816180Y-916180D02*
G01*
X983820Y-916180D01*
X983820Y-1083820D01*
X816180Y-1083820D01*
G37*
G36*
X723445Y-967920D02*
G01*
X678080Y-922555D01*
X613920Y-922555D01*
X568556Y-967920D01*
X568556Y-1032080D01*
X613920Y-1077445D01*
X678080Y-1077445D01*
X723445Y-1032080D01*
G37*
G36*
X2316180Y-916180D02*
G01*
X2483820Y-916180D01*
X2483820Y-1083820D01*
X2316180Y-1083820D01*
G37*
G36*
X2223444Y-967920D02*
G01*
X2178080Y-922555D01*
X2113920Y-922555D01*
X2068555Y-967920D01*
X2068555Y-1032080D01*
X2113920Y-1077445D01*
X2178080Y-1077445D01*
X2223444Y-1032080D01*
G37*
G36*
X3816179Y-916180D02*
G01*
X3983819Y-916180D01*
X3983819Y-1083820D01*
X3816179Y-1083820D01*
G37*
G36*
X3723444Y-967920D02*
G01*
X3678080Y-922555D01*
X3613919Y-922555D01*
X3568555Y-967920D01*
X3568555Y-1032080D01*
X3613919Y-1077445D01*
X3678080Y-1077445D01*
X3723444Y-1032080D01*
G37*
G36*
X5316179Y-916180D02*
G01*
X5483819Y-916180D01*
X5483819Y-1083820D01*
X5316179Y-1083820D01*
G37*
G36*
X5223443Y-967920D02*
G01*
X5178079Y-922555D01*
X5113919Y-922555D01*
X5068554Y-967920D01*
X5068554Y-1032080D01*
X5113919Y-1077445D01*
X5178079Y-1077445D01*
X5223443Y-1032080D01*
G37*
D12*
G01*
X1499999Y-1381000D03*
G01*
X1499999Y-619000D03*
G01*
X2618999Y-199999D03*
G01*
X3380999Y-199999D03*
G01*
X2999999Y-1381000D03*
G01*
X2999999Y-619000D03*
G01*
X4500001Y-1381000D03*
G01*
X4500001Y-619000D03*
D13*
G01*
X2745999Y-1799998D03*
G36*
X2923799Y-1723798D02*
G01*
X3076199Y-1723798D01*
X3076199Y-1876198D01*
X2923799Y-1876198D01*
G37*
G01*
X3253999Y-1799998D03*
G01*
X3507999Y-1799998D03*
G01*
X2491999Y-1799998D03*
M02*
