G04 Layer: BottomSilkLayer*
G04 EasyEDA v6.4.25, 2022-01-16T12:25:19--5:00*
G04 Gerber Generator version 0.2*
G04 Scale: 100 percent, Rotated: No, Reflected: No *
G04 Dimensions in millimeters *
G04 leading zeros omitted , absolute positions ,4 integer and 5 decimal *
%FSLAX45Y45*%
%MOMM*%

%ADD16C,0.2032*%

%LPD*%
D16*
X2374900Y-1771472D02*
G01*
X2365809Y-1766928D01*
X2352172Y-1753290D01*
X2352172Y-1848746D01*
X2700553Y-1623618D02*
G01*
X2700553Y-1619072D01*
X2696009Y-1609981D01*
X2691462Y-1605437D01*
X2682372Y-1600890D01*
X2664190Y-1600890D01*
X2655100Y-1605437D01*
X2650553Y-1609981D01*
X2646009Y-1619072D01*
X2646009Y-1628162D01*
X2650553Y-1637253D01*
X2659646Y-1650890D01*
X2705100Y-1696346D01*
X2641462Y-1696346D01*
X3343709Y-1613590D02*
G01*
X3293709Y-1613590D01*
X3320981Y-1649953D01*
X3307346Y-1649953D01*
X3298253Y-1654500D01*
X3293709Y-1659046D01*
X3289162Y-1672681D01*
X3289162Y-1681772D01*
X3293709Y-1695409D01*
X3302800Y-1704500D01*
X3316437Y-1709046D01*
X3330072Y-1709046D01*
X3343709Y-1704500D01*
X3348253Y-1699953D01*
X3352800Y-1690862D01*
X3637546Y-1753290D02*
G01*
X3683000Y-1816928D01*
X3614818Y-1816928D01*
X3637546Y-1753290D02*
G01*
X3637546Y-1848746D01*
X3056018Y-1610918D02*
G01*
X3060562Y-1601828D01*
X3069653Y-1592737D01*
X3078746Y-1588190D01*
X3096928Y-1588190D01*
X3106018Y-1592737D01*
X3115109Y-1601828D01*
X3119653Y-1610918D01*
X3124200Y-1624553D01*
X3124200Y-1647281D01*
X3119653Y-1660918D01*
X3115109Y-1670009D01*
X3106018Y-1679100D01*
X3096928Y-1683646D01*
X3078746Y-1683646D01*
X3069653Y-1679100D01*
X3060562Y-1670009D01*
X3056018Y-1660918D01*
X3056018Y-1647281D01*
X3078746Y-1647281D02*
G01*
X3056018Y-1647281D01*
X3026018Y-1588190D02*
G01*
X3026018Y-1683646D01*
X3026018Y-1588190D02*
G01*
X2962381Y-1683646D01*
X2962381Y-1588190D02*
G01*
X2962381Y-1683646D01*
X2932381Y-1588190D02*
G01*
X2932381Y-1683646D01*
X2932381Y-1588190D02*
G01*
X2900563Y-1588190D01*
X2886928Y-1592737D01*
X2877835Y-1601828D01*
X2873291Y-1610918D01*
X2868744Y-1624553D01*
X2868744Y-1647281D01*
X2873291Y-1660918D01*
X2877835Y-1670009D01*
X2886928Y-1679100D01*
X2900563Y-1683646D01*
X2932381Y-1683646D01*
M02*
