G04 Layer: TopSolderMaskLayer*
G04 EasyEDA v6.4.25, 2022-01-16T12:25:19--5:00*
G04 Gerber Generator version 0.2*
G04 Scale: 100 percent, Rotated: No, Reflected: No *
G04 Dimensions in millimeters *
G04 leading zeros omitted , absolute positions ,4 integer and 5 decimal *
%FSLAX45Y45*%
%MOMM*%

%ADD19C,1.9812*%
%ADD20C,1.7272*%

%LPD*%
G36*
X805942Y-1093978D02*
G01*
X805942Y-906018D01*
X993902Y-906018D01*
X993902Y-1093978D01*
G37*
G36*
X609600Y-1087628D02*
G01*
X558292Y-1036320D01*
X558292Y-963676D01*
X609600Y-912368D01*
X682244Y-912368D01*
X733552Y-963676D01*
X733552Y-1036320D01*
X682244Y-1087628D01*
G37*
G36*
X2306065Y-1093978D02*
G01*
X2306065Y-906018D01*
X2494025Y-906018D01*
X2494025Y-1093978D01*
G37*
G36*
X2109724Y-1087628D02*
G01*
X2058415Y-1036320D01*
X2058415Y-963676D01*
X2109724Y-912368D01*
X2182368Y-912368D01*
X2233675Y-963676D01*
X2233675Y-1036320D01*
X2182368Y-1087628D01*
G37*
G36*
X3805936Y-1093978D02*
G01*
X3805936Y-906018D01*
X3993895Y-906018D01*
X3993895Y-1093978D01*
G37*
G36*
X3609593Y-1087628D02*
G01*
X3558286Y-1036320D01*
X3558286Y-963676D01*
X3609593Y-912368D01*
X3682238Y-912368D01*
X3733545Y-963676D01*
X3733545Y-1036320D01*
X3682238Y-1087628D01*
G37*
G36*
X5306059Y-1093978D02*
G01*
X5306059Y-906018D01*
X5494020Y-906018D01*
X5494020Y-1093978D01*
G37*
G36*
X5109718Y-1087628D02*
G01*
X5058409Y-1036320D01*
X5058409Y-963676D01*
X5109718Y-912368D01*
X5182361Y-912368D01*
X5233670Y-963676D01*
X5233670Y-1036320D01*
X5182361Y-1087628D01*
G37*
D19*
G01*
X1499999Y-1381000D03*
G01*
X1499999Y-619000D03*
G01*
X2618999Y-199999D03*
G01*
X3380999Y-199999D03*
G01*
X2999999Y-1381000D03*
G01*
X2999999Y-619000D03*
G01*
X4500001Y-1381000D03*
G01*
X4500001Y-619000D03*
D20*
G01*
X2745999Y-1799998D03*
G36*
X2913634Y-1886457D02*
G01*
X2913634Y-1713737D01*
X3086354Y-1713737D01*
X3086354Y-1886457D01*
G37*
G01*
X3253999Y-1799998D03*
G01*
X3507999Y-1799998D03*
G01*
X2491999Y-1799998D03*
M02*
