M48
METRIC,LZ,000.000
;FILE_FORMAT=3:3
;TYPE=PLATED
;Layer: Drill PTH
;EasyEDA v6.4.25, 2022-01-16T12:25:19--5:00
;10
;Gerber Generator version 0.2
;Holesize 1 = 0.813 mm
T01C0.813
;Holesize 2 = 0.900 mm
T02C0.900
;Holesize 3 = 0.915 mm
T03C0.915
%
G05
G90
T01
X008997Y-010000G85X009003Y-010000
X006457Y-010000G85X006463Y-010000
X023997Y-010000G85X024003Y-010000
X021457Y-010000G85X021463Y-010000
X038997Y-010000G85X039003Y-010000
X036457Y-010000G85X036463Y-010000
X053997Y-010000G85X054003Y-010000
X051457Y-010000G85X051463Y-010000
T02
X015000Y-013810
X015000Y-006190
X026190Y-002000
X033810Y-002000
X030000Y-013810
X030000Y-006190
X045000Y-013810
X045000Y-006190
T03
X027460Y-018000
X030000Y-018000
X032540Y-018000
X035080Y-018000
X024920Y-018000
M30
