G04 Layer: BottomLayer*
G04 EasyEDA v6.4.25, 2022-01-16T12:25:19--5:00*
G04 Gerber Generator version 0.2*
G04 Scale: 100 percent, Rotated: No, Reflected: No *
G04 Dimensions in millimeters *
G04 leading zeros omitted , absolute positions ,4 integer and 5 decimal *
%FSLAX45Y45*%
%MOMM*%

%ADD10C,0.2540*%
%ADD12C,1.8000*%
%ADD13R,1.6000X0.9000*%
%ADD14C,1.8796*%
%ADD15C,1.5240*%
%ADD16C,1.5200*%
%ADD17C,1.7500*%
%ADD20C,0.9000*%

%LPD*%
D10*
X909065Y6540500D02*
G01*
X3029965Y4419600D01*
X5422900Y4419600D01*
X5613400Y4610100D01*
X5613400Y7035800D01*
X909065Y6794500D02*
G01*
X3034029Y4669536D01*
X5363463Y4669536D01*
X5363463Y7035800D01*
X4152900Y4800600D02*
G01*
X4102100Y4749800D01*
X3213100Y4749800D01*
X2959100Y5003800D01*
X2959100Y5524500D01*
X2057400Y8437499D02*
G01*
X2243200Y8623300D01*
X2413000Y8623300D01*
X2743200Y8953500D01*
X2743200Y9156700D01*
X2959100Y9372600D01*
X6731000Y9372600D01*
X6870700Y9232900D01*
X6870700Y5549900D01*
X6692900Y5372100D01*
X6692900Y5308600D01*
X2311400Y8437626D02*
G01*
X2379725Y8437626D01*
X2857500Y8915400D01*
X2857500Y9067800D01*
X3047238Y9258300D01*
X6286500Y9258300D01*
X6477000Y9067800D01*
X6477000Y5270500D01*
X6692900Y5054600D01*
X2959100Y5778500D02*
G01*
X3213100Y6032500D01*
X3213100Y6934200D01*
X2997200Y7150100D01*
X2717800Y7150100D01*
X2565400Y7302500D01*
X2565400Y7437501D01*
X2959100Y6032500D02*
G01*
X3098800Y6172200D01*
X3098800Y6870700D01*
X2959100Y7010400D01*
X2654300Y7010400D01*
X2311400Y7353300D01*
X2311400Y7437501D01*
X909065Y6286500D02*
G01*
X2852165Y4343400D01*
X5613400Y4343400D01*
X6159500Y4889500D01*
X6159500Y7611363D01*
X5376163Y8394700D01*
X909065Y6032500D02*
G01*
X2750565Y4191000D01*
X5689600Y4191000D01*
X6299200Y4800600D01*
X6299200Y7721600D01*
X5626100Y8394700D01*
X2057400Y7437501D02*
G01*
X2755900Y6739001D01*
X2755900Y6515100D01*
X2959100Y6311900D01*
X2959100Y6286500D01*
X2819400Y8437499D02*
G01*
X3535299Y7721600D01*
X4343400Y7721600D01*
X4483100Y7581900D01*
X4483100Y5384800D01*
X4152900Y5054600D01*
G36*
X913300Y3036399D02*
G01*
X1093299Y3036399D01*
X1093299Y2856400D01*
X913300Y2856400D01*
G37*
D12*
G01*
X1353312Y2946400D03*
G36*
X1078400Y7519499D02*
G01*
X1258399Y7519499D01*
X1258399Y7339500D01*
X1078400Y7339500D01*
G37*
G01*
X1518412Y7429500D03*
D13*
G01*
X2349500Y9080500D03*
D14*
G01*
X3009900Y8953500D03*
G01*
X3771900Y8953500D03*
D15*
G01*
X4152900Y4800600D03*
G01*
X4152900Y5054600D03*
G01*
X4152900Y5308600D03*
G01*
X4152900Y5562600D03*
G01*
X4152900Y5816600D03*
G01*
X4152900Y6070600D03*
G01*
X4152900Y6324600D03*
G01*
X4152900Y6578600D03*
G01*
X4152900Y6832600D03*
G01*
X4152900Y7086600D03*
G01*
X4152900Y7340600D03*
G01*
X4152900Y7594600D03*
G01*
X4152900Y7848600D03*
G01*
X4152900Y8102600D03*
G01*
X4152900Y8356600D03*
G01*
X4152900Y8610600D03*
G01*
X4152900Y8864600D03*
G01*
X4152900Y9118600D03*
G01*
X6692900Y4800600D03*
G01*
X6692900Y5054600D03*
G01*
X6692900Y5308600D03*
G01*
X6692900Y5562600D03*
G01*
X6692900Y5816600D03*
G01*
X6692900Y6070600D03*
G01*
X6692900Y6324600D03*
G01*
X6692900Y6578600D03*
G01*
X6692900Y6832600D03*
G01*
X6692900Y7086600D03*
G01*
X6692900Y7340600D03*
G01*
X6692900Y7594600D03*
G01*
X6692900Y7848600D03*
G01*
X6692900Y8102600D03*
G01*
X6692900Y8356600D03*
G01*
X6692900Y8610600D03*
G01*
X6692900Y8864600D03*
G01*
X6692900Y9118600D03*
G01*
X3327400Y8437499D03*
G01*
X3073400Y8437499D03*
G01*
X2819400Y8437499D03*
G01*
X2565400Y8437499D03*
G01*
X3327400Y7437501D03*
G01*
X3073400Y7437501D03*
G01*
X2819400Y7437501D03*
G01*
X2565400Y7437501D03*
G01*
X2311400Y7437501D03*
G01*
X2057400Y7437501D03*
G01*
X2311400Y8437499D03*
G01*
X2057400Y8437499D03*
G01*
X2959100Y6794500D03*
G01*
X2959100Y6540500D03*
G01*
X2959100Y6286500D03*
G01*
X2959100Y6032500D03*
G01*
X2959100Y5778500D03*
G01*
X2959100Y5524500D03*
G01*
X909091Y5524500D03*
G01*
X909091Y5778500D03*
G01*
X909091Y6032500D03*
G01*
X909091Y6286500D03*
G01*
X909091Y6540500D03*
G01*
X909091Y6794500D03*
G01*
X3289681Y3150057D03*
G01*
X3289681Y2900121D03*
G01*
X3289681Y2650185D03*
G01*
X3289681Y2399995D03*
D16*
G01*
X5039664Y3150057D03*
G01*
X5039664Y2900121D03*
G01*
X5039664Y2650185D03*
D15*
G01*
X5039740Y2399995D03*
G01*
X3914775Y3375101D03*
G01*
X4414900Y3375101D03*
G01*
X3914775Y2125167D03*
G01*
X4414900Y2125167D03*
D17*
G01*
X5613400Y7035800D03*
G36*
X5450885Y7123297D02*
G01*
X5275887Y7123297D01*
X5275887Y6948299D01*
X5450885Y6948299D01*
G37*
G01*
X5626100Y8394700D03*
G36*
X5463585Y8482197D02*
G01*
X5288587Y8482197D01*
X5288587Y8307199D01*
X5463585Y8307199D01*
G37*
D15*
G01*
X2146300Y9423400D03*
G01*
X1790700Y9423400D03*
D17*
G01*
X2984500Y1968500D03*
G01*
X5372100Y1981200D03*
D15*
G01*
X3403600Y6616700D03*
G01*
X3403600Y6350000D03*
G01*
X3403600Y6096000D03*
G01*
X3403600Y5842000D03*
G36*
X3327400Y5664200D02*
G01*
X3479800Y5664200D01*
X3479800Y5511800D01*
X3327400Y5511800D01*
G37*
G01*
X7100001Y8864600D03*
G01*
X7100001Y8610600D03*
G01*
X7100001Y8356600D03*
G01*
X7100001Y8102600D03*
G01*
X7100001Y7594600D03*
G01*
X7100001Y7340600D03*
G01*
X7100001Y7086600D03*
G01*
X7100001Y6832600D03*
G01*
X7100001Y6578600D03*
G01*
X7100001Y6324600D03*
G01*
X7100001Y6070600D03*
G01*
X7100001Y5816600D03*
G01*
X7100001Y5562600D03*
G01*
X7100001Y4800600D03*
G36*
X7023801Y7924800D02*
G01*
X7176201Y7924800D01*
X7176201Y7772400D01*
X7023801Y7772400D01*
G37*
G01*
X7100001Y5308600D03*
G01*
X7100001Y5054600D03*
G36*
X3213100Y5326199D02*
G01*
X3365500Y5326199D01*
X3365500Y5173799D01*
X3213100Y5173799D01*
G37*
G36*
X3467100Y5326199D02*
G01*
X3619500Y5326199D01*
X3619500Y5173799D01*
X3467100Y5173799D01*
G37*
G01*
X3289300Y4900000D03*
G01*
X3543300Y4900000D03*
G01*
X3289300Y4550001D03*
G01*
X3543300Y4550001D03*
D20*
X2384498Y8953500D02*
G01*
X2314498Y8953500D01*
X2384498Y8826500D02*
G01*
X2314498Y8826500D01*
M02*
