M48
METRIC,LZ,000.000
;FILE_FORMAT=3:3
;TYPE=PLATED
;Layer: Drill PTH
;EasyEDA v6.4.25, 2022-01-16T12:25:19--5:00
;10
;Gerber Generator version 0.2
;Holesize 1 = 0.701 mm
T01C0.701
;Holesize 2 = 0.900 mm
T02C0.900
;Holesize 3 = 0.901 mm
T03C0.901
;Holesize 4 = 0.914 mm
T04C0.914
;Holesize 5 = 0.915 mm
T05C0.915
;Holesize 6 = 1.000 mm
T06C1.000
%
G05
G90
T01
X023495Y090805
X023495Y089535
X023495Y088265
T02
X030099Y089535
X037719Y089535
T03
X029591Y067945
X029591Y065405
X029591Y062865
X029591Y060325
X029591Y057785
X029591Y055245
X009091Y055245
X009091Y057785
X009091Y060325
X009091Y062865
X009091Y065405
X009091Y067945
T04
X021463Y094234
X029845Y019685
X053721Y019812
X034036Y066167
X034036Y063500
X034036Y060960
X034036Y058420
X034036Y055880
X071000Y088646
X071000Y086106
X071000Y083566
X071000Y081026
X071000Y075946
X071000Y073406
X071000Y070866
X071000Y068326
X071000Y065786
X071000Y063246
X071000Y060706
X071000Y058166
X071000Y055626
X071000Y048006
X071000Y078486
X071000Y053086
X071000Y050546
X032893Y052500
X035433Y052500
X032893Y049000
X035433Y049000
X032893Y045500
X035433Y045500
T05
X041529Y048006
X041529Y050546
X041529Y053086
X041529Y055626
X041529Y058166
X041529Y060706
X041529Y063246
X041529Y065786
X041529Y068326
X041529Y070866
X041529Y073406
X041529Y075946
X041529Y078486
X041529Y081026
X041529Y083566
X041529Y086106
X041529Y088646
X041529Y091186
X066929Y048006
X066929Y050546
X066929Y053086
X066929Y055626
X066929Y058166
X066929Y060706
X066929Y063246
X066929Y065786
X066929Y068326
X066929Y070866
X066929Y073406
X066929Y075946
X066929Y078486
X066929Y081026
X066929Y083566
X066929Y086106
X066929Y088646
X066929Y091186
X033274Y084375
X030734Y084375
X028194Y084375
X025654Y084375
X033274Y074375
X030734Y074375
X028194Y074375
X025654Y074375
X023114Y074375
X020574Y074375
X023114Y084375
X020574Y084375
X032897Y031501
X032897Y029001
X032897Y026502
X032897Y024000
X050397Y031501
X050397Y029001
X050397Y026502
X050397Y024000
X039148Y033751
X044149Y033751
X039148Y021252
X044149Y021252
X017907Y094234
T06
X010033Y029464
X013533Y029464
X011684Y074295
X015184Y074295
X056137Y070358G85X056132Y070358
X053636Y070358G85X053631Y070358
X056264Y083947G85X056259Y083947
X053763Y083947G85X053758Y083947
M30
