G04 Layer: TopSilkLayer*
G04 EasyEDA v6.4.25, 2022-01-16T12:25:19--5:00*
G04 Gerber Generator version 0.2*
G04 Scale: 100 percent, Rotated: No, Reflected: No *
G04 Dimensions in millimeters *
G04 leading zeros omitted , absolute positions ,4 integer and 5 decimal *
%FSLAX45Y45*%
%MOMM*%

%ADD10C,0.2540*%
%ADD21C,0.1524*%
%ADD22C,0.5000*%
%ADD23C,0.2032*%
%ADD24C,0.1501*%
%ADD25C,0.1778*%

%LPD*%
D23*
X5537200Y2056384D02*
G01*
X5537200Y1913128D01*
X5537200Y2056384D02*
G01*
X5598668Y2056384D01*
X5618988Y2049526D01*
X5625845Y2042668D01*
X5632704Y2029205D01*
X5632704Y2015489D01*
X5625845Y2001773D01*
X5618988Y1994915D01*
X5598668Y1988057D01*
X5537200Y1988057D02*
G01*
X5598668Y1988057D01*
X5618988Y1981454D01*
X5625845Y1974595D01*
X5632704Y1960879D01*
X5632704Y1940560D01*
X5625845Y1926844D01*
X5618988Y1919986D01*
X5598668Y1913128D01*
X5537200Y1913128D01*
X5759450Y2008631D02*
G01*
X5759450Y1913128D01*
X5759450Y1988057D02*
G01*
X5745734Y2001773D01*
X5732272Y2008631D01*
X5711697Y2008631D01*
X5698236Y2001773D01*
X5684520Y1988057D01*
X5677661Y1967737D01*
X5677661Y1954021D01*
X5684520Y1933702D01*
X5698236Y1919986D01*
X5711697Y1913128D01*
X5732272Y1913128D01*
X5745734Y1919986D01*
X5759450Y1933702D01*
X5824981Y2056384D02*
G01*
X5824981Y1940560D01*
X5831840Y1919986D01*
X5845302Y1913128D01*
X5859018Y1913128D01*
X5804408Y2008631D02*
G01*
X5852159Y2008631D01*
X5924550Y2056384D02*
G01*
X5924550Y1940560D01*
X5931408Y1919986D01*
X5944870Y1913128D01*
X5958586Y1913128D01*
X5903975Y2008631D02*
G01*
X5951727Y2008631D01*
X6065011Y2035810D02*
G01*
X6065011Y1913128D01*
X6003543Y1974595D02*
G01*
X6126225Y1974595D01*
X2247900Y2043684D02*
G01*
X2247900Y1900428D01*
X2247900Y2043684D02*
G01*
X2309368Y2043684D01*
X2329688Y2036826D01*
X2336545Y2029968D01*
X2343404Y2016505D01*
X2343404Y2002789D01*
X2336545Y1989073D01*
X2329688Y1982215D01*
X2309368Y1975357D01*
X2247900Y1975357D02*
G01*
X2309368Y1975357D01*
X2329688Y1968754D01*
X2336545Y1961895D01*
X2343404Y1948179D01*
X2343404Y1927860D01*
X2336545Y1914144D01*
X2329688Y1907286D01*
X2309368Y1900428D01*
X2247900Y1900428D01*
X2470150Y1995931D02*
G01*
X2470150Y1900428D01*
X2470150Y1975357D02*
G01*
X2456434Y1989073D01*
X2442972Y1995931D01*
X2422397Y1995931D01*
X2408936Y1989073D01*
X2395220Y1975357D01*
X2388361Y1955037D01*
X2388361Y1941321D01*
X2395220Y1921002D01*
X2408936Y1907286D01*
X2422397Y1900428D01*
X2442972Y1900428D01*
X2456434Y1907286D01*
X2470150Y1921002D01*
X2535681Y2043684D02*
G01*
X2535681Y1927860D01*
X2542540Y1907286D01*
X2556002Y1900428D01*
X2569718Y1900428D01*
X2515108Y1995931D02*
G01*
X2562859Y1995931D01*
X2635250Y2043684D02*
G01*
X2635250Y1927860D01*
X2642108Y1907286D01*
X2655570Y1900428D01*
X2669286Y1900428D01*
X2614675Y1995931D02*
G01*
X2662427Y1995931D01*
X2714243Y1961895D02*
G01*
X2836925Y1961895D01*
X5638800Y3389884D02*
G01*
X5638800Y3246628D01*
X5638800Y3389884D02*
G01*
X5700268Y3389884D01*
X5720588Y3383026D01*
X5727445Y3376168D01*
X5734304Y3362705D01*
X5734304Y3342131D01*
X5727445Y3328415D01*
X5720588Y3321557D01*
X5700268Y3314954D01*
X5638800Y3314954D01*
X5861050Y3342131D02*
G01*
X5861050Y3246628D01*
X5861050Y3321557D02*
G01*
X5847334Y3335273D01*
X5833872Y3342131D01*
X5813297Y3342131D01*
X5799836Y3335273D01*
X5786120Y3321557D01*
X5779261Y3301237D01*
X5779261Y3287521D01*
X5786120Y3267202D01*
X5799836Y3253486D01*
X5813297Y3246628D01*
X5833872Y3246628D01*
X5847334Y3253486D01*
X5861050Y3267202D01*
X5906008Y3342131D02*
G01*
X5906008Y3246628D01*
X5906008Y3314954D02*
G01*
X5926581Y3335273D01*
X5940043Y3342131D01*
X5960618Y3342131D01*
X5974334Y3335273D01*
X5981191Y3314954D01*
X5981191Y3246628D01*
X6026150Y3389884D02*
G01*
X6033008Y3383026D01*
X6039611Y3389884D01*
X6033008Y3396742D01*
X6026150Y3389884D01*
X6033008Y3342131D02*
G01*
X6033008Y3246628D01*
X6166611Y3321557D02*
G01*
X6152895Y3335273D01*
X6139179Y3342131D01*
X6118859Y3342131D01*
X6105143Y3335273D01*
X6091427Y3321557D01*
X6084824Y3301237D01*
X6084824Y3287521D01*
X6091427Y3267202D01*
X6105143Y3253486D01*
X6118859Y3246628D01*
X6139179Y3246628D01*
X6152895Y3253486D01*
X6166611Y3267202D01*
X6316472Y3389884D02*
G01*
X6316472Y3246628D01*
X6316472Y3389884D02*
G01*
X6377940Y3389884D01*
X6398259Y3383026D01*
X6405118Y3376168D01*
X6411975Y3362705D01*
X6411975Y3348989D01*
X6405118Y3335273D01*
X6398259Y3328415D01*
X6377940Y3321557D01*
X6316472Y3321557D02*
G01*
X6377940Y3321557D01*
X6398259Y3314954D01*
X6405118Y3308095D01*
X6411975Y3294379D01*
X6411975Y3274060D01*
X6405118Y3260344D01*
X6398259Y3253486D01*
X6377940Y3246628D01*
X6316472Y3246628D01*
X6456934Y3342131D02*
G01*
X6456934Y3274060D01*
X6463791Y3253486D01*
X6477508Y3246628D01*
X6497827Y3246628D01*
X6511543Y3253486D01*
X6531863Y3274060D01*
X6531863Y3342131D02*
G01*
X6531863Y3246628D01*
X6597395Y3389884D02*
G01*
X6597395Y3274060D01*
X6604254Y3253486D01*
X6617970Y3246628D01*
X6631431Y3246628D01*
X6577075Y3342131D02*
G01*
X6624827Y3342131D01*
X6696963Y3389884D02*
G01*
X6696963Y3274060D01*
X6703822Y3253486D01*
X6717538Y3246628D01*
X6731000Y3246628D01*
X6676643Y3342131D02*
G01*
X6724141Y3342131D01*
X6810247Y3342131D02*
G01*
X6796531Y3335273D01*
X6782815Y3321557D01*
X6775958Y3301237D01*
X6775958Y3287521D01*
X6782815Y3267202D01*
X6796531Y3253486D01*
X6810247Y3246628D01*
X6830568Y3246628D01*
X6844284Y3253486D01*
X6858000Y3267202D01*
X6864604Y3287521D01*
X6864604Y3301237D01*
X6858000Y3321557D01*
X6844284Y3335273D01*
X6830568Y3342131D01*
X6810247Y3342131D01*
X6909815Y3342131D02*
G01*
X6909815Y3246628D01*
X6909815Y3314954D02*
G01*
X6930136Y3335273D01*
X6943852Y3342131D01*
X6964172Y3342131D01*
X6977888Y3335273D01*
X6984745Y3314954D01*
X6984745Y3246628D01*
X7134606Y3342131D02*
G01*
X7175500Y3246628D01*
X7216647Y3342131D02*
G01*
X7175500Y3246628D01*
X7261606Y3362705D02*
G01*
X7275068Y3369310D01*
X7295641Y3389884D01*
X7295641Y3246628D01*
X5651500Y3047237D02*
G01*
X5651500Y2927857D01*
X5651500Y3047237D02*
G01*
X5691377Y3047237D01*
X5708395Y3041395D01*
X5719572Y3029965D01*
X5725413Y3018789D01*
X5731002Y3001771D01*
X5731002Y2973323D01*
X5725413Y2956305D01*
X5719572Y2944876D01*
X5708395Y2933445D01*
X5691377Y2927857D01*
X5651500Y2927857D01*
X5768593Y2973323D02*
G01*
X5836665Y2973323D01*
X5836665Y2984754D01*
X5831077Y2995929D01*
X5825490Y3001771D01*
X5814059Y3007360D01*
X5797041Y3007360D01*
X5785611Y3001771D01*
X5774181Y2990342D01*
X5768593Y2973323D01*
X5768593Y2961894D01*
X5774181Y2944876D01*
X5785611Y2933445D01*
X5797041Y2927857D01*
X5814059Y2927857D01*
X5825490Y2933445D01*
X5836665Y2944876D01*
X5936741Y2990342D02*
G01*
X5931154Y3001771D01*
X5913881Y3007360D01*
X5896863Y3007360D01*
X5879845Y3001771D01*
X5874258Y2990342D01*
X5879845Y2978912D01*
X5891275Y2973323D01*
X5919724Y2967481D01*
X5931154Y2961894D01*
X5936741Y2950463D01*
X5936741Y2944876D01*
X5931154Y2933445D01*
X5913881Y2927857D01*
X5896863Y2927857D01*
X5879845Y2933445D01*
X5874258Y2944876D01*
X5974334Y3047237D02*
G01*
X5979922Y3041395D01*
X5985509Y3047237D01*
X5979922Y3052826D01*
X5974334Y3047237D01*
X5979922Y3007360D02*
G01*
X5979922Y2927857D01*
X6091174Y3007360D02*
G01*
X6091174Y2916428D01*
X6085586Y2899410D01*
X6079997Y2893821D01*
X6068568Y2887979D01*
X6051550Y2887979D01*
X6040120Y2893821D01*
X6091174Y2990342D02*
G01*
X6079997Y3001771D01*
X6068568Y3007360D01*
X6051550Y3007360D01*
X6040120Y3001771D01*
X6028690Y2990342D01*
X6023102Y2973323D01*
X6023102Y2961894D01*
X6028690Y2944876D01*
X6040120Y2933445D01*
X6051550Y2927857D01*
X6068568Y2927857D01*
X6079997Y2933445D01*
X6091174Y2944876D01*
X6128765Y3007360D02*
G01*
X6128765Y2927857D01*
X6128765Y2984754D02*
G01*
X6145784Y3001771D01*
X6157213Y3007360D01*
X6174231Y3007360D01*
X6185661Y3001771D01*
X6191250Y2984754D01*
X6191250Y2927857D01*
X6228841Y2973323D02*
G01*
X6296913Y2973323D01*
X6296913Y2984754D01*
X6291325Y2995929D01*
X6285484Y3001771D01*
X6274308Y3007360D01*
X6257290Y3007360D01*
X6245859Y3001771D01*
X6234429Y2990342D01*
X6228841Y2973323D01*
X6228841Y2961894D01*
X6234429Y2944876D01*
X6245859Y2933445D01*
X6257290Y2927857D01*
X6274308Y2927857D01*
X6285484Y2933445D01*
X6296913Y2944876D01*
X6402577Y3047237D02*
G01*
X6402577Y2927857D01*
X6402577Y2990342D02*
G01*
X6391147Y3001771D01*
X6379972Y3007360D01*
X6362954Y3007360D01*
X6351524Y3001771D01*
X6340093Y2990342D01*
X6334506Y2973323D01*
X6334506Y2961894D01*
X6340093Y2944876D01*
X6351524Y2933445D01*
X6362954Y2927857D01*
X6379972Y2927857D01*
X6391147Y2933445D01*
X6402577Y2944876D01*
X6527545Y3047237D02*
G01*
X6527545Y2927857D01*
X6527545Y2990342D02*
G01*
X6538975Y3001771D01*
X6550406Y3007360D01*
X6567424Y3007360D01*
X6578854Y3001771D01*
X6590029Y2990342D01*
X6595872Y2973323D01*
X6595872Y2961894D01*
X6590029Y2944876D01*
X6578854Y2933445D01*
X6567424Y2927857D01*
X6550406Y2927857D01*
X6538975Y2933445D01*
X6527545Y2944876D01*
X6639052Y3007360D02*
G01*
X6673088Y2927857D01*
X6707124Y3007360D02*
G01*
X6673088Y2927857D01*
X6661658Y2904997D01*
X6650481Y2893821D01*
X6639052Y2887979D01*
X6633209Y2887979D01*
X6832091Y3047237D02*
G01*
X6832091Y2927857D01*
X6832091Y2927857D02*
G01*
X6900418Y2927857D01*
X6966204Y3007360D02*
G01*
X6955027Y3001771D01*
X6943597Y2990342D01*
X6937756Y2973323D01*
X6937756Y2961894D01*
X6943597Y2944876D01*
X6955027Y2933445D01*
X6966204Y2927857D01*
X6983222Y2927857D01*
X6994652Y2933445D01*
X7006081Y2944876D01*
X7011670Y2961894D01*
X7011670Y2973323D01*
X7006081Y2990342D01*
X6994652Y3001771D01*
X6983222Y3007360D01*
X6966204Y3007360D01*
X7117334Y3007360D02*
G01*
X7117334Y2916428D01*
X7111745Y2899410D01*
X7106158Y2893821D01*
X7094727Y2887979D01*
X7077709Y2887979D01*
X7066279Y2893821D01*
X7117334Y2990342D02*
G01*
X7106158Y3001771D01*
X7094727Y3007360D01*
X7077709Y3007360D01*
X7066279Y3001771D01*
X7054850Y2990342D01*
X7049261Y2973323D01*
X7049261Y2961894D01*
X7054850Y2944876D01*
X7066279Y2933445D01*
X7077709Y2927857D01*
X7094727Y2927857D01*
X7106158Y2933445D01*
X7117334Y2944876D01*
X7222997Y3007360D02*
G01*
X7222997Y2927857D01*
X7222997Y2990342D02*
G01*
X7211822Y3001771D01*
X7200391Y3007360D01*
X7183374Y3007360D01*
X7171943Y3001771D01*
X7160513Y2990342D01*
X7154925Y2973323D01*
X7154925Y2961894D01*
X7160513Y2944876D01*
X7171943Y2933445D01*
X7183374Y2927857D01*
X7200391Y2927857D01*
X7211822Y2933445D01*
X7222997Y2944876D01*
X7260590Y3007360D02*
G01*
X7260590Y2927857D01*
X7260590Y2984754D02*
G01*
X7277608Y3001771D01*
X7289038Y3007360D01*
X7306056Y3007360D01*
X7317486Y3001771D01*
X7323074Y2984754D01*
X7323074Y2927857D01*
X5689600Y2793237D02*
G01*
X5695188Y2787395D01*
X5701029Y2793237D01*
X5695188Y2798826D01*
X5689600Y2793237D01*
X5695188Y2753360D02*
G01*
X5695188Y2673857D01*
X5738368Y2753360D02*
G01*
X5738368Y2673857D01*
X5738368Y2730754D02*
G01*
X5755386Y2747771D01*
X5766815Y2753360D01*
X5783834Y2753360D01*
X5795263Y2747771D01*
X5800852Y2730754D01*
X5800852Y2673857D01*
X5926074Y2793237D02*
G01*
X5926074Y2673857D01*
X5926074Y2793237D02*
G01*
X6005575Y2673857D01*
X6005575Y2793237D02*
G01*
X6005575Y2673857D01*
X6042913Y2719323D02*
G01*
X6111240Y2719323D01*
X6111240Y2730754D01*
X6105397Y2741929D01*
X6099809Y2747771D01*
X6088379Y2753360D01*
X6071361Y2753360D01*
X6059931Y2747771D01*
X6048756Y2736342D01*
X6042913Y2719323D01*
X6042913Y2707894D01*
X6048756Y2690876D01*
X6059931Y2679445D01*
X6071361Y2673857D01*
X6088379Y2673857D01*
X6099809Y2679445D01*
X6111240Y2690876D01*
X6148577Y2753360D02*
G01*
X6171438Y2673857D01*
X6194043Y2753360D02*
G01*
X6171438Y2673857D01*
X6194043Y2753360D02*
G01*
X6216904Y2673857D01*
X6239509Y2753360D02*
G01*
X6216904Y2673857D01*
X6364477Y2793237D02*
G01*
X6364477Y2673857D01*
X6444234Y2793237D02*
G01*
X6444234Y2673857D01*
X6364477Y2736342D02*
G01*
X6444234Y2736342D01*
X6549897Y2753360D02*
G01*
X6549897Y2673857D01*
X6549897Y2736342D02*
G01*
X6538468Y2747771D01*
X6527038Y2753360D01*
X6510020Y2753360D01*
X6498590Y2747771D01*
X6487413Y2736342D01*
X6481572Y2719323D01*
X6481572Y2707894D01*
X6487413Y2690876D01*
X6498590Y2679445D01*
X6510020Y2673857D01*
X6527038Y2673857D01*
X6538468Y2679445D01*
X6549897Y2690876D01*
X6587236Y2753360D02*
G01*
X6587236Y2673857D01*
X6587236Y2730754D02*
G01*
X6604254Y2747771D01*
X6615684Y2753360D01*
X6632702Y2753360D01*
X6644131Y2747771D01*
X6649720Y2730754D01*
X6649720Y2673857D01*
X6649720Y2730754D02*
G01*
X6666991Y2747771D01*
X6678168Y2753360D01*
X6695186Y2753360D01*
X6706615Y2747771D01*
X6712204Y2730754D01*
X6712204Y2673857D01*
X6749795Y2753360D02*
G01*
X6749795Y2633979D01*
X6749795Y2736342D02*
G01*
X6761225Y2747771D01*
X6772656Y2753360D01*
X6789674Y2753360D01*
X6800850Y2747771D01*
X6812279Y2736342D01*
X6818122Y2719323D01*
X6818122Y2707894D01*
X6812279Y2690876D01*
X6800850Y2679445D01*
X6789674Y2673857D01*
X6772656Y2673857D01*
X6761225Y2679445D01*
X6749795Y2690876D01*
X6917943Y2736342D02*
G01*
X6912356Y2747771D01*
X6895338Y2753360D01*
X6878320Y2753360D01*
X6861302Y2747771D01*
X6855459Y2736342D01*
X6861302Y2724912D01*
X6872477Y2719323D01*
X6900925Y2713481D01*
X6912356Y2707894D01*
X6917943Y2696463D01*
X6917943Y2690876D01*
X6912356Y2679445D01*
X6895338Y2673857D01*
X6878320Y2673857D01*
X6861302Y2679445D01*
X6855459Y2690876D01*
X6955536Y2793237D02*
G01*
X6955536Y2673857D01*
X6955536Y2730754D02*
G01*
X6972554Y2747771D01*
X6983984Y2753360D01*
X7001002Y2753360D01*
X7012431Y2747771D01*
X7018020Y2730754D01*
X7018020Y2673857D01*
X7055611Y2793237D02*
G01*
X7061200Y2787395D01*
X7066788Y2793237D01*
X7061200Y2798826D01*
X7055611Y2793237D01*
X7061200Y2753360D02*
G01*
X7061200Y2673857D01*
X7104379Y2753360D02*
G01*
X7104379Y2673857D01*
X7104379Y2719323D02*
G01*
X7109968Y2736342D01*
X7121397Y2747771D01*
X7132827Y2753360D01*
X7149845Y2753360D01*
X7187438Y2719323D02*
G01*
X7255509Y2719323D01*
X7255509Y2730754D01*
X7249922Y2741929D01*
X7244079Y2747771D01*
X7232904Y2753360D01*
X7215631Y2753360D01*
X7204456Y2747771D01*
X7193025Y2736342D01*
X7187438Y2719323D01*
X7187438Y2707894D01*
X7193025Y2690876D01*
X7204456Y2679445D01*
X7215631Y2673857D01*
X7232904Y2673857D01*
X7244079Y2679445D01*
X7255509Y2690876D01*
X7275322Y8914637D02*
G01*
X7239000Y8819134D01*
X7275322Y8914637D02*
G01*
X7311643Y8819134D01*
X7252715Y8851137D02*
G01*
X7298181Y8851137D01*
X7341615Y8896604D02*
G01*
X7350759Y8901176D01*
X7364475Y8914637D01*
X7364475Y8819134D01*
X7275322Y8647937D02*
G01*
X7239000Y8552434D01*
X7275322Y8647937D02*
G01*
X7311643Y8552434D01*
X7252715Y8584437D02*
G01*
X7298181Y8584437D01*
X7346188Y8625331D02*
G01*
X7346188Y8629904D01*
X7350759Y8638794D01*
X7355331Y8643365D01*
X7364475Y8647937D01*
X7382509Y8647937D01*
X7391654Y8643365D01*
X7396225Y8638794D01*
X7400797Y8629904D01*
X7400797Y8620760D01*
X7396225Y8611615D01*
X7387081Y8597900D01*
X7341615Y8552434D01*
X7405370Y8552434D01*
X7275322Y8406637D02*
G01*
X7239000Y8311134D01*
X7275322Y8406637D02*
G01*
X7311643Y8311134D01*
X7252715Y8343137D02*
G01*
X7298181Y8343137D01*
X7350759Y8406637D02*
G01*
X7400797Y8406637D01*
X7373620Y8370315D01*
X7387081Y8370315D01*
X7396225Y8365744D01*
X7400797Y8361171D01*
X7405370Y8347710D01*
X7405370Y8338565D01*
X7400797Y8324850D01*
X7391654Y8315705D01*
X7378191Y8311134D01*
X7364475Y8311134D01*
X7350759Y8315705D01*
X7346188Y8320278D01*
X7341615Y8329421D01*
X7262622Y8152637D02*
G01*
X7226300Y8057134D01*
X7262622Y8152637D02*
G01*
X7298943Y8057134D01*
X7240015Y8089137D02*
G01*
X7285481Y8089137D01*
X7374381Y8152637D02*
G01*
X7328915Y8089137D01*
X7397241Y8089137D01*
X7374381Y8152637D02*
G01*
X7374381Y8057134D01*
X7307072Y7876031D02*
G01*
X7302754Y7885176D01*
X7293609Y7894065D01*
X7284465Y7898637D01*
X7266177Y7898637D01*
X7257288Y7894065D01*
X7248143Y7885176D01*
X7243572Y7876031D01*
X7239000Y7862315D01*
X7239000Y7839710D01*
X7243572Y7825994D01*
X7248143Y7816850D01*
X7257288Y7807705D01*
X7266177Y7803134D01*
X7284465Y7803134D01*
X7293609Y7807705D01*
X7302754Y7816850D01*
X7307072Y7825994D01*
X7307072Y7839710D01*
X7284465Y7839710D02*
G01*
X7307072Y7839710D01*
X7337297Y7898637D02*
G01*
X7337297Y7803134D01*
X7337297Y7898637D02*
G01*
X7400797Y7803134D01*
X7400797Y7898637D02*
G01*
X7400797Y7803134D01*
X7430770Y7898637D02*
G01*
X7430770Y7803134D01*
X7430770Y7898637D02*
G01*
X7462520Y7898637D01*
X7476236Y7894065D01*
X7485379Y7885176D01*
X7489952Y7876031D01*
X7494524Y7862315D01*
X7494524Y7839710D01*
X7489952Y7825994D01*
X7485379Y7816850D01*
X7476236Y7807705D01*
X7462520Y7803134D01*
X7430770Y7803134D01*
X7239000Y7644637D02*
G01*
X7239000Y7549134D01*
X7296150Y7644637D02*
G01*
X7287259Y7640065D01*
X7278115Y7631176D01*
X7273543Y7622031D01*
X7268972Y7608315D01*
X7268972Y7585710D01*
X7273543Y7571994D01*
X7278115Y7562850D01*
X7287259Y7553705D01*
X7296150Y7549134D01*
X7314438Y7549134D01*
X7323581Y7553705D01*
X7332725Y7562850D01*
X7337297Y7571994D01*
X7341615Y7585710D01*
X7341615Y7608315D01*
X7337297Y7622031D01*
X7332725Y7631176D01*
X7323581Y7640065D01*
X7314438Y7644637D01*
X7296150Y7644637D01*
X7399020Y7644637D02*
G01*
X7385304Y7640065D01*
X7376159Y7626604D01*
X7371841Y7603744D01*
X7371841Y7590281D01*
X7376159Y7567421D01*
X7385304Y7553705D01*
X7399020Y7549134D01*
X7408163Y7549134D01*
X7421625Y7553705D01*
X7430770Y7567421D01*
X7435341Y7590281D01*
X7435341Y7603744D01*
X7430770Y7626604D01*
X7421625Y7640065D01*
X7408163Y7644637D01*
X7399020Y7644637D01*
X7239000Y7390637D02*
G01*
X7239000Y7295134D01*
X7296150Y7390637D02*
G01*
X7287259Y7386065D01*
X7278115Y7377176D01*
X7273543Y7368031D01*
X7268972Y7354315D01*
X7268972Y7331710D01*
X7273543Y7317994D01*
X7278115Y7308850D01*
X7287259Y7299705D01*
X7296150Y7295134D01*
X7314438Y7295134D01*
X7323581Y7299705D01*
X7332725Y7308850D01*
X7337297Y7317994D01*
X7341615Y7331710D01*
X7341615Y7354315D01*
X7337297Y7368031D01*
X7332725Y7377176D01*
X7323581Y7386065D01*
X7314438Y7390637D01*
X7296150Y7390637D01*
X7371841Y7372604D02*
G01*
X7380731Y7377176D01*
X7394447Y7390637D01*
X7394447Y7295134D01*
X7447279Y7390637D02*
G01*
X7433563Y7386065D01*
X7428991Y7377176D01*
X7428991Y7368031D01*
X7433563Y7358887D01*
X7442708Y7354315D01*
X7460741Y7349744D01*
X7474458Y7345171D01*
X7483602Y7336281D01*
X7488174Y7327137D01*
X7488174Y7313421D01*
X7483602Y7304278D01*
X7479029Y7299705D01*
X7465313Y7295134D01*
X7447279Y7295134D01*
X7433563Y7299705D01*
X7428991Y7304278D01*
X7424420Y7313421D01*
X7424420Y7327137D01*
X7428991Y7336281D01*
X7438136Y7345171D01*
X7451852Y7349744D01*
X7469886Y7354315D01*
X7479029Y7358887D01*
X7483602Y7368031D01*
X7483602Y7377176D01*
X7479029Y7386065D01*
X7465313Y7390637D01*
X7447279Y7390637D01*
X7239000Y7136637D02*
G01*
X7239000Y7041134D01*
X7296150Y7136637D02*
G01*
X7287259Y7132065D01*
X7278115Y7123176D01*
X7273543Y7114031D01*
X7268972Y7100315D01*
X7268972Y7077710D01*
X7273543Y7063994D01*
X7278115Y7054850D01*
X7287259Y7045705D01*
X7296150Y7041134D01*
X7314438Y7041134D01*
X7323581Y7045705D01*
X7332725Y7054850D01*
X7337297Y7063994D01*
X7341615Y7077710D01*
X7341615Y7100315D01*
X7337297Y7114031D01*
X7332725Y7123176D01*
X7323581Y7132065D01*
X7314438Y7136637D01*
X7296150Y7136637D01*
X7376159Y7114031D02*
G01*
X7376159Y7118604D01*
X7380731Y7127494D01*
X7385304Y7132065D01*
X7394447Y7136637D01*
X7412736Y7136637D01*
X7421625Y7132065D01*
X7426197Y7127494D01*
X7430770Y7118604D01*
X7430770Y7109460D01*
X7426197Y7100315D01*
X7417308Y7086600D01*
X7371841Y7041134D01*
X7435341Y7041134D01*
X7474458Y7136637D02*
G01*
X7524495Y7136637D01*
X7497063Y7100315D01*
X7510779Y7100315D01*
X7519924Y7095744D01*
X7524495Y7091171D01*
X7529068Y7077710D01*
X7529068Y7068565D01*
X7524495Y7054850D01*
X7515352Y7045705D01*
X7501636Y7041134D01*
X7488174Y7041134D01*
X7474458Y7045705D01*
X7469886Y7050278D01*
X7465313Y7059421D01*
X7239000Y6882637D02*
G01*
X7239000Y6787134D01*
X7296150Y6882637D02*
G01*
X7287259Y6878065D01*
X7278115Y6869176D01*
X7273543Y6860031D01*
X7268972Y6846315D01*
X7268972Y6823710D01*
X7273543Y6809994D01*
X7278115Y6800850D01*
X7287259Y6791705D01*
X7296150Y6787134D01*
X7314438Y6787134D01*
X7323581Y6791705D01*
X7332725Y6800850D01*
X7337297Y6809994D01*
X7341615Y6823710D01*
X7341615Y6846315D01*
X7337297Y6860031D01*
X7332725Y6869176D01*
X7323581Y6878065D01*
X7314438Y6882637D01*
X7296150Y6882637D01*
X7371841Y6864604D02*
G01*
X7380731Y6869176D01*
X7394447Y6882637D01*
X7394447Y6787134D01*
X7483602Y6850887D02*
G01*
X7479029Y6837171D01*
X7469886Y6828281D01*
X7456170Y6823710D01*
X7451852Y6823710D01*
X7438136Y6828281D01*
X7428991Y6837171D01*
X7424420Y6850887D01*
X7424420Y6855460D01*
X7428991Y6869176D01*
X7438136Y6878065D01*
X7451852Y6882637D01*
X7456170Y6882637D01*
X7469886Y6878065D01*
X7479029Y6869176D01*
X7483602Y6850887D01*
X7483602Y6828281D01*
X7479029Y6805421D01*
X7469886Y6791705D01*
X7456170Y6787134D01*
X7447279Y6787134D01*
X7433563Y6791705D01*
X7428991Y6800850D01*
X7239000Y6628637D02*
G01*
X7239000Y6533134D01*
X7296150Y6628637D02*
G01*
X7287259Y6624065D01*
X7278115Y6615176D01*
X7273543Y6606031D01*
X7268972Y6592315D01*
X7268972Y6569710D01*
X7273543Y6555994D01*
X7278115Y6546850D01*
X7287259Y6537705D01*
X7296150Y6533134D01*
X7314438Y6533134D01*
X7323581Y6537705D01*
X7332725Y6546850D01*
X7337297Y6555994D01*
X7341615Y6569710D01*
X7341615Y6592315D01*
X7337297Y6606031D01*
X7332725Y6615176D01*
X7323581Y6624065D01*
X7314438Y6628637D01*
X7296150Y6628637D01*
X7376159Y6606031D02*
G01*
X7376159Y6610604D01*
X7380731Y6619494D01*
X7385304Y6624065D01*
X7394447Y6628637D01*
X7412736Y6628637D01*
X7421625Y6624065D01*
X7426197Y6619494D01*
X7430770Y6610604D01*
X7430770Y6601460D01*
X7426197Y6592315D01*
X7417308Y6578600D01*
X7371841Y6533134D01*
X7435341Y6533134D01*
X7465313Y6610604D02*
G01*
X7474458Y6615176D01*
X7488174Y6628637D01*
X7488174Y6533134D01*
X7239000Y6387337D02*
G01*
X7239000Y6291834D01*
X7296150Y6387337D02*
G01*
X7287259Y6382765D01*
X7278115Y6373876D01*
X7273543Y6364731D01*
X7268972Y6351015D01*
X7268972Y6328410D01*
X7273543Y6314694D01*
X7278115Y6305550D01*
X7287259Y6296405D01*
X7296150Y6291834D01*
X7314438Y6291834D01*
X7323581Y6296405D01*
X7332725Y6305550D01*
X7337297Y6314694D01*
X7341615Y6328410D01*
X7341615Y6351015D01*
X7337297Y6364731D01*
X7332725Y6373876D01*
X7323581Y6382765D01*
X7314438Y6387337D01*
X7296150Y6387337D01*
X7376159Y6364731D02*
G01*
X7376159Y6369304D01*
X7380731Y6378194D01*
X7385304Y6382765D01*
X7394447Y6387337D01*
X7412736Y6387337D01*
X7421625Y6382765D01*
X7426197Y6378194D01*
X7430770Y6369304D01*
X7430770Y6360160D01*
X7426197Y6351015D01*
X7417308Y6337300D01*
X7371841Y6291834D01*
X7435341Y6291834D01*
X7469886Y6364731D02*
G01*
X7469886Y6369304D01*
X7474458Y6378194D01*
X7479029Y6382765D01*
X7488174Y6387337D01*
X7506208Y6387337D01*
X7515352Y6382765D01*
X7519924Y6378194D01*
X7524495Y6369304D01*
X7524495Y6360160D01*
X7519924Y6351015D01*
X7510779Y6337300D01*
X7465313Y6291834D01*
X7529068Y6291834D01*
X7239000Y6120637D02*
G01*
X7239000Y6025134D01*
X7296150Y6120637D02*
G01*
X7287259Y6116065D01*
X7278115Y6107176D01*
X7273543Y6098031D01*
X7268972Y6084315D01*
X7268972Y6061710D01*
X7273543Y6047994D01*
X7278115Y6038850D01*
X7287259Y6029705D01*
X7296150Y6025134D01*
X7314438Y6025134D01*
X7323581Y6029705D01*
X7332725Y6038850D01*
X7337297Y6047994D01*
X7341615Y6061710D01*
X7341615Y6084315D01*
X7337297Y6098031D01*
X7332725Y6107176D01*
X7323581Y6116065D01*
X7314438Y6120637D01*
X7296150Y6120637D01*
X7371841Y6102604D02*
G01*
X7380731Y6107176D01*
X7394447Y6120637D01*
X7394447Y6025134D01*
X7469886Y6120637D02*
G01*
X7424420Y6057137D01*
X7492745Y6057137D01*
X7469886Y6120637D02*
G01*
X7469886Y6025134D01*
X7239000Y5866637D02*
G01*
X7239000Y5771134D01*
X7296150Y5866637D02*
G01*
X7287259Y5862065D01*
X7278115Y5853176D01*
X7273543Y5844031D01*
X7268972Y5830315D01*
X7268972Y5807710D01*
X7273543Y5793994D01*
X7278115Y5784850D01*
X7287259Y5775705D01*
X7296150Y5771134D01*
X7314438Y5771134D01*
X7323581Y5775705D01*
X7332725Y5784850D01*
X7337297Y5793994D01*
X7341615Y5807710D01*
X7341615Y5830315D01*
X7337297Y5844031D01*
X7332725Y5853176D01*
X7323581Y5862065D01*
X7314438Y5866637D01*
X7296150Y5866637D01*
X7371841Y5848604D02*
G01*
X7380731Y5853176D01*
X7394447Y5866637D01*
X7394447Y5771134D01*
X7428991Y5844031D02*
G01*
X7428991Y5848604D01*
X7433563Y5857494D01*
X7438136Y5862065D01*
X7447279Y5866637D01*
X7465313Y5866637D01*
X7474458Y5862065D01*
X7479029Y5857494D01*
X7483602Y5848604D01*
X7483602Y5839460D01*
X7479029Y5830315D01*
X7469886Y5816600D01*
X7424420Y5771134D01*
X7488174Y5771134D01*
X7239000Y5612637D02*
G01*
X7239000Y5517134D01*
X7296150Y5612637D02*
G01*
X7287259Y5608065D01*
X7278115Y5599176D01*
X7273543Y5590031D01*
X7268972Y5576315D01*
X7268972Y5553710D01*
X7273543Y5539994D01*
X7278115Y5530850D01*
X7287259Y5521705D01*
X7296150Y5517134D01*
X7314438Y5517134D01*
X7323581Y5521705D01*
X7332725Y5530850D01*
X7337297Y5539994D01*
X7341615Y5553710D01*
X7341615Y5576315D01*
X7337297Y5590031D01*
X7332725Y5599176D01*
X7323581Y5608065D01*
X7314438Y5612637D01*
X7296150Y5612637D01*
X7417308Y5612637D02*
G01*
X7371841Y5549137D01*
X7439913Y5549137D01*
X7417308Y5612637D02*
G01*
X7417308Y5517134D01*
X7248143Y5358637D02*
G01*
X7298181Y5358637D01*
X7270750Y5322315D01*
X7284465Y5322315D01*
X7293609Y5317744D01*
X7298181Y5313171D01*
X7302754Y5299710D01*
X7302754Y5290565D01*
X7298181Y5276850D01*
X7289038Y5267705D01*
X7275322Y5263134D01*
X7261606Y5263134D01*
X7248143Y5267705D01*
X7243572Y5272278D01*
X7239000Y5281421D01*
X7332725Y5358637D02*
G01*
X7369047Y5263134D01*
X7405370Y5358637D02*
G01*
X7369047Y5263134D01*
X7444486Y5358637D02*
G01*
X7494524Y5358637D01*
X7467091Y5322315D01*
X7480808Y5322315D01*
X7489952Y5317744D01*
X7494524Y5313171D01*
X7499095Y5299710D01*
X7499095Y5290565D01*
X7494524Y5276850D01*
X7485379Y5267705D01*
X7471663Y5263134D01*
X7458202Y5263134D01*
X7444486Y5267705D01*
X7439913Y5272278D01*
X7435341Y5281421D01*
X7251700Y5104637D02*
G01*
X7288022Y5009134D01*
X7324343Y5104637D02*
G01*
X7288022Y5009134D01*
X7422641Y5082031D02*
G01*
X7418070Y5091176D01*
X7408925Y5100065D01*
X7399781Y5104637D01*
X7381747Y5104637D01*
X7372604Y5100065D01*
X7363459Y5091176D01*
X7358888Y5082031D01*
X7354315Y5068315D01*
X7354315Y5045710D01*
X7358888Y5031994D01*
X7363459Y5022850D01*
X7372604Y5013705D01*
X7381747Y5009134D01*
X7399781Y5009134D01*
X7408925Y5013705D01*
X7418070Y5022850D01*
X7422641Y5031994D01*
X7520686Y5082031D02*
G01*
X7516368Y5091176D01*
X7507224Y5100065D01*
X7498079Y5104637D01*
X7479791Y5104637D01*
X7470902Y5100065D01*
X7461758Y5091176D01*
X7457186Y5082031D01*
X7452613Y5068315D01*
X7452613Y5045710D01*
X7457186Y5031994D01*
X7461758Y5022850D01*
X7470902Y5013705D01*
X7479791Y5009134D01*
X7498079Y5009134D01*
X7507224Y5013705D01*
X7516368Y5022850D01*
X7520686Y5031994D01*
X7251700Y4850637D02*
G01*
X7251700Y4755134D01*
X7251700Y4850637D02*
G01*
X7292593Y4850637D01*
X7306309Y4846065D01*
X7310881Y4841494D01*
X7315454Y4832604D01*
X7315454Y4823460D01*
X7310881Y4814315D01*
X7306309Y4809744D01*
X7292593Y4805171D01*
X7251700Y4805171D01*
X7283450Y4805171D02*
G01*
X7315454Y4755134D01*
X7408925Y4837176D02*
G01*
X7399781Y4846065D01*
X7386320Y4850637D01*
X7368031Y4850637D01*
X7354315Y4846065D01*
X7345425Y4837176D01*
X7345425Y4828031D01*
X7349997Y4818887D01*
X7354315Y4814315D01*
X7363459Y4809744D01*
X7390891Y4800600D01*
X7399781Y4796281D01*
X7404354Y4791710D01*
X7408925Y4782565D01*
X7408925Y4768850D01*
X7399781Y4759705D01*
X7386320Y4755134D01*
X7368031Y4755134D01*
X7354315Y4759705D01*
X7345425Y4768850D01*
X7470902Y4850637D02*
G01*
X7470902Y4755134D01*
X7438897Y4850637D02*
G01*
X7502652Y4850637D01*
X3738372Y5272531D02*
G01*
X3734054Y5281676D01*
X3724909Y5290565D01*
X3715765Y5295137D01*
X3697477Y5295137D01*
X3688588Y5290565D01*
X3679443Y5281676D01*
X3674872Y5272531D01*
X3670300Y5258815D01*
X3670300Y5236210D01*
X3674872Y5222494D01*
X3679443Y5213350D01*
X3688588Y5204205D01*
X3697477Y5199634D01*
X3715765Y5199634D01*
X3724909Y5204205D01*
X3734054Y5213350D01*
X3738372Y5222494D01*
X3738372Y5236210D01*
X3715765Y5236210D02*
G01*
X3738372Y5236210D01*
X3768597Y5295137D02*
G01*
X3768597Y5199634D01*
X3768597Y5295137D02*
G01*
X3832097Y5199634D01*
X3832097Y5295137D02*
G01*
X3832097Y5199634D01*
X3862070Y5295137D02*
G01*
X3862070Y5199634D01*
X3862070Y5295137D02*
G01*
X3893820Y5295137D01*
X3907536Y5290565D01*
X3916679Y5281676D01*
X3921252Y5272531D01*
X3925824Y5258815D01*
X3925824Y5236210D01*
X3921252Y5222494D01*
X3916679Y5213350D01*
X3907536Y5204205D01*
X3893820Y5199634D01*
X3862070Y5199634D01*
X3666743Y4952237D02*
G01*
X3716781Y4952237D01*
X3689350Y4915915D01*
X3703065Y4915915D01*
X3712209Y4911344D01*
X3716781Y4906771D01*
X3721354Y4893310D01*
X3721354Y4884165D01*
X3716781Y4870450D01*
X3707638Y4861305D01*
X3693922Y4856734D01*
X3680206Y4856734D01*
X3666743Y4861305D01*
X3662172Y4865878D01*
X3657600Y4875021D01*
X3751325Y4952237D02*
G01*
X3787647Y4856734D01*
X3823970Y4952237D02*
G01*
X3787647Y4856734D01*
X3863086Y4952237D02*
G01*
X3913124Y4952237D01*
X3885691Y4915915D01*
X3899408Y4915915D01*
X3908552Y4911344D01*
X3913124Y4906771D01*
X3917695Y4893310D01*
X3917695Y4884165D01*
X3913124Y4870450D01*
X3903979Y4861305D01*
X3890263Y4856734D01*
X3876802Y4856734D01*
X3863086Y4861305D01*
X3858513Y4865878D01*
X3853941Y4875021D01*
X3657600Y4596637D02*
G01*
X3693922Y4501134D01*
X3730243Y4596637D02*
G01*
X3693922Y4501134D01*
X3828541Y4574031D02*
G01*
X3823970Y4583176D01*
X3814825Y4592065D01*
X3805681Y4596637D01*
X3787647Y4596637D01*
X3778504Y4592065D01*
X3769359Y4583176D01*
X3764788Y4574031D01*
X3760215Y4560315D01*
X3760215Y4537710D01*
X3764788Y4523994D01*
X3769359Y4514850D01*
X3778504Y4505705D01*
X3787647Y4501134D01*
X3805681Y4501134D01*
X3814825Y4505705D01*
X3823970Y4514850D01*
X3828541Y4523994D01*
X3926586Y4574031D02*
G01*
X3922268Y4583176D01*
X3913124Y4592065D01*
X3903979Y4596637D01*
X3885691Y4596637D01*
X3876802Y4592065D01*
X3867658Y4583176D01*
X3863086Y4574031D01*
X3858513Y4560315D01*
X3858513Y4537710D01*
X3863086Y4523994D01*
X3867658Y4514850D01*
X3876802Y4505705D01*
X3885691Y4501134D01*
X3903979Y4501134D01*
X3913124Y4505705D01*
X3922268Y4514850D01*
X3926586Y4523994D01*
X1511300Y5980937D02*
G01*
X1511300Y5885434D01*
X1511300Y5980937D02*
G01*
X1543050Y5980937D01*
X1556765Y5976365D01*
X1565910Y5967476D01*
X1570481Y5958331D01*
X1575054Y5944615D01*
X1575054Y5922010D01*
X1570481Y5908294D01*
X1565910Y5899150D01*
X1556765Y5890005D01*
X1543050Y5885434D01*
X1511300Y5885434D01*
X1605026Y5980937D02*
G01*
X1605026Y5885434D01*
X1605026Y5980937D02*
G01*
X1663954Y5980937D01*
X1605026Y5935471D02*
G01*
X1641347Y5935471D01*
X1693926Y5980937D02*
G01*
X1693926Y5885434D01*
X1693926Y5980937D02*
G01*
X1734820Y5980937D01*
X1748536Y5976365D01*
X1753107Y5971794D01*
X1757679Y5962904D01*
X1757679Y5949187D01*
X1753107Y5940044D01*
X1748536Y5935471D01*
X1734820Y5930900D01*
X1693926Y5930900D01*
X1787652Y5980937D02*
G01*
X1787652Y5885434D01*
X1872234Y5949187D02*
G01*
X1872234Y5885434D01*
X1872234Y5935471D02*
G01*
X1863089Y5944615D01*
X1853945Y5949187D01*
X1840484Y5949187D01*
X1831339Y5944615D01*
X1822195Y5935471D01*
X1817623Y5922010D01*
X1817623Y5912865D01*
X1822195Y5899150D01*
X1831339Y5890005D01*
X1840484Y5885434D01*
X1853945Y5885434D01*
X1863089Y5890005D01*
X1872234Y5899150D01*
X1906778Y5949187D02*
G01*
X1933956Y5885434D01*
X1961388Y5949187D02*
G01*
X1933956Y5885434D01*
X1924812Y5867400D01*
X1915921Y5858255D01*
X1906778Y5853684D01*
X1902205Y5853684D01*
X1991359Y5922010D02*
G01*
X2045970Y5922010D01*
X2045970Y5930900D01*
X2041397Y5940044D01*
X2036825Y5944615D01*
X2027681Y5949187D01*
X2013965Y5949187D01*
X2004822Y5944615D01*
X1995931Y5935471D01*
X1991359Y5922010D01*
X1991359Y5912865D01*
X1995931Y5899150D01*
X2004822Y5890005D01*
X2013965Y5885434D01*
X2027681Y5885434D01*
X2036825Y5890005D01*
X2045970Y5899150D01*
X2075941Y5949187D02*
G01*
X2075941Y5885434D01*
X2075941Y5922010D02*
G01*
X2080513Y5935471D01*
X2089404Y5944615D01*
X2098547Y5949187D01*
X2112263Y5949187D01*
X2212086Y5980937D02*
G01*
X2212086Y5885434D01*
X2212086Y5980937D02*
G01*
X2253234Y5980937D01*
X2266695Y5976365D01*
X2271268Y5971794D01*
X2275840Y5962904D01*
X2275840Y5949187D01*
X2271268Y5940044D01*
X2266695Y5935471D01*
X2253234Y5930900D01*
X2212086Y5930900D01*
X2305811Y5949187D02*
G01*
X2305811Y5885434D01*
X2305811Y5922010D02*
G01*
X2310384Y5935471D01*
X2319527Y5944615D01*
X2328672Y5949187D01*
X2342134Y5949187D01*
X2394965Y5949187D02*
G01*
X2385822Y5944615D01*
X2376677Y5935471D01*
X2372106Y5922010D01*
X2372106Y5912865D01*
X2376677Y5899150D01*
X2385822Y5890005D01*
X2394965Y5885434D01*
X2408681Y5885434D01*
X2417572Y5890005D01*
X2426715Y5899150D01*
X2431288Y5912865D01*
X2431288Y5922010D01*
X2426715Y5935471D01*
X2417572Y5944615D01*
X2408681Y5949187D01*
X2394965Y5949187D01*
X1006094Y3162297D02*
G01*
X1006094Y3080509D01*
X965200Y3121403D02*
G01*
X1046987Y3121403D01*
D21*
X1259078Y3467607D02*
G01*
X1253744Y3478021D01*
X1243329Y3488436D01*
X1233170Y3493515D01*
X1212342Y3493515D01*
X1201928Y3488436D01*
X1191513Y3478021D01*
X1186179Y3467607D01*
X1181100Y3451860D01*
X1181100Y3425952D01*
X1186179Y3410457D01*
X1191513Y3400044D01*
X1201928Y3389629D01*
X1212342Y3384550D01*
X1233170Y3384550D01*
X1243329Y3389629D01*
X1253744Y3400044D01*
X1259078Y3410457D01*
X1293368Y3472687D02*
G01*
X1303781Y3478021D01*
X1319276Y3493515D01*
X1319276Y3384550D01*
D23*
X917194Y7584691D02*
G01*
X917194Y7502903D01*
X876300Y7543797D02*
G01*
X958087Y7543797D01*
D21*
X1424178Y7950708D02*
G01*
X1418844Y7961121D01*
X1408429Y7971536D01*
X1398270Y7976615D01*
X1377442Y7976615D01*
X1367028Y7971536D01*
X1356613Y7961121D01*
X1351279Y7950708D01*
X1346200Y7934960D01*
X1346200Y7909052D01*
X1351279Y7893558D01*
X1356613Y7883144D01*
X1367028Y7872729D01*
X1377442Y7867650D01*
X1398270Y7867650D01*
X1408429Y7872729D01*
X1418844Y7883144D01*
X1424178Y7893558D01*
X1463547Y7950708D02*
G01*
X1463547Y7955787D01*
X1468881Y7966202D01*
X1473962Y7971536D01*
X1484376Y7976615D01*
X1505204Y7976615D01*
X1515618Y7971536D01*
X1520697Y7966202D01*
X1526031Y7955787D01*
X1526031Y7945373D01*
X1520697Y7934960D01*
X1510284Y7919465D01*
X1458468Y7867650D01*
X1531112Y7867650D01*
X2718308Y9240520D02*
G01*
X2723388Y9240520D01*
X2733802Y9235186D01*
X2739136Y9230105D01*
X2744215Y9219692D01*
X2744215Y9198863D01*
X2739136Y9188450D01*
X2733802Y9183370D01*
X2723388Y9178036D01*
X2712974Y9178036D01*
X2702559Y9183370D01*
X2687065Y9193529D01*
X2635250Y9245600D01*
X2635250Y9172955D01*
X2744215Y9138665D02*
G01*
X2635250Y9138665D01*
X2744215Y9138665D02*
G01*
X2635250Y9065768D01*
X2744215Y9065768D02*
G01*
X2635250Y9065768D01*
X2744215Y9021063D02*
G01*
X2744215Y8963913D01*
X2702559Y8995155D01*
X2702559Y8979662D01*
X2697479Y8969247D01*
X2692400Y8963913D01*
X2676652Y8958834D01*
X2666238Y8958834D01*
X2650743Y8963913D01*
X2640329Y8974328D01*
X2635250Y8990076D01*
X2635250Y9005570D01*
X2640329Y9021063D01*
X2645409Y9026397D01*
X2655824Y9031478D01*
X2707893Y8856979D02*
G01*
X2692400Y8862060D01*
X2681986Y8872474D01*
X2676652Y8888221D01*
X2676652Y8893302D01*
X2681986Y8909050D01*
X2692400Y8919210D01*
X2707893Y8924544D01*
X2712974Y8924544D01*
X2728722Y8919210D01*
X2739136Y8909050D01*
X2744215Y8893302D01*
X2744215Y8888221D01*
X2739136Y8872474D01*
X2728722Y8862060D01*
X2707893Y8856979D01*
X2681986Y8856979D01*
X2655824Y8862060D01*
X2640329Y8872474D01*
X2635250Y8888221D01*
X2635250Y8898636D01*
X2640329Y8914129D01*
X2650743Y8919210D01*
X2744215Y8791447D02*
G01*
X2739136Y8807195D01*
X2723388Y8817610D01*
X2697479Y8822689D01*
X2681986Y8822689D01*
X2655824Y8817610D01*
X2640329Y8807195D01*
X2635250Y8791447D01*
X2635250Y8781034D01*
X2640329Y8765539D01*
X2655824Y8755126D01*
X2681986Y8750045D01*
X2697479Y8750045D01*
X2723388Y8755126D01*
X2739136Y8765539D01*
X2744215Y8781034D01*
X2744215Y8791447D01*
X2744215Y8663686D02*
G01*
X2671572Y8715755D01*
X2671572Y8637778D01*
X2744215Y8663686D02*
G01*
X2635250Y8663686D01*
X3352800Y9174987D02*
G01*
X3363213Y9180321D01*
X3378708Y9195815D01*
X3378708Y9086850D01*
X3412997Y9195815D02*
G01*
X3412997Y9086850D01*
X3485895Y9195815D02*
G01*
X3412997Y9123171D01*
X3439159Y9149079D02*
G01*
X3485895Y9086850D01*
D23*
X4330700Y9188958D02*
G01*
X4330700Y9074404D01*
X4399534Y9188958D02*
G01*
X4388611Y9183370D01*
X4377690Y9172447D01*
X4372102Y9161526D01*
X4366768Y9145270D01*
X4366768Y9118092D01*
X4372102Y9101581D01*
X4377690Y9090660D01*
X4388611Y9079737D01*
X4399534Y9074404D01*
X4421124Y9074404D01*
X4432045Y9079737D01*
X4442968Y9090660D01*
X4448556Y9101581D01*
X4453890Y9118092D01*
X4453890Y9145270D01*
X4448556Y9161526D01*
X4442968Y9172447D01*
X4432045Y9183370D01*
X4421124Y9188958D01*
X4399534Y9188958D01*
X4500879Y9188958D02*
G01*
X4560824Y9188958D01*
X4528058Y9145270D01*
X4544568Y9145270D01*
X4555490Y9139681D01*
X4560824Y9134347D01*
X4566411Y9118092D01*
X4566411Y9107170D01*
X4560824Y9090660D01*
X4549902Y9079737D01*
X4533645Y9074404D01*
X4517136Y9074404D01*
X4500879Y9079737D01*
X4495545Y9085326D01*
X4489958Y9096247D01*
X4700524Y9210802D02*
G01*
X4602225Y9036050D01*
X4736591Y9188958D02*
G01*
X4736591Y9074404D01*
X4736591Y9188958D02*
G01*
X4785613Y9188958D01*
X4801870Y9183370D01*
X4807458Y9178036D01*
X4812791Y9167113D01*
X4812791Y9156192D01*
X4807458Y9145270D01*
X4801870Y9139681D01*
X4785613Y9134347D01*
X4736591Y9134347D01*
X4774691Y9134347D02*
G01*
X4812791Y9074404D01*
X4848859Y9188958D02*
G01*
X4925313Y9074404D01*
X4925313Y9188958D02*
G01*
X4848859Y9074404D01*
X4961127Y9188958D02*
G01*
X4961127Y9074404D01*
X4961127Y9188958D02*
G01*
X4999481Y9188958D01*
X5015738Y9183370D01*
X5026659Y9172447D01*
X5032247Y9161526D01*
X5037581Y9145270D01*
X5037581Y9118092D01*
X5032247Y9101581D01*
X5026659Y9090660D01*
X5015738Y9079737D01*
X4999481Y9074404D01*
X4961127Y9074404D01*
X4330700Y8922258D02*
G01*
X4330700Y8807704D01*
X4399534Y8922258D02*
G01*
X4388611Y8916670D01*
X4377690Y8905747D01*
X4372102Y8894826D01*
X4366768Y8878570D01*
X4366768Y8851392D01*
X4372102Y8834881D01*
X4377690Y8823960D01*
X4388611Y8813037D01*
X4399534Y8807704D01*
X4421124Y8807704D01*
X4432045Y8813037D01*
X4442968Y8823960D01*
X4448556Y8834881D01*
X4453890Y8851392D01*
X4453890Y8878570D01*
X4448556Y8894826D01*
X4442968Y8905747D01*
X4432045Y8916670D01*
X4421124Y8922258D01*
X4399534Y8922258D01*
X4489958Y8900413D02*
G01*
X4500879Y8905747D01*
X4517136Y8922258D01*
X4517136Y8807704D01*
X4651502Y8944102D02*
G01*
X4553204Y8769350D01*
X4725670Y8922258D02*
G01*
X4725670Y8807704D01*
X4687315Y8922258D02*
G01*
X4763770Y8922258D01*
X4799838Y8922258D02*
G01*
X4876038Y8807704D01*
X4876038Y8922258D02*
G01*
X4799838Y8807704D01*
X4912106Y8922258D02*
G01*
X4912106Y8807704D01*
X4912106Y8922258D02*
G01*
X4950459Y8922258D01*
X4966715Y8916670D01*
X4977638Y8905747D01*
X4982972Y8894826D01*
X4988559Y8878570D01*
X4988559Y8851392D01*
X4982972Y8834881D01*
X4977638Y8823960D01*
X4966715Y8813037D01*
X4950459Y8807704D01*
X4912106Y8807704D01*
X4318000Y8668258D02*
G01*
X4318000Y8553704D01*
X4386834Y8668258D02*
G01*
X4375911Y8662670D01*
X4364990Y8651747D01*
X4359402Y8640826D01*
X4354068Y8624570D01*
X4354068Y8597392D01*
X4359402Y8580881D01*
X4364990Y8569960D01*
X4375911Y8559037D01*
X4386834Y8553704D01*
X4408424Y8553704D01*
X4419345Y8559037D01*
X4430268Y8569960D01*
X4435856Y8580881D01*
X4441190Y8597392D01*
X4441190Y8624570D01*
X4435856Y8640826D01*
X4430268Y8651747D01*
X4419345Y8662670D01*
X4408424Y8668258D01*
X4386834Y8668258D01*
X4482845Y8640826D02*
G01*
X4482845Y8646413D01*
X4488179Y8657336D01*
X4493513Y8662670D01*
X4504436Y8668258D01*
X4526279Y8668258D01*
X4537202Y8662670D01*
X4542790Y8657336D01*
X4548124Y8646413D01*
X4548124Y8635492D01*
X4542790Y8624570D01*
X4531868Y8608313D01*
X4477258Y8553704D01*
X4553711Y8553704D01*
X4655058Y8668258D02*
G01*
X4600447Y8668258D01*
X4595113Y8618981D01*
X4600447Y8624570D01*
X4616958Y8629904D01*
X4633213Y8629904D01*
X4649724Y8624570D01*
X4660645Y8613647D01*
X4665979Y8597392D01*
X4665979Y8586470D01*
X4660645Y8569960D01*
X4649724Y8559037D01*
X4633213Y8553704D01*
X4616958Y8553704D01*
X4600447Y8559037D01*
X4595113Y8564626D01*
X4589525Y8575547D01*
X4800091Y8690102D02*
G01*
X4702047Y8515350D01*
X4836159Y8668258D02*
G01*
X4836159Y8553704D01*
X4836159Y8668258D02*
G01*
X4874259Y8668258D01*
X4890770Y8662670D01*
X4901691Y8651747D01*
X4907025Y8640826D01*
X4912613Y8624570D01*
X4912613Y8597392D01*
X4907025Y8580881D01*
X4901691Y8569960D01*
X4890770Y8559037D01*
X4874259Y8553704D01*
X4836159Y8553704D01*
X4954015Y8640826D02*
G01*
X4954015Y8646413D01*
X4959350Y8657336D01*
X4964938Y8662670D01*
X4975859Y8668258D01*
X4997704Y8668258D01*
X5008625Y8662670D01*
X5013959Y8657336D01*
X5019547Y8646413D01*
X5019547Y8635492D01*
X5013959Y8624570D01*
X5003038Y8608313D01*
X4948427Y8553704D01*
X5024881Y8553704D01*
X4318000Y8414258D02*
G01*
X4318000Y8299704D01*
X4386834Y8414258D02*
G01*
X4375911Y8408670D01*
X4364990Y8397747D01*
X4359402Y8386826D01*
X4354068Y8370570D01*
X4354068Y8343392D01*
X4359402Y8326881D01*
X4364990Y8315960D01*
X4375911Y8305037D01*
X4386834Y8299704D01*
X4408424Y8299704D01*
X4419345Y8305037D01*
X4430268Y8315960D01*
X4435856Y8326881D01*
X4441190Y8343392D01*
X4441190Y8370570D01*
X4435856Y8386826D01*
X4430268Y8397747D01*
X4419345Y8408670D01*
X4408424Y8414258D01*
X4386834Y8414258D01*
X4482845Y8386826D02*
G01*
X4482845Y8392413D01*
X4488179Y8403336D01*
X4493513Y8408670D01*
X4504436Y8414258D01*
X4526279Y8414258D01*
X4537202Y8408670D01*
X4542790Y8403336D01*
X4548124Y8392413D01*
X4548124Y8381492D01*
X4542790Y8370570D01*
X4531868Y8354313D01*
X4477258Y8299704D01*
X4553711Y8299704D01*
X4655058Y8397747D02*
G01*
X4649724Y8408670D01*
X4633213Y8414258D01*
X4622291Y8414258D01*
X4606036Y8408670D01*
X4595113Y8392413D01*
X4589525Y8364981D01*
X4589525Y8337804D01*
X4595113Y8315960D01*
X4606036Y8305037D01*
X4622291Y8299704D01*
X4627879Y8299704D01*
X4644136Y8305037D01*
X4655058Y8315960D01*
X4660645Y8332470D01*
X4660645Y8337804D01*
X4655058Y8354313D01*
X4644136Y8364981D01*
X4627879Y8370570D01*
X4622291Y8370570D01*
X4606036Y8364981D01*
X4595113Y8354313D01*
X4589525Y8337804D01*
X4794758Y8436102D02*
G01*
X4696459Y8261350D01*
X4830825Y8414258D02*
G01*
X4830825Y8299704D01*
X4830825Y8414258D02*
G01*
X4868925Y8414258D01*
X4885181Y8408670D01*
X4896104Y8397747D01*
X4901691Y8386826D01*
X4907025Y8370570D01*
X4907025Y8343392D01*
X4901691Y8326881D01*
X4896104Y8315960D01*
X4885181Y8305037D01*
X4868925Y8299704D01*
X4830825Y8299704D01*
X4954015Y8414258D02*
G01*
X5013959Y8414258D01*
X4981193Y8370570D01*
X4997704Y8370570D01*
X5008625Y8364981D01*
X5013959Y8359647D01*
X5019547Y8343392D01*
X5019547Y8332470D01*
X5013959Y8315960D01*
X5003038Y8305037D01*
X4986781Y8299704D01*
X4970272Y8299704D01*
X4954015Y8305037D01*
X4948427Y8310626D01*
X4943093Y8321547D01*
X4318000Y8172958D02*
G01*
X4318000Y8058404D01*
X4386834Y8172958D02*
G01*
X4375911Y8167370D01*
X4364990Y8156447D01*
X4359402Y8145526D01*
X4354068Y8129270D01*
X4354068Y8102092D01*
X4359402Y8085581D01*
X4364990Y8074660D01*
X4375911Y8063737D01*
X4386834Y8058404D01*
X4408424Y8058404D01*
X4419345Y8063737D01*
X4430268Y8074660D01*
X4435856Y8085581D01*
X4441190Y8102092D01*
X4441190Y8129270D01*
X4435856Y8145526D01*
X4430268Y8156447D01*
X4419345Y8167370D01*
X4408424Y8172958D01*
X4386834Y8172958D01*
X4482845Y8145526D02*
G01*
X4482845Y8151113D01*
X4488179Y8162036D01*
X4493513Y8167370D01*
X4504436Y8172958D01*
X4526279Y8172958D01*
X4537202Y8167370D01*
X4542790Y8162036D01*
X4548124Y8151113D01*
X4548124Y8140192D01*
X4542790Y8129270D01*
X4531868Y8113013D01*
X4477258Y8058404D01*
X4553711Y8058404D01*
X4665979Y8172958D02*
G01*
X4611370Y8058404D01*
X4589525Y8172958D02*
G01*
X4665979Y8172958D01*
X4800091Y8194802D02*
G01*
X4702047Y8020050D01*
X4836159Y8172958D02*
G01*
X4836159Y8058404D01*
X4836159Y8172958D02*
G01*
X4874259Y8172958D01*
X4890770Y8167370D01*
X4901691Y8156447D01*
X4907025Y8145526D01*
X4912613Y8129270D01*
X4912613Y8102092D01*
X4907025Y8085581D01*
X4901691Y8074660D01*
X4890770Y8063737D01*
X4874259Y8058404D01*
X4836159Y8058404D01*
X5003038Y8172958D02*
G01*
X4948427Y8096504D01*
X5030470Y8096504D01*
X5003038Y8172958D02*
G01*
X5003038Y8058404D01*
X4318000Y7906258D02*
G01*
X4318000Y7791704D01*
X4386834Y7906258D02*
G01*
X4375911Y7900670D01*
X4364990Y7889747D01*
X4359402Y7878826D01*
X4354068Y7862570D01*
X4354068Y7835392D01*
X4359402Y7818881D01*
X4364990Y7807960D01*
X4375911Y7797037D01*
X4386834Y7791704D01*
X4408424Y7791704D01*
X4419345Y7797037D01*
X4430268Y7807960D01*
X4435856Y7818881D01*
X4441190Y7835392D01*
X4441190Y7862570D01*
X4435856Y7878826D01*
X4430268Y7889747D01*
X4419345Y7900670D01*
X4408424Y7906258D01*
X4386834Y7906258D01*
X4548124Y7867904D02*
G01*
X4542790Y7851647D01*
X4531868Y7840726D01*
X4515358Y7835392D01*
X4510024Y7835392D01*
X4493513Y7840726D01*
X4482845Y7851647D01*
X4477258Y7867904D01*
X4477258Y7873492D01*
X4482845Y7889747D01*
X4493513Y7900670D01*
X4510024Y7906258D01*
X4515358Y7906258D01*
X4531868Y7900670D01*
X4542790Y7889747D01*
X4548124Y7867904D01*
X4548124Y7840726D01*
X4542790Y7813547D01*
X4531868Y7797037D01*
X4515358Y7791704D01*
X4504436Y7791704D01*
X4488179Y7797037D01*
X4482845Y7807960D01*
X4682236Y7928102D02*
G01*
X4584191Y7753350D01*
X4718304Y7906258D02*
G01*
X4718304Y7791704D01*
X4718304Y7906258D02*
G01*
X4756658Y7906258D01*
X4772913Y7900670D01*
X4783836Y7889747D01*
X4789170Y7878826D01*
X4794758Y7862570D01*
X4794758Y7835392D01*
X4789170Y7818881D01*
X4783836Y7807960D01*
X4772913Y7797037D01*
X4756658Y7791704D01*
X4718304Y7791704D01*
X4896104Y7906258D02*
G01*
X4841747Y7906258D01*
X4836159Y7856981D01*
X4841747Y7862570D01*
X4858004Y7867904D01*
X4874259Y7867904D01*
X4890770Y7862570D01*
X4901691Y7851647D01*
X4907025Y7835392D01*
X4907025Y7824470D01*
X4901691Y7807960D01*
X4890770Y7797037D01*
X4874259Y7791704D01*
X4858004Y7791704D01*
X4841747Y7797037D01*
X4836159Y7802626D01*
X4830825Y7813547D01*
X4318000Y7664958D02*
G01*
X4318000Y7550404D01*
X4386834Y7664958D02*
G01*
X4375911Y7659370D01*
X4364990Y7648447D01*
X4359402Y7637526D01*
X4354068Y7621270D01*
X4354068Y7594092D01*
X4359402Y7577581D01*
X4364990Y7566660D01*
X4375911Y7555737D01*
X4386834Y7550404D01*
X4408424Y7550404D01*
X4419345Y7555737D01*
X4430268Y7566660D01*
X4435856Y7577581D01*
X4441190Y7594092D01*
X4441190Y7621270D01*
X4435856Y7637526D01*
X4430268Y7648447D01*
X4419345Y7659370D01*
X4408424Y7664958D01*
X4386834Y7664958D01*
X4477258Y7643113D02*
G01*
X4488179Y7648447D01*
X4504436Y7664958D01*
X4504436Y7550404D01*
X4573270Y7664958D02*
G01*
X4557013Y7659370D01*
X4546091Y7643113D01*
X4540504Y7615681D01*
X4540504Y7599426D01*
X4546091Y7572247D01*
X4557013Y7555737D01*
X4573270Y7550404D01*
X4584191Y7550404D01*
X4600447Y7555737D01*
X4611370Y7572247D01*
X4616958Y7599426D01*
X4616958Y7615681D01*
X4611370Y7643113D01*
X4600447Y7659370D01*
X4584191Y7664958D01*
X4573270Y7664958D01*
X4751070Y7686802D02*
G01*
X4653025Y7512050D01*
X4787138Y7664958D02*
G01*
X4787138Y7550404D01*
X4787138Y7664958D02*
G01*
X4825238Y7664958D01*
X4841747Y7659370D01*
X4852670Y7648447D01*
X4858004Y7637526D01*
X4863338Y7621270D01*
X4863338Y7594092D01*
X4858004Y7577581D01*
X4852670Y7566660D01*
X4841747Y7555737D01*
X4825238Y7550404D01*
X4787138Y7550404D01*
X4964938Y7648447D02*
G01*
X4959350Y7659370D01*
X4943093Y7664958D01*
X4932172Y7664958D01*
X4915915Y7659370D01*
X4904993Y7643113D01*
X4899406Y7615681D01*
X4899406Y7588504D01*
X4904993Y7566660D01*
X4915915Y7555737D01*
X4932172Y7550404D01*
X4937759Y7550404D01*
X4954015Y7555737D01*
X4964938Y7566660D01*
X4970272Y7583170D01*
X4970272Y7588504D01*
X4964938Y7605013D01*
X4954015Y7615681D01*
X4937759Y7621270D01*
X4932172Y7621270D01*
X4915915Y7615681D01*
X4904993Y7605013D01*
X4899406Y7588504D01*
X4318000Y7410958D02*
G01*
X4318000Y7296404D01*
X4386834Y7410958D02*
G01*
X4375911Y7405370D01*
X4364990Y7394447D01*
X4359402Y7383526D01*
X4354068Y7367270D01*
X4354068Y7340092D01*
X4359402Y7323581D01*
X4364990Y7312660D01*
X4375911Y7301737D01*
X4386834Y7296404D01*
X4408424Y7296404D01*
X4419345Y7301737D01*
X4430268Y7312660D01*
X4435856Y7323581D01*
X4441190Y7340092D01*
X4441190Y7367270D01*
X4435856Y7383526D01*
X4430268Y7394447D01*
X4419345Y7405370D01*
X4408424Y7410958D01*
X4386834Y7410958D01*
X4477258Y7389113D02*
G01*
X4488179Y7394447D01*
X4504436Y7410958D01*
X4504436Y7296404D01*
X4551425Y7410958D02*
G01*
X4611370Y7410958D01*
X4578604Y7367270D01*
X4595113Y7367270D01*
X4606036Y7361681D01*
X4611370Y7356347D01*
X4616958Y7340092D01*
X4616958Y7329170D01*
X4611370Y7312660D01*
X4600447Y7301737D01*
X4584191Y7296404D01*
X4567936Y7296404D01*
X4551425Y7301737D01*
X4546091Y7307326D01*
X4540504Y7318247D01*
X4751070Y7432802D02*
G01*
X4653025Y7258050D01*
X4787138Y7410958D02*
G01*
X4787138Y7296404D01*
X4787138Y7410958D02*
G01*
X4825238Y7410958D01*
X4841747Y7405370D01*
X4852670Y7394447D01*
X4858004Y7383526D01*
X4863338Y7367270D01*
X4863338Y7340092D01*
X4858004Y7323581D01*
X4852670Y7312660D01*
X4841747Y7301737D01*
X4825238Y7296404D01*
X4787138Y7296404D01*
X4975859Y7410958D02*
G01*
X4921250Y7296404D01*
X4899406Y7410958D02*
G01*
X4975859Y7410958D01*
X4318000Y7144258D02*
G01*
X4318000Y7029704D01*
X4386834Y7144258D02*
G01*
X4375911Y7138670D01*
X4364990Y7127747D01*
X4359402Y7116826D01*
X4354068Y7100570D01*
X4354068Y7073392D01*
X4359402Y7056881D01*
X4364990Y7045960D01*
X4375911Y7035037D01*
X4386834Y7029704D01*
X4408424Y7029704D01*
X4419345Y7035037D01*
X4430268Y7045960D01*
X4435856Y7056881D01*
X4441190Y7073392D01*
X4441190Y7100570D01*
X4435856Y7116826D01*
X4430268Y7127747D01*
X4419345Y7138670D01*
X4408424Y7144258D01*
X4386834Y7144258D01*
X4542790Y7144258D02*
G01*
X4488179Y7144258D01*
X4482845Y7094981D01*
X4488179Y7100570D01*
X4504436Y7105904D01*
X4520945Y7105904D01*
X4537202Y7100570D01*
X4548124Y7089647D01*
X4553711Y7073392D01*
X4553711Y7062470D01*
X4548124Y7045960D01*
X4537202Y7035037D01*
X4520945Y7029704D01*
X4504436Y7029704D01*
X4488179Y7035037D01*
X4482845Y7040626D01*
X4477258Y7051547D01*
X4687824Y7166102D02*
G01*
X4589525Y6991350D01*
X4723891Y7144258D02*
G01*
X4723891Y7029704D01*
X4723891Y7144258D02*
G01*
X4761991Y7144258D01*
X4778247Y7138670D01*
X4789170Y7127747D01*
X4794758Y7116826D01*
X4800091Y7100570D01*
X4800091Y7073392D01*
X4794758Y7056881D01*
X4789170Y7045960D01*
X4778247Y7035037D01*
X4761991Y7029704D01*
X4723891Y7029704D01*
X4863338Y7144258D02*
G01*
X4847081Y7138670D01*
X4841747Y7127747D01*
X4841747Y7116826D01*
X4847081Y7105904D01*
X4858004Y7100570D01*
X4879847Y7094981D01*
X4896104Y7089647D01*
X4907025Y7078726D01*
X4912613Y7067804D01*
X4912613Y7051547D01*
X4907025Y7040626D01*
X4901691Y7035037D01*
X4885181Y7029704D01*
X4863338Y7029704D01*
X4847081Y7035037D01*
X4841747Y7040626D01*
X4836159Y7051547D01*
X4836159Y7067804D01*
X4841747Y7078726D01*
X4852670Y7089647D01*
X4868925Y7094981D01*
X4890770Y7100570D01*
X4901691Y7105904D01*
X4907025Y7116826D01*
X4907025Y7127747D01*
X4901691Y7138670D01*
X4885181Y7144258D01*
X4863338Y7144258D01*
X4318000Y6890258D02*
G01*
X4318000Y6775704D01*
X4386834Y6890258D02*
G01*
X4375911Y6884670D01*
X4364990Y6873747D01*
X4359402Y6862826D01*
X4354068Y6846570D01*
X4354068Y6819392D01*
X4359402Y6802881D01*
X4364990Y6791960D01*
X4375911Y6781037D01*
X4386834Y6775704D01*
X4408424Y6775704D01*
X4419345Y6781037D01*
X4430268Y6791960D01*
X4435856Y6802881D01*
X4441190Y6819392D01*
X4441190Y6846570D01*
X4435856Y6862826D01*
X4430268Y6873747D01*
X4419345Y6884670D01*
X4408424Y6890258D01*
X4386834Y6890258D01*
X4482845Y6862826D02*
G01*
X4482845Y6868413D01*
X4488179Y6879336D01*
X4493513Y6884670D01*
X4504436Y6890258D01*
X4526279Y6890258D01*
X4537202Y6884670D01*
X4542790Y6879336D01*
X4548124Y6868413D01*
X4548124Y6857492D01*
X4542790Y6846570D01*
X4531868Y6830313D01*
X4477258Y6775704D01*
X4553711Y6775704D01*
X4687824Y6912102D02*
G01*
X4589525Y6737350D01*
X4723891Y6890258D02*
G01*
X4723891Y6775704D01*
X4723891Y6890258D02*
G01*
X4761991Y6890258D01*
X4778247Y6884670D01*
X4789170Y6873747D01*
X4794758Y6862826D01*
X4800091Y6846570D01*
X4800091Y6819392D01*
X4794758Y6802881D01*
X4789170Y6791960D01*
X4778247Y6781037D01*
X4761991Y6775704D01*
X4723891Y6775704D01*
X4907025Y6851904D02*
G01*
X4901691Y6835647D01*
X4890770Y6824726D01*
X4874259Y6819392D01*
X4868925Y6819392D01*
X4852670Y6824726D01*
X4841747Y6835647D01*
X4836159Y6851904D01*
X4836159Y6857492D01*
X4841747Y6873747D01*
X4852670Y6884670D01*
X4868925Y6890258D01*
X4874259Y6890258D01*
X4890770Y6884670D01*
X4901691Y6873747D01*
X4907025Y6851904D01*
X4907025Y6824726D01*
X4901691Y6797547D01*
X4890770Y6781037D01*
X4874259Y6775704D01*
X4863338Y6775704D01*
X4847081Y6781037D01*
X4841747Y6791960D01*
X4399788Y6621526D02*
G01*
X4394454Y6632447D01*
X4383531Y6643370D01*
X4372609Y6648958D01*
X4350765Y6648958D01*
X4339843Y6643370D01*
X4328922Y6632447D01*
X4323334Y6621526D01*
X4318000Y6605270D01*
X4318000Y6578092D01*
X4323334Y6561581D01*
X4328922Y6550660D01*
X4339843Y6539737D01*
X4350765Y6534404D01*
X4372609Y6534404D01*
X4383531Y6539737D01*
X4394454Y6550660D01*
X4399788Y6561581D01*
X4435856Y6648958D02*
G01*
X4435856Y6534404D01*
X4435856Y6534404D02*
G01*
X4501388Y6534404D01*
X4537202Y6648958D02*
G01*
X4537202Y6534404D01*
X4613656Y6648958D02*
G01*
X4537202Y6572504D01*
X4564634Y6599681D02*
G01*
X4613656Y6534404D01*
X4747768Y6670802D02*
G01*
X4649724Y6496050D01*
X4783836Y6648958D02*
G01*
X4783836Y6534404D01*
X4852670Y6648958D02*
G01*
X4841747Y6643370D01*
X4830825Y6632447D01*
X4825238Y6621526D01*
X4819904Y6605270D01*
X4819904Y6578092D01*
X4825238Y6561581D01*
X4830825Y6550660D01*
X4841747Y6539737D01*
X4852670Y6534404D01*
X4874259Y6534404D01*
X4885181Y6539737D01*
X4896104Y6550660D01*
X4901691Y6561581D01*
X4907025Y6578092D01*
X4907025Y6605270D01*
X4901691Y6621526D01*
X4896104Y6632447D01*
X4885181Y6643370D01*
X4874259Y6648958D01*
X4852670Y6648958D01*
X5008625Y6632447D02*
G01*
X5003038Y6643370D01*
X4986781Y6648958D01*
X4975859Y6648958D01*
X4959350Y6643370D01*
X4948427Y6627113D01*
X4943093Y6599681D01*
X4943093Y6572504D01*
X4948427Y6550660D01*
X4959350Y6539737D01*
X4975859Y6534404D01*
X4981193Y6534404D01*
X4997704Y6539737D01*
X5008625Y6550660D01*
X5013959Y6567170D01*
X5013959Y6572504D01*
X5008625Y6589013D01*
X4997704Y6599681D01*
X4981193Y6605270D01*
X4975859Y6605270D01*
X4959350Y6599681D01*
X4948427Y6589013D01*
X4943093Y6572504D01*
X4394454Y6365747D02*
G01*
X4383531Y6376670D01*
X4367022Y6382257D01*
X4345177Y6382257D01*
X4328922Y6376670D01*
X4318000Y6365747D01*
X4318000Y6354826D01*
X4323334Y6343904D01*
X4328922Y6338570D01*
X4339843Y6332981D01*
X4372609Y6322313D01*
X4383531Y6316726D01*
X4388865Y6311392D01*
X4394454Y6300470D01*
X4394454Y6283960D01*
X4383531Y6273037D01*
X4367022Y6267704D01*
X4345177Y6267704D01*
X4328922Y6273037D01*
X4318000Y6283960D01*
X4430268Y6382257D02*
G01*
X4430268Y6267704D01*
X4430268Y6382257D02*
G01*
X4468622Y6382257D01*
X4484877Y6376670D01*
X4495800Y6365747D01*
X4501388Y6354826D01*
X4506722Y6338570D01*
X4506722Y6311392D01*
X4501388Y6294881D01*
X4495800Y6283960D01*
X4484877Y6273037D01*
X4468622Y6267704D01*
X4430268Y6267704D01*
X4575556Y6382257D02*
G01*
X4559045Y6376670D01*
X4548124Y6360413D01*
X4542790Y6332981D01*
X4542790Y6316726D01*
X4548124Y6289547D01*
X4559045Y6273037D01*
X4575556Y6267704D01*
X4586477Y6267704D01*
X4602734Y6273037D01*
X4613656Y6289547D01*
X4618990Y6316726D01*
X4618990Y6332981D01*
X4613656Y6360413D01*
X4602734Y6376670D01*
X4586477Y6382257D01*
X4575556Y6382257D01*
X4753356Y6404102D02*
G01*
X4655058Y6229350D01*
X4789170Y6382257D02*
G01*
X4789170Y6267704D01*
X4858004Y6382257D02*
G01*
X4847081Y6376670D01*
X4836159Y6365747D01*
X4830825Y6354826D01*
X4825238Y6338570D01*
X4825238Y6311392D01*
X4830825Y6294881D01*
X4836159Y6283960D01*
X4847081Y6273037D01*
X4858004Y6267704D01*
X4879847Y6267704D01*
X4890770Y6273037D01*
X4901691Y6283960D01*
X4907025Y6294881D01*
X4912613Y6311392D01*
X4912613Y6338570D01*
X4907025Y6354826D01*
X4901691Y6365747D01*
X4890770Y6376670D01*
X4879847Y6382257D01*
X4858004Y6382257D01*
X5024881Y6382257D02*
G01*
X4970272Y6267704D01*
X4948427Y6382257D02*
G01*
X5024881Y6382257D01*
X4394454Y6111747D02*
G01*
X4383531Y6122670D01*
X4367022Y6128257D01*
X4345177Y6128257D01*
X4328922Y6122670D01*
X4318000Y6111747D01*
X4318000Y6100826D01*
X4323334Y6089904D01*
X4328922Y6084570D01*
X4339843Y6078981D01*
X4372609Y6068313D01*
X4383531Y6062726D01*
X4388865Y6057392D01*
X4394454Y6046470D01*
X4394454Y6029960D01*
X4383531Y6019037D01*
X4367022Y6013704D01*
X4345177Y6013704D01*
X4328922Y6019037D01*
X4318000Y6029960D01*
X4430268Y6128257D02*
G01*
X4430268Y6013704D01*
X4430268Y6128257D02*
G01*
X4468622Y6128257D01*
X4484877Y6122670D01*
X4495800Y6111747D01*
X4501388Y6100826D01*
X4506722Y6084570D01*
X4506722Y6057392D01*
X4501388Y6040881D01*
X4495800Y6029960D01*
X4484877Y6019037D01*
X4468622Y6013704D01*
X4430268Y6013704D01*
X4542790Y6106413D02*
G01*
X4553711Y6111747D01*
X4569968Y6128257D01*
X4569968Y6013704D01*
X4704079Y6150102D02*
G01*
X4606036Y5975350D01*
X4740147Y6128257D02*
G01*
X4740147Y6013704D01*
X4808981Y6128257D02*
G01*
X4798059Y6122670D01*
X4787138Y6111747D01*
X4781550Y6100826D01*
X4776215Y6084570D01*
X4776215Y6057392D01*
X4781550Y6040881D01*
X4787138Y6029960D01*
X4798059Y6019037D01*
X4808981Y6013704D01*
X4830825Y6013704D01*
X4841747Y6019037D01*
X4852670Y6029960D01*
X4858004Y6040881D01*
X4863338Y6057392D01*
X4863338Y6084570D01*
X4858004Y6100826D01*
X4852670Y6111747D01*
X4841747Y6122670D01*
X4830825Y6128257D01*
X4808981Y6128257D01*
X4926838Y6128257D02*
G01*
X4910327Y6122670D01*
X4904993Y6111747D01*
X4904993Y6100826D01*
X4910327Y6089904D01*
X4921250Y6084570D01*
X4943093Y6078981D01*
X4959350Y6073647D01*
X4970272Y6062726D01*
X4975859Y6051804D01*
X4975859Y6035547D01*
X4970272Y6024626D01*
X4964938Y6019037D01*
X4948427Y6013704D01*
X4926838Y6013704D01*
X4910327Y6019037D01*
X4904993Y6024626D01*
X4899406Y6035547D01*
X4899406Y6051804D01*
X4904993Y6062726D01*
X4915915Y6073647D01*
X4932172Y6078981D01*
X4954015Y6084570D01*
X4964938Y6089904D01*
X4970272Y6100826D01*
X4970272Y6111747D01*
X4964938Y6122670D01*
X4948427Y6128257D01*
X4926838Y6128257D01*
X4399788Y5859526D02*
G01*
X4394454Y5870447D01*
X4383531Y5881370D01*
X4372609Y5886957D01*
X4350765Y5886957D01*
X4339843Y5881370D01*
X4328922Y5870447D01*
X4323334Y5859526D01*
X4318000Y5843270D01*
X4318000Y5816092D01*
X4323334Y5799581D01*
X4328922Y5788660D01*
X4339843Y5777737D01*
X4350765Y5772404D01*
X4372609Y5772404D01*
X4383531Y5777737D01*
X4394454Y5788660D01*
X4399788Y5799581D01*
X4435856Y5886957D02*
G01*
X4435856Y5772404D01*
X4435856Y5886957D02*
G01*
X4479543Y5772404D01*
X4522977Y5886957D02*
G01*
X4479543Y5772404D01*
X4522977Y5886957D02*
G01*
X4522977Y5772404D01*
X4559045Y5886957D02*
G01*
X4559045Y5772404D01*
X4559045Y5886957D02*
G01*
X4597145Y5886957D01*
X4613656Y5881370D01*
X4624577Y5870447D01*
X4629911Y5859526D01*
X4635500Y5843270D01*
X4635500Y5816092D01*
X4629911Y5799581D01*
X4624577Y5788660D01*
X4613656Y5777737D01*
X4597145Y5772404D01*
X4559045Y5772404D01*
X4769611Y5908802D02*
G01*
X4671568Y5734050D01*
X4805679Y5886957D02*
G01*
X4805679Y5772404D01*
X4874259Y5886957D02*
G01*
X4863338Y5881370D01*
X4852670Y5870447D01*
X4847081Y5859526D01*
X4841747Y5843270D01*
X4841747Y5816092D01*
X4847081Y5799581D01*
X4852670Y5788660D01*
X4863338Y5777737D01*
X4874259Y5772404D01*
X4896104Y5772404D01*
X4907025Y5777737D01*
X4917947Y5788660D01*
X4923536Y5799581D01*
X4928870Y5816092D01*
X4928870Y5843270D01*
X4923536Y5859526D01*
X4917947Y5870447D01*
X4907025Y5881370D01*
X4896104Y5886957D01*
X4874259Y5886957D01*
X4964938Y5865113D02*
G01*
X4975859Y5870447D01*
X4992115Y5886957D01*
X4992115Y5772404D01*
X5028184Y5865113D02*
G01*
X5039106Y5870447D01*
X5055361Y5886957D01*
X5055361Y5772404D01*
X4399788Y5592826D02*
G01*
X4394454Y5603747D01*
X4383531Y5614670D01*
X4372609Y5620257D01*
X4350765Y5620257D01*
X4339843Y5614670D01*
X4328922Y5603747D01*
X4323334Y5592826D01*
X4318000Y5576570D01*
X4318000Y5549392D01*
X4323334Y5532881D01*
X4328922Y5521960D01*
X4339843Y5511037D01*
X4350765Y5505704D01*
X4372609Y5505704D01*
X4383531Y5511037D01*
X4394454Y5521960D01*
X4399788Y5532881D01*
X4399788Y5549392D01*
X4372609Y5549392D02*
G01*
X4399788Y5549392D01*
X4435856Y5620257D02*
G01*
X4435856Y5505704D01*
X4435856Y5620257D02*
G01*
X4512056Y5505704D01*
X4512056Y5620257D02*
G01*
X4512056Y5505704D01*
X4548124Y5620257D02*
G01*
X4548124Y5505704D01*
X4548124Y5620257D02*
G01*
X4586477Y5620257D01*
X4602734Y5614670D01*
X4613656Y5603747D01*
X4618990Y5592826D01*
X4624577Y5576570D01*
X4624577Y5549392D01*
X4618990Y5532881D01*
X4613656Y5521960D01*
X4602734Y5511037D01*
X4586477Y5505704D01*
X4548124Y5505704D01*
X4361688Y5378957D02*
G01*
X4318000Y5264404D01*
X4361688Y5378957D02*
G01*
X4405375Y5264404D01*
X4334256Y5302504D02*
G01*
X4388865Y5302504D01*
X4441190Y5378957D02*
G01*
X4441190Y5264404D01*
X4441190Y5378957D02*
G01*
X4490465Y5378957D01*
X4506722Y5373370D01*
X4512056Y5368036D01*
X4517643Y5357113D01*
X4517643Y5346192D01*
X4512056Y5335270D01*
X4506722Y5329681D01*
X4490465Y5324347D01*
X4441190Y5324347D01*
X4479543Y5324347D02*
G01*
X4517643Y5264404D01*
X4553711Y5378957D02*
G01*
X4553711Y5264404D01*
X4553711Y5378957D02*
G01*
X4624577Y5378957D01*
X4553711Y5324347D02*
G01*
X4597145Y5324347D01*
X4553711Y5264404D02*
G01*
X4624577Y5264404D01*
X4660645Y5378957D02*
G01*
X4660645Y5264404D01*
X4660645Y5378957D02*
G01*
X4731511Y5378957D01*
X4660645Y5324347D02*
G01*
X4704079Y5324347D01*
X4328922Y5112257D02*
G01*
X4388865Y5112257D01*
X4356100Y5068570D01*
X4372609Y5068570D01*
X4383531Y5062981D01*
X4388865Y5057647D01*
X4394454Y5041392D01*
X4394454Y5030470D01*
X4388865Y5013960D01*
X4377943Y5003037D01*
X4361688Y4997704D01*
X4345177Y4997704D01*
X4328922Y5003037D01*
X4323334Y5008626D01*
X4318000Y5019547D01*
X4430268Y5112257D02*
G01*
X4473956Y4997704D01*
X4517643Y5112257D02*
G01*
X4473956Y4997704D01*
X4564634Y5112257D02*
G01*
X4624577Y5112257D01*
X4591811Y5068570D01*
X4608068Y5068570D01*
X4618990Y5062981D01*
X4624577Y5057647D01*
X4629911Y5041392D01*
X4629911Y5030470D01*
X4624577Y5013960D01*
X4613656Y5003037D01*
X4597145Y4997704D01*
X4580890Y4997704D01*
X4564634Y5003037D01*
X4559045Y5008626D01*
X4553711Y5019547D01*
X4318000Y4858257D02*
G01*
X4361688Y4743704D01*
X4405375Y4858257D02*
G01*
X4361688Y4743704D01*
X4522977Y4830826D02*
G01*
X4517643Y4841747D01*
X4506722Y4852670D01*
X4495800Y4858257D01*
X4473956Y4858257D01*
X4463034Y4852670D01*
X4452111Y4841747D01*
X4446777Y4830826D01*
X4441190Y4814570D01*
X4441190Y4787392D01*
X4446777Y4770881D01*
X4452111Y4759960D01*
X4463034Y4749037D01*
X4473956Y4743704D01*
X4495800Y4743704D01*
X4506722Y4749037D01*
X4517643Y4759960D01*
X4522977Y4770881D01*
X4640834Y4830826D02*
G01*
X4635500Y4841747D01*
X4624577Y4852670D01*
X4613656Y4858257D01*
X4591811Y4858257D01*
X4580890Y4852670D01*
X4569968Y4841747D01*
X4564634Y4830826D01*
X4559045Y4814570D01*
X4559045Y4787392D01*
X4564634Y4770881D01*
X4569968Y4759960D01*
X4580890Y4749037D01*
X4591811Y4743704D01*
X4613656Y4743704D01*
X4624577Y4749037D01*
X4635500Y4759960D01*
X4640834Y4770881D01*
X5885688Y9176258D02*
G01*
X5842000Y9061704D01*
X5885688Y9176258D02*
G01*
X5929375Y9061704D01*
X5858256Y9099804D02*
G01*
X5912865Y9099804D01*
X5997956Y9176258D02*
G01*
X5981700Y9170670D01*
X5970777Y9154413D01*
X5965190Y9126981D01*
X5965190Y9110726D01*
X5970777Y9083547D01*
X5981700Y9067037D01*
X5997956Y9061704D01*
X6008877Y9061704D01*
X6025388Y9067037D01*
X6036056Y9083547D01*
X6041643Y9110726D01*
X6041643Y9126981D01*
X6036056Y9154413D01*
X6025388Y9170670D01*
X6008877Y9176258D01*
X5997956Y9176258D01*
X6175756Y9198102D02*
G01*
X6077711Y9023350D01*
X6211824Y9176258D02*
G01*
X6211824Y9061704D01*
X6280658Y9176258D02*
G01*
X6269736Y9170670D01*
X6258813Y9159747D01*
X6253225Y9148826D01*
X6247891Y9132570D01*
X6247891Y9105392D01*
X6253225Y9088881D01*
X6258813Y9077960D01*
X6269736Y9067037D01*
X6280658Y9061704D01*
X6302247Y9061704D01*
X6313170Y9067037D01*
X6324091Y9077960D01*
X6329679Y9088881D01*
X6335013Y9105392D01*
X6335013Y9132570D01*
X6329679Y9148826D01*
X6324091Y9159747D01*
X6313170Y9170670D01*
X6302247Y9176258D01*
X6280658Y9176258D01*
X6382004Y9176258D02*
G01*
X6441947Y9176258D01*
X6409181Y9132570D01*
X6425691Y9132570D01*
X6436613Y9126981D01*
X6441947Y9121647D01*
X6447536Y9105392D01*
X6447536Y9094470D01*
X6441947Y9077960D01*
X6431025Y9067037D01*
X6414770Y9061704D01*
X6398259Y9061704D01*
X6382004Y9067037D01*
X6376670Y9072626D01*
X6371081Y9083547D01*
X6548881Y9159747D02*
G01*
X6543547Y9170670D01*
X6527038Y9176258D01*
X6516115Y9176258D01*
X6499859Y9170670D01*
X6488938Y9154413D01*
X6483350Y9126981D01*
X6483350Y9099804D01*
X6488938Y9077960D01*
X6499859Y9067037D01*
X6516115Y9061704D01*
X6521704Y9061704D01*
X6537959Y9067037D01*
X6548881Y9077960D01*
X6554470Y9094470D01*
X6554470Y9099804D01*
X6548881Y9116313D01*
X6537959Y9126981D01*
X6521704Y9132570D01*
X6516115Y9132570D01*
X6499859Y9126981D01*
X6488938Y9116313D01*
X6483350Y9099804D01*
X5936488Y8922258D02*
G01*
X5892800Y8807704D01*
X5936488Y8922258D02*
G01*
X5980175Y8807704D01*
X5909056Y8845804D02*
G01*
X5963665Y8845804D01*
X6015990Y8900413D02*
G01*
X6026911Y8905747D01*
X6043422Y8922258D01*
X6043422Y8807704D01*
X6177534Y8944102D02*
G01*
X6079236Y8769350D01*
X6213602Y8922258D02*
G01*
X6213602Y8807704D01*
X6282181Y8922258D02*
G01*
X6271259Y8916670D01*
X6260338Y8905747D01*
X6255004Y8894826D01*
X6249415Y8878570D01*
X6249415Y8851392D01*
X6255004Y8834881D01*
X6260338Y8823960D01*
X6271259Y8813037D01*
X6282181Y8807704D01*
X6304025Y8807704D01*
X6314947Y8813037D01*
X6325870Y8823960D01*
X6331458Y8834881D01*
X6336791Y8851392D01*
X6336791Y8878570D01*
X6331458Y8894826D01*
X6325870Y8905747D01*
X6314947Y8916670D01*
X6304025Y8922258D01*
X6282181Y8922258D01*
X6383781Y8922258D02*
G01*
X6443725Y8922258D01*
X6410959Y8878570D01*
X6427470Y8878570D01*
X6438138Y8872981D01*
X6443725Y8867647D01*
X6449059Y8851392D01*
X6449059Y8840470D01*
X6443725Y8823960D01*
X6432804Y8813037D01*
X6416547Y8807704D01*
X6400038Y8807704D01*
X6383781Y8813037D01*
X6378193Y8818626D01*
X6372859Y8829547D01*
X6555993Y8883904D02*
G01*
X6550659Y8867647D01*
X6539738Y8856726D01*
X6523227Y8851392D01*
X6517893Y8851392D01*
X6501638Y8856726D01*
X6490715Y8867647D01*
X6485127Y8883904D01*
X6485127Y8889492D01*
X6490715Y8905747D01*
X6501638Y8916670D01*
X6517893Y8922258D01*
X6523227Y8922258D01*
X6539738Y8916670D01*
X6550659Y8905747D01*
X6555993Y8883904D01*
X6555993Y8856726D01*
X6550659Y8829547D01*
X6539738Y8813037D01*
X6523227Y8807704D01*
X6512559Y8807704D01*
X6496050Y8813037D01*
X6490715Y8823960D01*
X5872988Y8668258D02*
G01*
X5829300Y8553704D01*
X5872988Y8668258D02*
G01*
X5916675Y8553704D01*
X5845556Y8591804D02*
G01*
X5900165Y8591804D01*
X5958077Y8640826D02*
G01*
X5958077Y8646413D01*
X5963411Y8657336D01*
X5969000Y8662670D01*
X5979922Y8668258D01*
X6001765Y8668258D01*
X6012688Y8662670D01*
X6018022Y8657336D01*
X6023356Y8646413D01*
X6023356Y8635492D01*
X6018022Y8624570D01*
X6007100Y8608313D01*
X5952490Y8553704D01*
X6028943Y8553704D01*
X6163056Y8690102D02*
G01*
X6065011Y8515350D01*
X6199124Y8668258D02*
G01*
X6199124Y8553704D01*
X6267958Y8668258D02*
G01*
X6257036Y8662670D01*
X6246113Y8651747D01*
X6240525Y8640826D01*
X6235191Y8624570D01*
X6235191Y8597392D01*
X6240525Y8580881D01*
X6246113Y8569960D01*
X6257036Y8559037D01*
X6267958Y8553704D01*
X6289547Y8553704D01*
X6300470Y8559037D01*
X6311391Y8569960D01*
X6316979Y8580881D01*
X6322313Y8597392D01*
X6322313Y8624570D01*
X6316979Y8640826D01*
X6311391Y8651747D01*
X6300470Y8662670D01*
X6289547Y8668258D01*
X6267958Y8668258D01*
X6369304Y8668258D02*
G01*
X6429247Y8668258D01*
X6396481Y8624570D01*
X6412991Y8624570D01*
X6423913Y8618981D01*
X6429247Y8613647D01*
X6434836Y8597392D01*
X6434836Y8586470D01*
X6429247Y8569960D01*
X6418325Y8559037D01*
X6402070Y8553704D01*
X6385559Y8553704D01*
X6369304Y8559037D01*
X6363970Y8564626D01*
X6358381Y8575547D01*
X6525259Y8668258D02*
G01*
X6470650Y8591804D01*
X6552691Y8591804D01*
X6525259Y8668258D02*
G01*
X6525259Y8553704D01*
X5872988Y8414258D02*
G01*
X5829300Y8299704D01*
X5872988Y8414258D02*
G01*
X5916675Y8299704D01*
X5845556Y8337804D02*
G01*
X5900165Y8337804D01*
X5963411Y8414258D02*
G01*
X6023356Y8414258D01*
X5990843Y8370570D01*
X6007100Y8370570D01*
X6018022Y8364981D01*
X6023356Y8359647D01*
X6028943Y8343392D01*
X6028943Y8332470D01*
X6023356Y8315960D01*
X6012688Y8305037D01*
X5996177Y8299704D01*
X5979922Y8299704D01*
X5963411Y8305037D01*
X5958077Y8310626D01*
X5952490Y8321547D01*
X6163056Y8436102D02*
G01*
X6065011Y8261350D01*
X6199124Y8414258D02*
G01*
X6199124Y8299704D01*
X6267958Y8414258D02*
G01*
X6257036Y8408670D01*
X6246113Y8397747D01*
X6240525Y8386826D01*
X6235191Y8370570D01*
X6235191Y8343392D01*
X6240525Y8326881D01*
X6246113Y8315960D01*
X6257036Y8305037D01*
X6267958Y8299704D01*
X6289547Y8299704D01*
X6300470Y8305037D01*
X6311391Y8315960D01*
X6316979Y8326881D01*
X6322313Y8343392D01*
X6322313Y8370570D01*
X6316979Y8386826D01*
X6311391Y8397747D01*
X6300470Y8408670D01*
X6289547Y8414258D01*
X6267958Y8414258D01*
X6369304Y8414258D02*
G01*
X6429247Y8414258D01*
X6396481Y8370570D01*
X6412991Y8370570D01*
X6423913Y8364981D01*
X6429247Y8359647D01*
X6434836Y8343392D01*
X6434836Y8332470D01*
X6429247Y8315960D01*
X6418325Y8305037D01*
X6402070Y8299704D01*
X6385559Y8299704D01*
X6369304Y8305037D01*
X6363970Y8310626D01*
X6358381Y8321547D01*
X6536181Y8414258D02*
G01*
X6481572Y8414258D01*
X6476238Y8364981D01*
X6481572Y8370570D01*
X6498081Y8375904D01*
X6514338Y8375904D01*
X6530847Y8370570D01*
X6541770Y8359647D01*
X6547104Y8343392D01*
X6547104Y8332470D01*
X6541770Y8315960D01*
X6530847Y8305037D01*
X6514338Y8299704D01*
X6498081Y8299704D01*
X6481572Y8305037D01*
X6476238Y8310626D01*
X6470650Y8321547D01*
X5923788Y8147558D02*
G01*
X5880100Y8033004D01*
X5923788Y8147558D02*
G01*
X5967475Y8033004D01*
X5896356Y8071104D02*
G01*
X5950965Y8071104D01*
X6057900Y8147558D02*
G01*
X6003290Y8071104D01*
X6085077Y8071104D01*
X6057900Y8147558D02*
G01*
X6057900Y8033004D01*
X6219443Y8169402D02*
G01*
X6121145Y7994650D01*
X6255258Y8147558D02*
G01*
X6255258Y8033004D01*
X6324091Y8147558D02*
G01*
X6313170Y8141970D01*
X6302247Y8131047D01*
X6296913Y8120126D01*
X6291325Y8103870D01*
X6291325Y8076692D01*
X6296913Y8060181D01*
X6302247Y8049260D01*
X6313170Y8038337D01*
X6324091Y8033004D01*
X6345936Y8033004D01*
X6356858Y8038337D01*
X6367779Y8049260D01*
X6373113Y8060181D01*
X6378702Y8076692D01*
X6378702Y8103870D01*
X6373113Y8120126D01*
X6367779Y8131047D01*
X6356858Y8141970D01*
X6345936Y8147558D01*
X6324091Y8147558D01*
X6414770Y8125713D02*
G01*
X6425438Y8131047D01*
X6441947Y8147558D01*
X6441947Y8033004D01*
X6543293Y8147558D02*
G01*
X6488938Y8147558D01*
X6483350Y8098281D01*
X6488938Y8103870D01*
X6505193Y8109204D01*
X6521450Y8109204D01*
X6537959Y8103870D01*
X6548881Y8092947D01*
X6554215Y8076692D01*
X6554215Y8065770D01*
X6548881Y8049260D01*
X6537959Y8038337D01*
X6521450Y8033004D01*
X6505193Y8033004D01*
X6488938Y8038337D01*
X6483350Y8043926D01*
X6478015Y8054847D01*
X6362700Y7906258D02*
G01*
X6362700Y7791704D01*
X6362700Y7906258D02*
G01*
X6439154Y7791704D01*
X6439154Y7906258D02*
G01*
X6439154Y7791704D01*
X6556756Y7878826D02*
G01*
X6551422Y7889747D01*
X6540500Y7900670D01*
X6529577Y7906258D01*
X6507734Y7906258D01*
X6496811Y7900670D01*
X6485890Y7889747D01*
X6480556Y7878826D01*
X6474968Y7862570D01*
X6474968Y7835392D01*
X6480556Y7818881D01*
X6485890Y7807960D01*
X6496811Y7797037D01*
X6507734Y7791704D01*
X6529577Y7791704D01*
X6540500Y7797037D01*
X6551422Y7807960D01*
X6556756Y7818881D01*
X6324600Y7652258D02*
G01*
X6324600Y7537704D01*
X6393434Y7652258D02*
G01*
X6382511Y7646670D01*
X6371590Y7635747D01*
X6366002Y7624826D01*
X6360668Y7608570D01*
X6360668Y7581392D01*
X6366002Y7564881D01*
X6371590Y7553960D01*
X6382511Y7543037D01*
X6393434Y7537704D01*
X6415024Y7537704D01*
X6425945Y7543037D01*
X6436868Y7553960D01*
X6442456Y7564881D01*
X6447790Y7581392D01*
X6447790Y7608570D01*
X6442456Y7624826D01*
X6436868Y7635747D01*
X6425945Y7646670D01*
X6415024Y7652258D01*
X6393434Y7652258D01*
X6516624Y7652258D02*
G01*
X6500113Y7646670D01*
X6489445Y7630413D01*
X6483858Y7602981D01*
X6483858Y7586726D01*
X6489445Y7559547D01*
X6500113Y7543037D01*
X6516624Y7537704D01*
X6527545Y7537704D01*
X6543802Y7543037D01*
X6554724Y7559547D01*
X6560311Y7586726D01*
X6560311Y7602981D01*
X6554724Y7630413D01*
X6543802Y7646670D01*
X6527545Y7652258D01*
X6516624Y7652258D01*
X5854954Y7381747D02*
G01*
X5844031Y7392670D01*
X5827522Y7398258D01*
X5805677Y7398258D01*
X5789422Y7392670D01*
X5778500Y7381747D01*
X5778500Y7370826D01*
X5783834Y7359904D01*
X5789422Y7354570D01*
X5800343Y7348981D01*
X5833109Y7338313D01*
X5844031Y7332726D01*
X5849365Y7327392D01*
X5854954Y7316470D01*
X5854954Y7299960D01*
X5844031Y7289037D01*
X5827522Y7283704D01*
X5805677Y7283704D01*
X5789422Y7289037D01*
X5778500Y7299960D01*
X5972556Y7370826D02*
G01*
X5967222Y7381747D01*
X5956300Y7392670D01*
X5945377Y7398258D01*
X5923534Y7398258D01*
X5912611Y7392670D01*
X5901690Y7381747D01*
X5896356Y7370826D01*
X5890768Y7354570D01*
X5890768Y7327392D01*
X5896356Y7310881D01*
X5901690Y7299960D01*
X5912611Y7289037D01*
X5923534Y7283704D01*
X5945377Y7283704D01*
X5956300Y7289037D01*
X5967222Y7299960D01*
X5972556Y7310881D01*
X6008624Y7398258D02*
G01*
X6008624Y7283704D01*
X6085077Y7398258D02*
G01*
X6008624Y7321804D01*
X6036056Y7348981D02*
G01*
X6085077Y7283704D01*
X6219190Y7420102D02*
G01*
X6121145Y7245350D01*
X6255258Y7398258D02*
G01*
X6255258Y7283704D01*
X6323838Y7398258D02*
G01*
X6313170Y7392670D01*
X6302247Y7381747D01*
X6296659Y7370826D01*
X6291325Y7354570D01*
X6291325Y7327392D01*
X6296659Y7310881D01*
X6302247Y7299960D01*
X6313170Y7289037D01*
X6323838Y7283704D01*
X6345681Y7283704D01*
X6356604Y7289037D01*
X6367525Y7299960D01*
X6373113Y7310881D01*
X6378447Y7327392D01*
X6378447Y7354570D01*
X6373113Y7370826D01*
X6367525Y7381747D01*
X6356604Y7392670D01*
X6345681Y7398258D01*
X6323838Y7398258D01*
X6414515Y7376413D02*
G01*
X6425438Y7381747D01*
X6441693Y7398258D01*
X6441693Y7283704D01*
X6504940Y7398258D02*
G01*
X6488684Y7392670D01*
X6483350Y7381747D01*
X6483350Y7370826D01*
X6488684Y7359904D01*
X6499606Y7354570D01*
X6521450Y7348981D01*
X6537706Y7343647D01*
X6548627Y7332726D01*
X6554215Y7321804D01*
X6554215Y7305547D01*
X6548627Y7294626D01*
X6543293Y7289037D01*
X6526784Y7283704D01*
X6504940Y7283704D01*
X6488684Y7289037D01*
X6483350Y7294626D01*
X6477761Y7305547D01*
X6477761Y7321804D01*
X6483350Y7332726D01*
X6494018Y7343647D01*
X6510527Y7348981D01*
X6532372Y7354570D01*
X6543293Y7359904D01*
X6548627Y7370826D01*
X6548627Y7381747D01*
X6543293Y7392670D01*
X6526784Y7398258D01*
X6504940Y7398258D01*
X5676900Y7144258D02*
G01*
X5676900Y7029704D01*
X5676900Y7144258D02*
G01*
X5720588Y7029704D01*
X5764275Y7144258D02*
G01*
X5720588Y7029704D01*
X5764275Y7144258D02*
G01*
X5764275Y7029704D01*
X5832856Y7144258D02*
G01*
X5821934Y7138670D01*
X5811011Y7127747D01*
X5805677Y7116826D01*
X5800090Y7100570D01*
X5800090Y7073392D01*
X5805677Y7056881D01*
X5811011Y7045960D01*
X5821934Y7035037D01*
X5832856Y7029704D01*
X5854700Y7029704D01*
X5865622Y7035037D01*
X5876543Y7045960D01*
X5881877Y7056881D01*
X5887465Y7073392D01*
X5887465Y7100570D01*
X5881877Y7116826D01*
X5876543Y7127747D01*
X5865622Y7138670D01*
X5854700Y7144258D01*
X5832856Y7144258D01*
X5999734Y7127747D02*
G01*
X5988811Y7138670D01*
X5972556Y7144258D01*
X5950711Y7144258D01*
X5934456Y7138670D01*
X5923534Y7127747D01*
X5923534Y7116826D01*
X5928868Y7105904D01*
X5934456Y7100570D01*
X5945377Y7094981D01*
X5977890Y7084313D01*
X5988811Y7078726D01*
X5994400Y7073392D01*
X5999734Y7062470D01*
X5999734Y7045960D01*
X5988811Y7035037D01*
X5972556Y7029704D01*
X5950711Y7029704D01*
X5934456Y7035037D01*
X5923534Y7045960D01*
X6035802Y7144258D02*
G01*
X6035802Y7029704D01*
X6169913Y7166102D02*
G01*
X6071870Y6991350D01*
X6205981Y7144258D02*
G01*
X6205981Y7029704D01*
X6274815Y7144258D02*
G01*
X6263893Y7138670D01*
X6252972Y7127747D01*
X6247384Y7116826D01*
X6242050Y7100570D01*
X6242050Y7073392D01*
X6247384Y7056881D01*
X6252972Y7045960D01*
X6263893Y7035037D01*
X6274815Y7029704D01*
X6296659Y7029704D01*
X6307327Y7035037D01*
X6318250Y7045960D01*
X6323838Y7056881D01*
X6329172Y7073392D01*
X6329172Y7100570D01*
X6323838Y7116826D01*
X6318250Y7127747D01*
X6307327Y7138670D01*
X6296659Y7144258D01*
X6274815Y7144258D01*
X6370827Y7116826D02*
G01*
X6370827Y7122413D01*
X6376161Y7133336D01*
X6381750Y7138670D01*
X6392418Y7144258D01*
X6414261Y7144258D01*
X6425184Y7138670D01*
X6430772Y7133336D01*
X6436106Y7122413D01*
X6436106Y7111492D01*
X6430772Y7100570D01*
X6419850Y7084313D01*
X6365240Y7029704D01*
X6441693Y7029704D01*
X6488429Y7144258D02*
G01*
X6548627Y7144258D01*
X6515861Y7100570D01*
X6532118Y7100570D01*
X6543040Y7094981D01*
X6548627Y7089647D01*
X6553961Y7073392D01*
X6553961Y7062470D01*
X6548627Y7045960D01*
X6537706Y7035037D01*
X6521195Y7029704D01*
X6504940Y7029704D01*
X6488429Y7035037D01*
X6483095Y7040626D01*
X6477508Y7051547D01*
X5727700Y6890258D02*
G01*
X5727700Y6775704D01*
X5727700Y6890258D02*
G01*
X5771388Y6775704D01*
X5815075Y6890258D02*
G01*
X5771388Y6775704D01*
X5815075Y6890258D02*
G01*
X5815075Y6775704D01*
X5850890Y6890258D02*
G01*
X5850890Y6775704D01*
X5963411Y6873747D02*
G01*
X5952490Y6884670D01*
X5935979Y6890258D01*
X5914136Y6890258D01*
X5897879Y6884670D01*
X5886958Y6873747D01*
X5886958Y6862826D01*
X5892545Y6851904D01*
X5897879Y6846570D01*
X5908802Y6840981D01*
X5941568Y6830313D01*
X5952490Y6824726D01*
X5957824Y6819392D01*
X5963411Y6808470D01*
X5963411Y6791960D01*
X5952490Y6781037D01*
X5935979Y6775704D01*
X5914136Y6775704D01*
X5897879Y6781037D01*
X5886958Y6791960D01*
X6031991Y6890258D02*
G01*
X6021070Y6884670D01*
X6010147Y6873747D01*
X6004813Y6862826D01*
X5999225Y6846570D01*
X5999225Y6819392D01*
X6004813Y6802881D01*
X6010147Y6791960D01*
X6021070Y6781037D01*
X6031991Y6775704D01*
X6053836Y6775704D01*
X6064758Y6781037D01*
X6075679Y6791960D01*
X6081268Y6802881D01*
X6086602Y6819392D01*
X6086602Y6846570D01*
X6081268Y6862826D01*
X6075679Y6873747D01*
X6064758Y6884670D01*
X6053836Y6890258D01*
X6031991Y6890258D01*
X6220713Y6912102D02*
G01*
X6122670Y6737350D01*
X6256781Y6890258D02*
G01*
X6256781Y6775704D01*
X6325615Y6890258D02*
G01*
X6314693Y6884670D01*
X6303772Y6873747D01*
X6298184Y6862826D01*
X6292850Y6846570D01*
X6292850Y6819392D01*
X6298184Y6802881D01*
X6303772Y6791960D01*
X6314693Y6781037D01*
X6325615Y6775704D01*
X6347459Y6775704D01*
X6358127Y6781037D01*
X6369050Y6791960D01*
X6374638Y6802881D01*
X6379972Y6819392D01*
X6379972Y6846570D01*
X6374638Y6862826D01*
X6369050Y6873747D01*
X6358127Y6884670D01*
X6347459Y6890258D01*
X6325615Y6890258D01*
X6416040Y6868413D02*
G01*
X6426961Y6873747D01*
X6443218Y6890258D01*
X6443218Y6775704D01*
X6550152Y6851904D02*
G01*
X6544818Y6835647D01*
X6533895Y6824726D01*
X6517640Y6819392D01*
X6512052Y6819392D01*
X6495795Y6824726D01*
X6484874Y6835647D01*
X6479286Y6851904D01*
X6479286Y6857492D01*
X6484874Y6873747D01*
X6495795Y6884670D01*
X6512052Y6890258D01*
X6517640Y6890258D01*
X6533895Y6884670D01*
X6544818Y6873747D01*
X6550152Y6851904D01*
X6550152Y6824726D01*
X6544818Y6797547D01*
X6533895Y6781037D01*
X6517640Y6775704D01*
X6506718Y6775704D01*
X6490208Y6781037D01*
X6484874Y6791960D01*
X5842254Y6619747D02*
G01*
X5831331Y6630670D01*
X5814822Y6636258D01*
X5792977Y6636258D01*
X5776722Y6630670D01*
X5765800Y6619747D01*
X5765800Y6608826D01*
X5771134Y6597904D01*
X5776722Y6592570D01*
X5787643Y6586981D01*
X5820409Y6576313D01*
X5831331Y6570726D01*
X5836665Y6565392D01*
X5842254Y6554470D01*
X5842254Y6537960D01*
X5831331Y6527037D01*
X5814822Y6521704D01*
X5792977Y6521704D01*
X5776722Y6527037D01*
X5765800Y6537960D01*
X5878068Y6636258D02*
G01*
X5878068Y6521704D01*
X5878068Y6636258D02*
G01*
X5916422Y6636258D01*
X5932677Y6630670D01*
X5943600Y6619747D01*
X5949188Y6608826D01*
X5954522Y6592570D01*
X5954522Y6565392D01*
X5949188Y6548881D01*
X5943600Y6537960D01*
X5932677Y6527037D01*
X5916422Y6521704D01*
X5878068Y6521704D01*
X6034277Y6636258D02*
G01*
X5990590Y6521704D01*
X6034277Y6636258D02*
G01*
X6077711Y6521704D01*
X6006845Y6559804D02*
G01*
X6061456Y6559804D01*
X6212077Y6658102D02*
G01*
X6113779Y6483350D01*
X6247891Y6636258D02*
G01*
X6247891Y6521704D01*
X6316725Y6636258D02*
G01*
X6305804Y6630670D01*
X6294881Y6619747D01*
X6289547Y6608826D01*
X6283959Y6592570D01*
X6283959Y6565392D01*
X6289547Y6548881D01*
X6294881Y6537960D01*
X6305804Y6527037D01*
X6316725Y6521704D01*
X6338570Y6521704D01*
X6349491Y6527037D01*
X6360413Y6537960D01*
X6365747Y6548881D01*
X6371336Y6565392D01*
X6371336Y6592570D01*
X6365747Y6608826D01*
X6360413Y6619747D01*
X6349491Y6630670D01*
X6338570Y6636258D01*
X6316725Y6636258D01*
X6412738Y6608826D02*
G01*
X6412738Y6614413D01*
X6418072Y6625336D01*
X6423659Y6630670D01*
X6434581Y6636258D01*
X6456425Y6636258D01*
X6467347Y6630670D01*
X6472681Y6625336D01*
X6478270Y6614413D01*
X6478270Y6603492D01*
X6472681Y6592570D01*
X6461759Y6576313D01*
X6407150Y6521704D01*
X6483604Y6521704D01*
X6519672Y6614413D02*
G01*
X6530593Y6619747D01*
X6546850Y6636258D01*
X6546850Y6521704D01*
X5816854Y6365747D02*
G01*
X5805931Y6376670D01*
X5789422Y6382257D01*
X5767577Y6382257D01*
X5751322Y6376670D01*
X5740400Y6365747D01*
X5740400Y6354826D01*
X5745734Y6343904D01*
X5751322Y6338570D01*
X5762243Y6332981D01*
X5795009Y6322313D01*
X5805931Y6316726D01*
X5811265Y6311392D01*
X5816854Y6300470D01*
X5816854Y6283960D01*
X5805931Y6273037D01*
X5789422Y6267704D01*
X5767577Y6267704D01*
X5751322Y6273037D01*
X5740400Y6283960D01*
X5934456Y6354826D02*
G01*
X5929122Y6365747D01*
X5918200Y6376670D01*
X5907277Y6382257D01*
X5885434Y6382257D01*
X5874511Y6376670D01*
X5863590Y6365747D01*
X5858256Y6354826D01*
X5852668Y6338570D01*
X5852668Y6311392D01*
X5858256Y6294881D01*
X5863590Y6283960D01*
X5874511Y6273037D01*
X5885434Y6267704D01*
X5907277Y6267704D01*
X5918200Y6273037D01*
X5929122Y6283960D01*
X5934456Y6294881D01*
X5970524Y6382257D02*
G01*
X5970524Y6267704D01*
X5970524Y6267704D02*
G01*
X6036056Y6267704D01*
X6170168Y6404102D02*
G01*
X6072124Y6229350D01*
X6206236Y6382257D02*
G01*
X6206236Y6267704D01*
X6275070Y6382257D02*
G01*
X6264147Y6376670D01*
X6253225Y6365747D01*
X6247638Y6354826D01*
X6242304Y6338570D01*
X6242304Y6311392D01*
X6247638Y6294881D01*
X6253225Y6283960D01*
X6264147Y6273037D01*
X6275070Y6267704D01*
X6296659Y6267704D01*
X6307581Y6273037D01*
X6318504Y6283960D01*
X6324091Y6294881D01*
X6329425Y6311392D01*
X6329425Y6338570D01*
X6324091Y6354826D01*
X6318504Y6365747D01*
X6307581Y6376670D01*
X6296659Y6382257D01*
X6275070Y6382257D01*
X6370827Y6354826D02*
G01*
X6370827Y6360413D01*
X6376415Y6371336D01*
X6381750Y6376670D01*
X6392672Y6382257D01*
X6414515Y6382257D01*
X6425438Y6376670D01*
X6431025Y6371336D01*
X6436359Y6360413D01*
X6436359Y6349492D01*
X6431025Y6338570D01*
X6420104Y6322313D01*
X6365493Y6267704D01*
X6441947Y6267704D01*
X6483350Y6354826D02*
G01*
X6483350Y6360413D01*
X6488684Y6371336D01*
X6494272Y6376670D01*
X6505193Y6382257D01*
X6527038Y6382257D01*
X6537959Y6376670D01*
X6543293Y6371336D01*
X6548881Y6360413D01*
X6548881Y6349492D01*
X6543293Y6338570D01*
X6532372Y6322313D01*
X6477761Y6267704D01*
X6554215Y6267704D01*
X5676900Y6128257D02*
G01*
X5676900Y6013704D01*
X5676900Y6128257D02*
G01*
X5725922Y6128257D01*
X5742431Y6122670D01*
X5747765Y6117336D01*
X5753354Y6106413D01*
X5753354Y6095492D01*
X5747765Y6084570D01*
X5742431Y6078981D01*
X5725922Y6073647D01*
X5676900Y6073647D02*
G01*
X5725922Y6073647D01*
X5742431Y6068313D01*
X5747765Y6062726D01*
X5753354Y6051804D01*
X5753354Y6035547D01*
X5747765Y6024626D01*
X5742431Y6019037D01*
X5725922Y6013704D01*
X5676900Y6013704D01*
X5870956Y6100826D02*
G01*
X5865622Y6111747D01*
X5854700Y6122670D01*
X5843777Y6128257D01*
X5821934Y6128257D01*
X5811011Y6122670D01*
X5800090Y6111747D01*
X5794756Y6100826D01*
X5789168Y6084570D01*
X5789168Y6057392D01*
X5794756Y6040881D01*
X5800090Y6029960D01*
X5811011Y6019037D01*
X5821934Y6013704D01*
X5843777Y6013704D01*
X5854700Y6019037D01*
X5865622Y6029960D01*
X5870956Y6040881D01*
X5907024Y6128257D02*
G01*
X5907024Y6013704D01*
X5907024Y6013704D02*
G01*
X5972556Y6013704D01*
X6008624Y6128257D02*
G01*
X6008624Y6013704D01*
X6084824Y6128257D02*
G01*
X6008624Y6051804D01*
X6035802Y6078981D02*
G01*
X6084824Y6013704D01*
X6219190Y6150102D02*
G01*
X6120891Y5975350D01*
X6255004Y6128257D02*
G01*
X6255004Y6013704D01*
X6323838Y6128257D02*
G01*
X6312915Y6122670D01*
X6301993Y6111747D01*
X6296659Y6100826D01*
X6291072Y6084570D01*
X6291072Y6057392D01*
X6296659Y6040881D01*
X6301993Y6029960D01*
X6312915Y6019037D01*
X6323838Y6013704D01*
X6345681Y6013704D01*
X6356604Y6019037D01*
X6367525Y6029960D01*
X6372859Y6040881D01*
X6378447Y6057392D01*
X6378447Y6084570D01*
X6372859Y6100826D01*
X6367525Y6111747D01*
X6356604Y6122670D01*
X6345681Y6128257D01*
X6323838Y6128257D01*
X6414261Y6106413D02*
G01*
X6425184Y6111747D01*
X6441693Y6128257D01*
X6441693Y6013704D01*
X6532118Y6128257D02*
G01*
X6477508Y6051804D01*
X6559550Y6051804D01*
X6532118Y6128257D02*
G01*
X6532118Y6013704D01*
X5664200Y5874257D02*
G01*
X5664200Y5759704D01*
X5664200Y5874257D02*
G01*
X5707888Y5759704D01*
X5751575Y5874257D02*
G01*
X5707888Y5759704D01*
X5751575Y5874257D02*
G01*
X5751575Y5759704D01*
X5869177Y5846826D02*
G01*
X5863843Y5857747D01*
X5852922Y5868670D01*
X5842000Y5874257D01*
X5820156Y5874257D01*
X5809234Y5868670D01*
X5798311Y5857747D01*
X5792977Y5846826D01*
X5787390Y5830570D01*
X5787390Y5803392D01*
X5792977Y5786881D01*
X5798311Y5775960D01*
X5809234Y5765037D01*
X5820156Y5759704D01*
X5842000Y5759704D01*
X5852922Y5765037D01*
X5863843Y5775960D01*
X5869177Y5786881D01*
X5905245Y5874257D02*
G01*
X5905245Y5759704D01*
X5905245Y5759704D02*
G01*
X5970777Y5759704D01*
X6006845Y5874257D02*
G01*
X6006845Y5759704D01*
X6083045Y5874257D02*
G01*
X6006845Y5797804D01*
X6034024Y5824981D02*
G01*
X6083045Y5759704D01*
X6217411Y5896102D02*
G01*
X6119113Y5721350D01*
X6253225Y5874257D02*
G01*
X6253225Y5759704D01*
X6322059Y5874257D02*
G01*
X6311138Y5868670D01*
X6300215Y5857747D01*
X6294627Y5846826D01*
X6289293Y5830570D01*
X6289293Y5803392D01*
X6294627Y5786881D01*
X6300215Y5775960D01*
X6311138Y5765037D01*
X6322059Y5759704D01*
X6343904Y5759704D01*
X6354825Y5765037D01*
X6365747Y5775960D01*
X6371081Y5786881D01*
X6376670Y5803392D01*
X6376670Y5830570D01*
X6371081Y5846826D01*
X6365747Y5857747D01*
X6354825Y5868670D01*
X6343904Y5874257D01*
X6322059Y5874257D01*
X6412484Y5852413D02*
G01*
X6423406Y5857747D01*
X6439915Y5874257D01*
X6439915Y5759704D01*
X6481318Y5846826D02*
G01*
X6481318Y5852413D01*
X6486652Y5863336D01*
X6492240Y5868670D01*
X6503161Y5874257D01*
X6525006Y5874257D01*
X6535927Y5868670D01*
X6541261Y5863336D01*
X6546850Y5852413D01*
X6546850Y5841492D01*
X6541261Y5830570D01*
X6530340Y5814313D01*
X6475729Y5759704D01*
X6552184Y5759704D01*
X5956300Y5620257D02*
G01*
X5956300Y5505704D01*
X5956300Y5620257D02*
G01*
X5994400Y5620257D01*
X6010909Y5614670D01*
X6021831Y5603747D01*
X6027165Y5592826D01*
X6032754Y5576570D01*
X6032754Y5549392D01*
X6027165Y5532881D01*
X6021831Y5521960D01*
X6010909Y5511037D01*
X5994400Y5505704D01*
X5956300Y5505704D01*
X6101334Y5620257D02*
G01*
X6085077Y5614670D01*
X6074156Y5598413D01*
X6068568Y5570981D01*
X6068568Y5554726D01*
X6074156Y5527547D01*
X6085077Y5511037D01*
X6101334Y5505704D01*
X6112256Y5505704D01*
X6128765Y5511037D01*
X6139688Y5527547D01*
X6145022Y5554726D01*
X6145022Y5570981D01*
X6139688Y5598413D01*
X6128765Y5614670D01*
X6112256Y5620257D01*
X6101334Y5620257D01*
X6279134Y5642102D02*
G01*
X6181090Y5467350D01*
X6315202Y5620257D02*
G01*
X6315202Y5505704D01*
X6384036Y5620257D02*
G01*
X6373113Y5614670D01*
X6362191Y5603747D01*
X6356604Y5592826D01*
X6351270Y5576570D01*
X6351270Y5549392D01*
X6356604Y5532881D01*
X6362191Y5521960D01*
X6373113Y5511037D01*
X6384036Y5505704D01*
X6405879Y5505704D01*
X6416547Y5511037D01*
X6427470Y5521960D01*
X6433058Y5532881D01*
X6438391Y5549392D01*
X6438391Y5576570D01*
X6433058Y5592826D01*
X6427470Y5603747D01*
X6416547Y5614670D01*
X6405879Y5620257D01*
X6384036Y5620257D01*
X6529070Y5620257D02*
G01*
X6474459Y5543804D01*
X6556247Y5543804D01*
X6529070Y5620257D02*
G01*
X6529070Y5505704D01*
X5956300Y5366257D02*
G01*
X5956300Y5251704D01*
X5956300Y5366257D02*
G01*
X5994400Y5366257D01*
X6010909Y5360670D01*
X6021831Y5349747D01*
X6027165Y5338826D01*
X6032754Y5322570D01*
X6032754Y5295392D01*
X6027165Y5278881D01*
X6021831Y5267960D01*
X6010909Y5257037D01*
X5994400Y5251704D01*
X5956300Y5251704D01*
X6068568Y5344413D02*
G01*
X6079490Y5349747D01*
X6096000Y5366257D01*
X6096000Y5251704D01*
X6230111Y5388102D02*
G01*
X6131813Y5213350D01*
X6266179Y5366257D02*
G01*
X6266179Y5251704D01*
X6334759Y5366257D02*
G01*
X6323838Y5360670D01*
X6312915Y5349747D01*
X6307581Y5338826D01*
X6301993Y5322570D01*
X6301993Y5295392D01*
X6307581Y5278881D01*
X6312915Y5267960D01*
X6323838Y5257037D01*
X6334759Y5251704D01*
X6356604Y5251704D01*
X6367525Y5257037D01*
X6378447Y5267960D01*
X6384036Y5278881D01*
X6389370Y5295392D01*
X6389370Y5322570D01*
X6384036Y5338826D01*
X6378447Y5349747D01*
X6367525Y5360670D01*
X6356604Y5366257D01*
X6334759Y5366257D01*
X6425438Y5344413D02*
G01*
X6436359Y5349747D01*
X6452615Y5366257D01*
X6452615Y5251704D01*
X6554215Y5349747D02*
G01*
X6548627Y5360670D01*
X6532372Y5366257D01*
X6521450Y5366257D01*
X6504940Y5360670D01*
X6494018Y5344413D01*
X6488684Y5316981D01*
X6488684Y5289804D01*
X6494018Y5267960D01*
X6504940Y5257037D01*
X6521450Y5251704D01*
X6526784Y5251704D01*
X6543293Y5257037D01*
X6554215Y5267960D01*
X6559550Y5284470D01*
X6559550Y5289804D01*
X6554215Y5306313D01*
X6543293Y5316981D01*
X6526784Y5322570D01*
X6521450Y5322570D01*
X6504940Y5316981D01*
X6494018Y5306313D01*
X6488684Y5289804D01*
X5676900Y5099557D02*
G01*
X5676900Y4985004D01*
X5676900Y4985004D02*
G01*
X5742431Y4985004D01*
X5778245Y5099557D02*
G01*
X5778245Y4985004D01*
X5778245Y5099557D02*
G01*
X5827522Y5099557D01*
X5843777Y5093970D01*
X5849365Y5088636D01*
X5854700Y5077713D01*
X5854700Y5066792D01*
X5849365Y5055870D01*
X5843777Y5050281D01*
X5827522Y5044947D01*
X5778245Y5044947D01*
X5816600Y5044947D02*
G01*
X5854700Y4985004D01*
X5972556Y5072126D02*
G01*
X5966968Y5083047D01*
X5956045Y5093970D01*
X5945377Y5099557D01*
X5923534Y5099557D01*
X5912611Y5093970D01*
X5901690Y5083047D01*
X5896102Y5072126D01*
X5890768Y5055870D01*
X5890768Y5028692D01*
X5896102Y5012181D01*
X5901690Y5001260D01*
X5912611Y4990337D01*
X5923534Y4985004D01*
X5945377Y4985004D01*
X5956045Y4990337D01*
X5966968Y5001260D01*
X5972556Y5012181D01*
X6008624Y5099557D02*
G01*
X6008624Y4985004D01*
X6084824Y5099557D02*
G01*
X6008624Y5023104D01*
X6035802Y5050281D02*
G01*
X6084824Y4985004D01*
X6219190Y5121402D02*
G01*
X6120891Y4946650D01*
X6255004Y5099557D02*
G01*
X6255004Y4985004D01*
X6323838Y5099557D02*
G01*
X6312915Y5093970D01*
X6301993Y5083047D01*
X6296659Y5072126D01*
X6291072Y5055870D01*
X6291072Y5028692D01*
X6296659Y5012181D01*
X6301993Y5001260D01*
X6312915Y4990337D01*
X6323838Y4985004D01*
X6345681Y4985004D01*
X6356604Y4990337D01*
X6367525Y5001260D01*
X6372859Y5012181D01*
X6378447Y5028692D01*
X6378447Y5055870D01*
X6372859Y5072126D01*
X6367525Y5083047D01*
X6356604Y5093970D01*
X6345681Y5099557D01*
X6323838Y5099557D01*
X6414261Y5077713D02*
G01*
X6425184Y5083047D01*
X6441693Y5099557D01*
X6441693Y4985004D01*
X6553961Y5099557D02*
G01*
X6499352Y4985004D01*
X6477508Y5099557D02*
G01*
X6553961Y5099557D01*
X5898131Y4858257D02*
G01*
X5898131Y4743704D01*
X5898131Y4858257D02*
G01*
X5947153Y4858257D01*
X5963663Y4852670D01*
X5968997Y4847336D01*
X5974585Y4836413D01*
X5974585Y4825492D01*
X5968997Y4814570D01*
X5963663Y4808981D01*
X5947153Y4803647D01*
X5898131Y4803647D01*
X5936231Y4803647D02*
G01*
X5974585Y4743704D01*
X6086853Y4841747D02*
G01*
X6075931Y4852670D01*
X6059675Y4858257D01*
X6037831Y4858257D01*
X6021321Y4852670D01*
X6010399Y4841747D01*
X6010399Y4830826D01*
X6015987Y4819904D01*
X6021321Y4814570D01*
X6032243Y4808981D01*
X6065009Y4798313D01*
X6075931Y4792726D01*
X6081519Y4787392D01*
X6086853Y4776470D01*
X6086853Y4759960D01*
X6075931Y4749037D01*
X6059675Y4743704D01*
X6037831Y4743704D01*
X6021321Y4749037D01*
X6010399Y4759960D01*
X6161021Y4858257D02*
G01*
X6161021Y4743704D01*
X6122921Y4858257D02*
G01*
X6199121Y4858257D01*
X6333487Y4880102D02*
G01*
X6235189Y4705350D01*
X6369301Y4858257D02*
G01*
X6369301Y4743704D01*
X6369301Y4858257D02*
G01*
X6440421Y4858257D01*
X6369301Y4803647D02*
G01*
X6412989Y4803647D01*
X6369301Y4743704D02*
G01*
X6440421Y4743704D01*
X6476235Y4858257D02*
G01*
X6476235Y4743704D01*
X6476235Y4858257D02*
G01*
X6552689Y4743704D01*
X6552689Y4858257D02*
G01*
X6552689Y4743704D01*
D21*
X5397500Y9767315D02*
G01*
X5397500Y9658350D01*
X5397500Y9767315D02*
G01*
X5439156Y9658350D01*
X5480558Y9767315D02*
G01*
X5439156Y9658350D01*
X5480558Y9767315D02*
G01*
X5480558Y9658350D01*
X5514847Y9746487D02*
G01*
X5525261Y9751821D01*
X5541009Y9767315D01*
X5541009Y9658350D01*
D24*
X3372611Y8277225D02*
G01*
X3277108Y8277225D01*
X3277108Y8277225D02*
G01*
X3277108Y8222614D01*
X3372611Y8192643D02*
G01*
X3277108Y8156320D01*
X3372611Y8119998D02*
G01*
X3277108Y8156320D01*
X3354577Y8090027D02*
G01*
X3359150Y8080883D01*
X3372611Y8067167D01*
X3277108Y8067167D01*
X3136138Y8305800D02*
G01*
X3040634Y8305800D01*
X3040634Y8305800D02*
G01*
X3040634Y8251189D01*
X3136138Y8221218D02*
G01*
X3040634Y8184895D01*
X3136138Y8148573D02*
G01*
X3040634Y8184895D01*
X3113531Y8114029D02*
G01*
X3118104Y8114029D01*
X3126993Y8109458D01*
X3131565Y8104886D01*
X3136138Y8095742D01*
X3136138Y8077708D01*
X3131565Y8068563D01*
X3126993Y8063992D01*
X3118104Y8059420D01*
X3108959Y8059420D01*
X3099815Y8063992D01*
X3086100Y8073136D01*
X3040634Y8118602D01*
X3040634Y8054847D01*
X2592326Y7751953D02*
G01*
X2601470Y7756270D01*
X2610614Y7765414D01*
X2615186Y7774559D01*
X2615186Y7792846D01*
X2610614Y7801737D01*
X2601470Y7810880D01*
X2592326Y7815453D01*
X2578864Y7820025D01*
X2556004Y7820025D01*
X2542288Y7815453D01*
X2533398Y7810880D01*
X2524254Y7801737D01*
X2519682Y7792846D01*
X2519682Y7774559D01*
X2524254Y7765414D01*
X2533398Y7756270D01*
X2542288Y7751953D01*
X2556004Y7751953D01*
X2556004Y7774559D02*
G01*
X2556004Y7751953D01*
X2615186Y7721727D02*
G01*
X2519682Y7721727D01*
X2615186Y7721727D02*
G01*
X2519682Y7658227D01*
X2615186Y7658227D02*
G01*
X2519682Y7658227D01*
X2615186Y7628254D02*
G01*
X2519682Y7628254D01*
X2615186Y7628254D02*
G01*
X2615186Y7596504D01*
X2610614Y7582788D01*
X2601470Y7573645D01*
X2592326Y7569072D01*
X2578864Y7564501D01*
X2556004Y7564501D01*
X2542288Y7569072D01*
X2533398Y7573645D01*
X2524254Y7582788D01*
X2519682Y7596504D01*
X2519682Y7628254D01*
X2869186Y7743825D02*
G01*
X2773682Y7743825D01*
X2869186Y7680070D02*
G01*
X2773682Y7680070D01*
X2823720Y7743825D02*
G01*
X2823720Y7680070D01*
X2869186Y7650098D02*
G01*
X2773682Y7613777D01*
X2869186Y7577454D02*
G01*
X2773682Y7613777D01*
X3123186Y7820025D02*
G01*
X3027682Y7820025D01*
X3123186Y7756270D02*
G01*
X3027682Y7756270D01*
X3077720Y7820025D02*
G01*
X3077720Y7756270D01*
X3123186Y7726298D02*
G01*
X3027682Y7689977D01*
X3123186Y7653654D02*
G01*
X3027682Y7689977D01*
X3100326Y7619111D02*
G01*
X3104898Y7619111D01*
X3114042Y7614538D01*
X3118614Y7609967D01*
X3123186Y7600822D01*
X3123186Y7582788D01*
X3118614Y7573645D01*
X3114042Y7569072D01*
X3104898Y7564501D01*
X3095754Y7564501D01*
X3086864Y7569072D01*
X3073148Y7578217D01*
X3027682Y7623683D01*
X3027682Y7559929D01*
X3377184Y7794625D02*
G01*
X3281679Y7794625D01*
X3377184Y7730870D02*
G01*
X3281679Y7730870D01*
X3331718Y7794625D02*
G01*
X3331718Y7730870D01*
X3377184Y7700898D02*
G01*
X3281679Y7664577D01*
X3377184Y7628254D02*
G01*
X3281679Y7664577D01*
X3358895Y7598283D02*
G01*
X3363468Y7589138D01*
X3377184Y7575422D01*
X3281679Y7575422D01*
X2132586Y8302625D02*
G01*
X2037082Y8302625D01*
X2037082Y8302625D02*
G01*
X2037082Y8248014D01*
X2132586Y8218043D02*
G01*
X2037082Y8181720D01*
X2132586Y8145398D02*
G01*
X2037082Y8181720D01*
X2132586Y8069961D02*
G01*
X2068832Y8115427D01*
X2068832Y8047101D01*
X2132586Y8069961D02*
G01*
X2037082Y8069961D01*
X2361186Y8302625D02*
G01*
X2265682Y8302625D01*
X2265682Y8302625D02*
G01*
X2265682Y8248014D01*
X2361186Y8218043D02*
G01*
X2265682Y8181720D01*
X2361186Y8145398D02*
G01*
X2265682Y8181720D01*
X2361186Y8106283D02*
G01*
X2361186Y8056245D01*
X2324864Y8083422D01*
X2324864Y8069961D01*
X2320292Y8060817D01*
X2315720Y8056245D01*
X2302004Y8051672D01*
X2292860Y8051672D01*
X2279398Y8056245D01*
X2270254Y8065388D01*
X2265682Y8079104D01*
X2265682Y8092567D01*
X2270254Y8106283D01*
X2274826Y8110854D01*
X2283970Y8115427D01*
X2592326Y8234553D02*
G01*
X2601470Y8238870D01*
X2610614Y8248014D01*
X2615186Y8257159D01*
X2615186Y8275446D01*
X2610614Y8284337D01*
X2601470Y8293480D01*
X2592326Y8298053D01*
X2578864Y8302625D01*
X2556004Y8302625D01*
X2542288Y8298053D01*
X2533398Y8293480D01*
X2524254Y8284337D01*
X2519682Y8275446D01*
X2519682Y8257159D01*
X2524254Y8248014D01*
X2533398Y8238870D01*
X2542288Y8234553D01*
X2556004Y8234553D01*
X2556004Y8257159D02*
G01*
X2556004Y8234553D01*
X2615186Y8204327D02*
G01*
X2519682Y8204327D01*
X2615186Y8204327D02*
G01*
X2519682Y8140827D01*
X2615186Y8140827D02*
G01*
X2519682Y8140827D01*
X2615186Y8110854D02*
G01*
X2519682Y8110854D01*
X2615186Y8110854D02*
G01*
X2615186Y8079104D01*
X2610614Y8065388D01*
X2601470Y8056245D01*
X2592326Y8051672D01*
X2578864Y8047101D01*
X2556004Y8047101D01*
X2542288Y8051672D01*
X2533398Y8056245D01*
X2524254Y8065388D01*
X2519682Y8079104D01*
X2519682Y8110854D01*
X2869186Y8277225D02*
G01*
X2773682Y8277225D01*
X2773682Y8277225D02*
G01*
X2773682Y8222614D01*
X2869186Y8192643D02*
G01*
X2773682Y8156320D01*
X2869186Y8119998D02*
G01*
X2773682Y8156320D01*
X2356611Y7820025D02*
G01*
X2261108Y7820025D01*
X2356611Y7756270D02*
G01*
X2261108Y7756270D01*
X2311145Y7820025D02*
G01*
X2311145Y7756270D01*
X2356611Y7726298D02*
G01*
X2261108Y7689977D01*
X2356611Y7653654D02*
G01*
X2261108Y7689977D01*
X2356611Y7614538D02*
G01*
X2356611Y7564501D01*
X2320290Y7591933D01*
X2320290Y7578217D01*
X2315718Y7569072D01*
X2311145Y7564501D01*
X2297684Y7559929D01*
X2288540Y7559929D01*
X2274824Y7564501D01*
X2265679Y7573645D01*
X2261108Y7587361D01*
X2261108Y7600822D01*
X2265679Y7614538D01*
X2270252Y7619111D01*
X2279395Y7623683D01*
X2128011Y7820025D02*
G01*
X2032508Y7820025D01*
X2128011Y7756270D02*
G01*
X2032508Y7756270D01*
X2082545Y7820025D02*
G01*
X2082545Y7756270D01*
X2128011Y7726298D02*
G01*
X2032508Y7689977D01*
X2128011Y7653654D02*
G01*
X2032508Y7689977D01*
X2128011Y7578217D02*
G01*
X2064511Y7623683D01*
X2064511Y7555356D01*
X2128011Y7578217D02*
G01*
X2032508Y7578217D01*
D21*
X3620515Y8305800D02*
G01*
X3511550Y8305800D01*
X3620515Y8305800D02*
G01*
X3511550Y8264144D01*
X3620515Y8222742D02*
G01*
X3511550Y8264144D01*
X3620515Y8222742D02*
G01*
X3511550Y8222742D01*
X3594608Y8183118D02*
G01*
X3599688Y8183118D01*
X3610102Y8178037D01*
X3615436Y8172704D01*
X3620515Y8162289D01*
X3620515Y8141715D01*
X3615436Y8131302D01*
X3610102Y8125968D01*
X3599688Y8120887D01*
X3589274Y8120887D01*
X3578859Y8125968D01*
X3563365Y8136381D01*
X3511550Y8188452D01*
X3511550Y8115554D01*
X1866900Y4522215D02*
G01*
X1866900Y4413250D01*
X1866900Y4522215D02*
G01*
X1908555Y4413250D01*
X1949958Y4522215D02*
G01*
X1908555Y4413250D01*
X1949958Y4522215D02*
G01*
X1949958Y4413250D01*
X1994661Y4522215D02*
G01*
X2051811Y4522215D01*
X2020570Y4480560D01*
X2036318Y4480560D01*
X2046731Y4475479D01*
X2051811Y4470400D01*
X2057145Y4454652D01*
X2057145Y4444237D01*
X2051811Y4428744D01*
X2041397Y4418329D01*
X2025904Y4413250D01*
X2010409Y4413250D01*
X1994661Y4418329D01*
X1989581Y4423410D01*
X1984247Y4433823D01*
D25*
X4444951Y3597572D02*
G01*
X4455365Y3602652D01*
X4470859Y3618400D01*
X4470859Y3509180D01*
X4557219Y3618400D02*
G01*
X4505149Y3545502D01*
X4583127Y3545502D01*
X4557219Y3618400D02*
G01*
X4557219Y3509180D01*
X4648659Y3618400D02*
G01*
X4633165Y3613066D01*
X4622751Y3597572D01*
X4617417Y3571664D01*
X4617417Y3555916D01*
X4622751Y3530008D01*
X4633165Y3514514D01*
X4648659Y3509180D01*
X4659073Y3509180D01*
X4674567Y3514514D01*
X4684981Y3530008D01*
X4690315Y3555916D01*
X4690315Y3571664D01*
X4684981Y3597572D01*
X4674567Y3613066D01*
X4659073Y3618400D01*
X4648659Y3618400D01*
X4755593Y3618400D02*
G01*
X4740099Y3613066D01*
X4729685Y3597572D01*
X4724605Y3571664D01*
X4724605Y3555916D01*
X4729685Y3530008D01*
X4740099Y3514514D01*
X4755593Y3509180D01*
X4766007Y3509180D01*
X4781755Y3514514D01*
X4792169Y3530008D01*
X4797249Y3555916D01*
X4797249Y3571664D01*
X4792169Y3597572D01*
X4781755Y3613066D01*
X4766007Y3618400D01*
X4755593Y3618400D01*
D23*
X3497325Y2465578D02*
G01*
X3486404Y2459989D01*
X3475481Y2449068D01*
X3470147Y2438145D01*
X3464813Y2421889D01*
X3464813Y2394712D01*
X3470147Y2378202D01*
X3475481Y2367279D01*
X3486404Y2356357D01*
X3497325Y2351023D01*
X3519170Y2351023D01*
X3530091Y2356357D01*
X3541013Y2367279D01*
X3546602Y2378202D01*
X3551936Y2394712D01*
X3551936Y2421889D01*
X3546602Y2438145D01*
X3541013Y2449068D01*
X3530091Y2459989D01*
X3519170Y2465578D01*
X3497325Y2465578D01*
X3588004Y2465578D02*
G01*
X3588004Y2351023D01*
X3588004Y2465578D02*
G01*
X3658870Y2465578D01*
X3588004Y2410968D02*
G01*
X3631691Y2410968D01*
X3694938Y2465578D02*
G01*
X3694938Y2351023D01*
X3694938Y2465578D02*
G01*
X3765804Y2465578D01*
X3694938Y2410968D02*
G01*
X3738625Y2410968D01*
X3546596Y2688127D02*
G01*
X3541024Y2699049D01*
X3530104Y2709971D01*
X3519175Y2715552D01*
X3497338Y2715552D01*
X3486409Y2709971D01*
X3475479Y2699049D01*
X3470145Y2688127D01*
X3464572Y2671871D01*
X3464572Y2644691D01*
X3470145Y2628183D01*
X3475479Y2617254D01*
X3486409Y2606337D01*
X3497338Y2601000D01*
X3519175Y2601000D01*
X3530104Y2606337D01*
X3541024Y2617254D01*
X3546596Y2628183D01*
X3546596Y2644691D01*
X3519175Y2644691D02*
G01*
X3546596Y2644691D01*
X3582423Y2715552D02*
G01*
X3582423Y2601000D01*
X3582423Y2715552D02*
G01*
X3658875Y2601000D01*
X3658875Y2715552D02*
G01*
X3658875Y2601000D01*
X3694943Y2715552D02*
G01*
X3694943Y2601000D01*
X3694943Y2715552D02*
G01*
X3733043Y2715552D01*
X3749306Y2709971D01*
X3760223Y2699049D01*
X3765809Y2688127D01*
X3771143Y2671871D01*
X3771143Y2644691D01*
X3765809Y2628183D01*
X3760223Y2617254D01*
X3749306Y2606337D01*
X3733043Y2601000D01*
X3694943Y2601000D01*
X3497475Y2965653D02*
G01*
X3486546Y2960067D01*
X3475616Y2949150D01*
X3470031Y2938221D01*
X3464709Y2921967D01*
X3464709Y2894538D01*
X3470031Y2878277D01*
X3475616Y2867360D01*
X3486546Y2856438D01*
X3497475Y2851101D01*
X3519312Y2851101D01*
X3530241Y2856438D01*
X3541161Y2867360D01*
X3546482Y2878277D01*
X3552090Y2894538D01*
X3552090Y2921967D01*
X3546482Y2938221D01*
X3541161Y2949150D01*
X3530241Y2960067D01*
X3519312Y2965653D01*
X3497475Y2965653D01*
X3587894Y2965653D02*
G01*
X3587894Y2883621D01*
X3593490Y2867360D01*
X3604409Y2856438D01*
X3620673Y2851101D01*
X3631590Y2851101D01*
X3647831Y2856438D01*
X3658773Y2867360D01*
X3664346Y2883621D01*
X3664346Y2965653D01*
X3738524Y2965653D02*
G01*
X3738524Y2851101D01*
X3700424Y2965653D02*
G01*
X3776624Y2965653D01*
X3489573Y3215553D02*
G01*
X3489573Y3100997D01*
X3525652Y3215553D02*
G01*
X3525652Y3100997D01*
X3525652Y3215553D02*
G01*
X3602103Y3100997D01*
X3602103Y3215553D02*
G01*
X3602103Y3100997D01*
D25*
X3597554Y3620617D02*
G01*
X3555898Y3511397D01*
X3597554Y3620617D02*
G01*
X3639210Y3511397D01*
X3571646Y3547719D02*
G01*
X3623462Y3547719D01*
X3673500Y3620617D02*
G01*
X3673500Y3511397D01*
X3673500Y3620617D02*
G01*
X3709822Y3620617D01*
X3725316Y3615283D01*
X3735730Y3604869D01*
X3741064Y3594455D01*
X3746144Y3578961D01*
X3746144Y3553053D01*
X3741064Y3537305D01*
X3735730Y3527145D01*
X3725316Y3516731D01*
X3709822Y3511397D01*
X3673500Y3511397D01*
X3822090Y3620617D02*
G01*
X3780434Y3511397D01*
X3822090Y3620617D02*
G01*
X3863492Y3511397D01*
X3795928Y3547719D02*
G01*
X3847998Y3547719D01*
X3897782Y3620617D02*
G01*
X3897782Y3511397D01*
X3897782Y3620617D02*
G01*
X3965346Y3620617D01*
X3897782Y3568547D02*
G01*
X3939438Y3568547D01*
X3999636Y3620617D02*
G01*
X3999636Y3511397D01*
X3999636Y3620617D02*
G01*
X4046372Y3620617D01*
X4062120Y3615283D01*
X4067200Y3610203D01*
X4072534Y3599789D01*
X4072534Y3589375D01*
X4067200Y3578961D01*
X4062120Y3573881D01*
X4046372Y3568547D01*
X3999636Y3568547D01*
X4035958Y3568547D02*
G01*
X4072534Y3511397D01*
X4106824Y3620617D02*
G01*
X4106824Y3542639D01*
X4111904Y3527145D01*
X4122318Y3516731D01*
X4137812Y3511397D01*
X4148226Y3511397D01*
X4163974Y3516731D01*
X4174134Y3527145D01*
X4179468Y3542639D01*
X4179468Y3620617D01*
X4213758Y3620617D02*
G01*
X4213758Y3511397D01*
X4284370Y3620617D02*
G01*
X4284370Y3511397D01*
X4248048Y3620617D02*
G01*
X4320692Y3620617D01*
D23*
X4655438Y2465806D02*
G01*
X4644516Y2460218D01*
X4633595Y2449296D01*
X4628261Y2438374D01*
X4622927Y2422118D01*
X4622927Y2394940D01*
X4628261Y2378430D01*
X4633595Y2367508D01*
X4644516Y2356586D01*
X4655438Y2351252D01*
X4677283Y2351252D01*
X4688204Y2356586D01*
X4699127Y2367508D01*
X4704715Y2378430D01*
X4710049Y2394940D01*
X4710049Y2422118D01*
X4704715Y2438374D01*
X4699127Y2449296D01*
X4688204Y2460218D01*
X4677283Y2465806D01*
X4655438Y2465806D01*
X4746116Y2465806D02*
G01*
X4746116Y2351252D01*
X4746116Y2465806D02*
G01*
X4816983Y2465806D01*
X4746116Y2411196D02*
G01*
X4789804Y2411196D01*
X4853050Y2465806D02*
G01*
X4853050Y2351252D01*
X4853050Y2465806D02*
G01*
X4923916Y2465806D01*
X4853050Y2411196D02*
G01*
X4896738Y2411196D01*
X4704709Y2688356D02*
G01*
X4699137Y2699278D01*
X4688217Y2710200D01*
X4677288Y2715780D01*
X4655451Y2715780D01*
X4644522Y2710200D01*
X4633592Y2699278D01*
X4628258Y2688356D01*
X4622685Y2672100D01*
X4622685Y2644919D01*
X4628258Y2628412D01*
X4633592Y2617482D01*
X4644522Y2606565D01*
X4655451Y2601229D01*
X4677288Y2601229D01*
X4688217Y2606565D01*
X4699137Y2617482D01*
X4704709Y2628412D01*
X4704709Y2644919D01*
X4677288Y2644919D02*
G01*
X4704709Y2644919D01*
X4740536Y2715780D02*
G01*
X4740536Y2601229D01*
X4740536Y2715780D02*
G01*
X4816988Y2601229D01*
X4816988Y2715780D02*
G01*
X4816988Y2601229D01*
X4853056Y2715780D02*
G01*
X4853056Y2601229D01*
X4853056Y2715780D02*
G01*
X4891156Y2715780D01*
X4907419Y2710200D01*
X4918336Y2699278D01*
X4923922Y2688356D01*
X4929256Y2672100D01*
X4929256Y2644919D01*
X4923922Y2628412D01*
X4918336Y2617482D01*
X4907419Y2606565D01*
X4891156Y2601229D01*
X4853056Y2601229D01*
X4655588Y2965881D02*
G01*
X4644659Y2960296D01*
X4633729Y2949379D01*
X4628144Y2938449D01*
X4622822Y2922196D01*
X4622822Y2894766D01*
X4628144Y2878505D01*
X4633729Y2867588D01*
X4644659Y2856666D01*
X4655588Y2851330D01*
X4677425Y2851330D01*
X4688354Y2856666D01*
X4699274Y2867588D01*
X4704595Y2878505D01*
X4710203Y2894766D01*
X4710203Y2922196D01*
X4704595Y2938449D01*
X4699274Y2949379D01*
X4688354Y2960296D01*
X4677425Y2965881D01*
X4655588Y2965881D01*
X4746007Y2965881D02*
G01*
X4746007Y2883849D01*
X4751603Y2867588D01*
X4762522Y2856666D01*
X4778786Y2851330D01*
X4789703Y2851330D01*
X4805944Y2856666D01*
X4816886Y2867588D01*
X4822459Y2883849D01*
X4822459Y2965881D01*
X4896637Y2965881D02*
G01*
X4896637Y2851330D01*
X4858537Y2965881D02*
G01*
X4934737Y2965881D01*
X4647686Y3215782D02*
G01*
X4647686Y3101225D01*
X4683765Y3215782D02*
G01*
X4683765Y3101225D01*
X4683765Y3215782D02*
G01*
X4760216Y3101225D01*
X4760216Y3215782D02*
G01*
X4760216Y3101225D01*
D10*
X2214879Y9153954D02*
G01*
X2214918Y8753055D01*
X3136900Y8953500D02*
G01*
X3111500Y8953500D01*
X3644900Y8953500D02*
G01*
X3670300Y8953500D01*
X3136900Y8953500D02*
G01*
X3136900Y9029700D01*
X3136900Y8877300D02*
G01*
X3136900Y8953500D01*
X3644900Y8877300D02*
G01*
X3136900Y8877300D01*
X3644900Y8953500D02*
G01*
X3644900Y8877300D01*
X3644900Y9029700D02*
G01*
X3644900Y8953500D01*
X3136900Y9029700D02*
G01*
X3644900Y9029700D01*
X5092700Y4533900D02*
G01*
X5232400Y4533900D01*
X5232400Y4782820D01*
X5316222Y4782820D01*
X5316222Y4384039D01*
X5237479Y4782820D02*
G01*
X5316220Y4782820D01*
X5316220Y4033520D01*
X4518659Y4033520D01*
X4521200Y4673600D01*
X4597400Y4673600D01*
X4597400Y4533900D01*
X5237479Y4533900D01*
X5237479Y4782820D01*
X5143500Y4033520D02*
G01*
X4691379Y4033520D01*
X5549900Y4127500D02*
G01*
X5549900Y4038600D01*
X6311900Y4038600D01*
X6311900Y4127500D01*
X6101077Y4577079D02*
G01*
X6179814Y4577079D01*
X5681977Y4577079D02*
G01*
X5760714Y4577079D01*
D21*
X5676900Y4023357D02*
G01*
X5727700Y4074157D01*
X6134100Y4074157D01*
X6184900Y4023357D01*
D10*
X5585457Y4038600D02*
G01*
X5585457Y4020820D01*
X5554977Y3977642D01*
X5534657Y3995420D01*
X5562600Y4038600D01*
X5659114Y3980179D02*
G01*
X6207757Y3980179D01*
X5918200Y4485642D02*
G01*
X5918200Y4533900D01*
X5941057Y4533900D01*
X5941057Y4485642D01*
X5984237Y4572000D02*
G01*
X5984237Y4528820D01*
X5882637Y4528820D02*
G01*
X5882637Y4572000D01*
X5882637Y4500879D02*
G01*
X5882637Y4528820D01*
X5765800Y4528820D01*
X5681977Y4528820D01*
X5648957Y4528820D01*
X5603237Y4528820D01*
X5588000Y4531357D02*
G01*
X5588000Y4544057D01*
X5572757Y4544057D01*
X5572757Y4572000D01*
X5882637Y4572000D01*
X5984237Y4572000D01*
X6291577Y4572000D01*
X6291577Y4546600D01*
X6266177Y4546600D01*
X6266177Y4528820D01*
X6223000Y4528820D01*
X6177277Y4528820D01*
X6098537Y4528820D01*
X5984237Y4528820D01*
X5984237Y4503420D01*
X6301737Y4038600D02*
G01*
X6306814Y4038600D01*
X6306814Y4488179D01*
X5554977Y4480557D02*
G01*
X5554977Y4038600D01*
X5562600Y4038600D01*
X5585457Y4038600D01*
X5623557Y4038600D01*
X6240777Y4038600D01*
X6240777Y4013200D02*
G01*
X6240777Y4038600D01*
X6301737Y4038600D01*
X6329677Y3995420D01*
X6309357Y3977642D01*
X6281414Y4018279D01*
X6281414Y4033520D01*
X6365237Y4033520D01*
X5623557Y4038600D02*
G01*
X5623557Y4015742D01*
X5963914Y4483100D02*
G01*
X5900414Y4483100D01*
X3962400Y9829800D02*
G01*
X6862394Y9829800D01*
X6862394Y4029786D01*
X3962400Y4029786D01*
X3962400Y9829800D01*
X3449574Y8556625D02*
G01*
X3449574Y7324725D01*
X1950974Y7324725D01*
X1950974Y8556625D01*
X3449574Y8556625D01*
X3093110Y4553508D02*
G01*
X793114Y4553508D01*
X793114Y7003516D01*
X3093110Y7003516D01*
X3093110Y4553508D01*
X2197100Y4635500D02*
G01*
X1689100Y4635500D01*
X1689100Y5016500D01*
X2197100Y5016500D01*
X2197100Y4635500D01*
X5194731Y3454857D02*
G01*
X5194731Y2079955D01*
X4966131Y1880057D02*
G01*
X3366185Y1880057D01*
X3162731Y2080717D02*
G01*
X3164763Y3450285D01*
X3365931Y3658057D02*
G01*
X4996611Y3657803D01*
D22*
G75*
G01*
X1181100Y3276600D02*
G02*
X1181100Y2616200I-6476J-330200D01*
G75*
G01*
X1346200Y7759700D02*
G02*
X1346200Y7099300I-6476J-330200D01*
D10*
G75*
G01*
X2214898Y8753056D02*
G03*
X2214918Y9153954I134345J200442D01*
G75*
G01*
X6208519Y3980434D02*
G03*
X6240899Y4012946I-120J32500D01*
G75*
G01*
X5623400Y4015486D02*
G03*
X5658355Y3980434I35000J-52D01*
G75*
G01*
X5603400Y4527860D02*
G03*
X5555993Y4480306I91J-47498D01*
G75*
G01*
X5900925Y4482846D02*
G02*
X5883399Y4500372I0J17526D01*
G75*
G01*
X5983475Y4502912D02*
G02*
X5963409Y4482846I-20066J0D01*
G75*
G01*
X6305801Y4487860D02*
G03*
X6265923Y4527860I-39877J122D01*
G75*
G01*
X5194686Y2083262D02*
G02*
X4966086Y1880062I-227462J25707D01*
G75*
G01*
X3362711Y1880537D02*
G02*
X3162711Y2080537I0J200000D01*
G75*
G01*
X3164718Y3457809D02*
G02*
X3364718Y3657808I200000J0D01*
G75*
G01*
X4991486Y3658062D02*
G02*
X5191486Y3458063I0J-199999D01*
G75*
G01
X1581150Y2946400D02*
G03X1581150Y2946400I-400050J0D01*
G75*
G01
X1746250Y7429500D02*
G03X1746250Y7429500I-400050J0D01*
G75*
G01
X4355922Y9596806D02*
G03X4355922Y9596806I-150012J0D01*
G75*
G01
X6768922Y9596806D02*
G03X6768922Y9596806I-150012J0D01*
G75*
G01
X4355922Y4275506D02*
G03X4355922Y4275506I-150012J0D01*
G75*
G01
X6768922Y4275506D02*
G03X6768922Y4275506I-150012J0D01*
M02*
